<?xml version="1.0" encoding="UTF-8" standalone="no"?>
<!DOCTYPE svg PUBLIC "-//W3C//DTD SVG 1.1//EN" "http://www.w3.org/Graphics/SVG/1.1/DTD/svg11.dtd">
<svg xmlns="http://www.w3.org/2000/svg" xmlns:xlink="http://www.w3.org/1999/xlink" version="1.1">
<metadata>
Created by FontForge 20170731 at Tue Jun  1 17:06:25 2021
 By Aleksey,,,
</metadata>
<defs>
<font id="LambtonIconsBlackOutline" horiz-adv-x="1701">
  <font-face font-family="Lambton Icons Black Outline" font-weight="400" font-stretch="normal" units-per-em="2048" panose-1="0 0 0 0 0 0 0 0 0 0" ascent="1638" descent="-410" x-height="1005" cap-height="1401" bbox="102 -18 1599 1515" underline-thickness="102" underline-position="-307" unicode-range="U+000A-00AD"/>
<missing-glyph horiz-adv-x="1079" d="M102 1434h875v-1434h-875v1434zM160 1393l379 -633l381 633h-760zM514 717l-369 614v-1231zM541 674l-379 -631h758zM565 717l371 -621v1239z"/>
    <glyph glyph-name=".notdef" horiz-adv-x="1079" d="M102 1434h875v-1434h-875v1434zM160 1393l379 -633l381 633h-760zM514 717l-369 614v-1231zM541 674l-379 -631h758zM565 717l371 -621v1239z"/>
    <glyph glyph-name=".null" horiz-adv-x="0"/>
    <glyph glyph-name=".null" horiz-adv-x="0"/>
    <glyph glyph-name="nonmarkingreturn" horiz-adv-x="682"/>
    <glyph glyph-name="controlLF" unicode="&#xA;" horiz-adv-x="0"/>
    <glyph glyph-name="controlCR" unicode="&#xD;" horiz-adv-x="0"/>
    <glyph glyph-name="space" unicode=" "/>
    <glyph glyph-name="exclam" unicode="!" d="M585 664q-110 0 -188 78.5t-78 188.5t78 188t188 78t188 -78t78 -188t-78 -188.5t-188 -78.5zM585 1078q-62 0 -105 -43t-43 -104t43.5 -104.5t104.5 -43.5t104.5 43.5t43.5 104.5t-43 104t-105 43zM1147 783q172 0 293 -121t121 -293q0 -25 -17.5 -42t-42.5 -17t-42 17 t-17 42q0 113 -75 197q-82 91 -204 98t-213 -75l-1 -1q-19 -16 -43 -14.5t-41 20.5q-16 19 -14.5 42.5t20.5 40.5q118 106 276 106zM1176 901q-110 0 -188 78t-78 188t78 188t188 78t188 -78t78 -188t-78 -188t-188 -78zM1176 1315q-62 0 -105 -43.5t-43 -104.5t43 -104.5 t105 -43.5t105 43.5t43 104.5t-43 104.5t-105 43.5zM585 546q184 0 313.5 -129.5t129.5 -313.5v-30q0 -25 -17 -42t-42 -17t-42 17t-17 42v30q0 135 -95 230t-230 95t-230 -95t-95 -230v-30q0 -25 -17.5 -42t-42.5 -17t-42 17t-17 42v30q0 120 59.5 222.5t161.5 161.5 t223 59z"/>
    <glyph glyph-name="quotedbl" unicode="&quot;" d="M1337 606q55 -36 53 -76q-1 -28 -11 -60q-36 -116 -185 -243q-68 -59 -154 -116t-138 -84l-51 -27q-21 11 -56.5 30t-127 78.5t-159.5 118.5q-149 127 -185 243q-10 32 -11 60q-2 40 53 76q129 83 486 83t486 -83zM1364 1472q11 -1 18.5 -10t7.5 -20v-544q-7 4 -21.5 10 t-64.5 21.5t-107.5 27.5t-151 22t-194.5 10t-193.5 -9.5t-152.5 -22.5t-106 -26.5t-67 -22.5l-20 -10v315q0 15 13 25q36 25 88 53t177.5 73.5t270.5 74.5q283 57 503 33z"/>
    <glyph glyph-name="quotedbl" unicode="”" d="M1337 606q55 -36 53 -76q-1 -28 -11 -60q-36 -116 -185 -243q-68 -59 -154 -116t-138 -84l-51 -27q-21 11 -56.5 30t-127 78.5t-159.5 118.5q-149 127 -185 243q-10 32 -11 60q-2 40 53 76q129 83 486 83t486 -83zM1364 1472q11 -1 18.5 -10t7.5 -20v-544q-7 4 -21.5 10 t-64.5 21.5t-107.5 27.5t-151 22t-194.5 10t-193.5 -9.5t-152.5 -22.5t-106 -26.5t-67 -22.5l-20 -10v315q0 15 13 25q36 25 88 53t177.5 73.5t270.5 74.5q283 57 503 33z"/>
    <glyph glyph-name="quotedbl" unicode="“" d="M1337 606q55 -36 53 -76q-1 -28 -11 -60q-36 -116 -185 -243q-68 -59 -154 -116t-138 -84l-51 -27q-21 11 -56.5 30t-127 78.5t-159.5 118.5q-149 127 -185 243q-10 32 -11 60q-2 40 53 76q129 83 486 83t486 -83zM1364 1472q11 -1 18.5 -10t7.5 -20v-544q-7 4 -21.5 10 t-64.5 21.5t-107.5 27.5t-151 22t-194.5 10t-193.5 -9.5t-152.5 -22.5t-106 -26.5t-67 -22.5l-20 -10v315q0 15 13 25q36 25 88 53t177.5 73.5t270.5 74.5q283 57 503 33z"/>
    <glyph glyph-name="numbersign" unicode="#" d="M1590 1254v-1v-985v-1v-67q0 -24 -17 -39.5t-44 -15.5q-28 0 -45 16.5t-17 44.5v11l-360 95l-41 -149q-8 -40 -55 -74q-27 -18 -62 -18q-18 0 -30 6l-327 86q-50 13 -75 57t-11 91l40 147l-120 31h-253q-28 0 -44.5 17t-16.5 45v419q0 28 16.5 45t44.5 17h253l1041 272 v11q0 28 17 45t45 17t44.5 -17t16.5 -45v-61zM383 613v295h-148v-295h148zM949 194l41 148l-327 86l-40 -148zM1467 348v825l-961 -252v-321z"/>
    <glyph glyph-name="dollar" unicode="$" d="M496 369q25 0 42 -17.5t17 -42.5t-17 -42t-42 -17h-59q-25 0 -42 17t-17 42t17 42.5t42 17.5h59zM1265 369q25 0 42 -17.5t17 -42.5t-17 -42t-42 -17h-59q-25 0 -42 17t-17 42t17 42.5t42 17.5h59zM1206 605h59q25 0 42 -17t17 -42t-17 -42t-42 -17h-59q-25 0 -42 17 t-17 42t17 42t42 17zM1265 1078q122 0 209 -86.5t87 -208.5v-592q0 -73 -52 -125t-126 -52h-1064q-74 0 -126 52t-52 125v592q0 122 87 208.5t209 86.5h277q36 26 78 36v222q0 22 9 42q17 36 55 49.5t74 -3.5l189 -88q11 -7 19 -20q13 -21 7.5 -44.5t-26.5 -36.5l-209 -98 v-23q42 -10 78 -36h277zM1265 960h-153l66 -66q52 -52 126 -52h127q-19 53 -64.5 85.5t-101.5 32.5zM437 960q-56 0 -102 -32.5t-65 -85.5h128q74 0 126 52l66 66h-153zM910 132v177q0 25 -17 42.5t-42 17.5t-42 -17.5t-17 -42.5v-177h118zM1442 191v532h-138 q-124 0 -209 87l-160 160q-35 34 -84 34t-84 -34l-160 -160q-85 -87 -209 -87h-138v-532q0 -25 17 -42t42 -17h355v177q0 74 52 126t125 52t125 -52t52 -126v-177h355q25 0 42 17t17 42zM496 605q25 0 42 -17t17 -42t-17 -42t-42 -17h-59q-25 0 -42 17t-17 42t17 42t42 17 h59zM851 842q49 0 83.5 -35t34.5 -84t-34.5 -83.5t-83.5 -34.5t-83.5 34.5t-34.5 83.5t34.5 84t83.5 35z"/>
    <glyph glyph-name="percent" unicode="%" d="M1344 1216q102 0 174 -72t72 -174v-308q0 -102 -72 -174t-174 -72h-370q-102 0 -174 72t-72 174h-493v-616q0 -26 -18.5 -44t-43.5 -18t-43 18t-18 44v1170q0 102 72 174.5t174 72.5h431q102 0 174.5 -72.5t72.5 -174.5h308zM789 785q51 0 87.5 36t36.5 87v308 q0 51 -36.5 87.5t-87.5 36.5h-431q-51 0 -87 -36.5t-36 -87.5v-431h554zM1467 662v308q0 51 -36 87t-87 36h-308v-185q0 -84 -52 -150t-133 -87v-9q0 -51 36 -87t87 -36h370q51 0 87 36t36 87z"/>
    <glyph glyph-name="ampersand" unicode="&amp;" d="M733 842q25 0 42 -17t17 -42v-473q0 -25 -17 -42.5t-42 -17.5h-296q-25 0 -42 17.5t-17 42.5v473q0 25 17 42t42 17h296zM674 369v355h-178v-355h178zM1265 842q25 0 42 -17t17 -42t-17 -42t-42 -17h-296q-25 0 -42 17t-17 42t17 42t42 17h296zM1265 1197q122 0 209 -87 t87 -209v-591q0 -122 -87 -209t-209 -87h-828q-122 0 -209 87t-87 209v591q0 122 87 209t209 87h237v59q0 74 52 125.5t125 51.5t125 -51.5t52 -125.5v-59h237zM792 1256v-118q0 -25 17 -42.5t42 -17.5t42 17.5t17 42.5v118q0 25 -17 42t-42 17t-42 -17t-17 -42zM1442 310 v591q0 73 -52 125t-125 52h-248q-28 -80 -108 -108q-69 -24 -135 7.5t-90 100.5h-247q-73 0 -125 -52t-52 -125v-591q0 -74 52 -126t125 -52h828q73 0 125 52t52 126zM1265 605q25 0 42 -17t17 -42t-17 -42t-42 -17h-296q-25 0 -42 17t-17 42t17 42t42 17h296zM1147 369 q25 0 42 -17t17 -42t-17 -42.5t-42 -17.5h-178q-25 0 -42 17.5t-17 42.5t17 42t42 17h178z"/>
    <glyph glyph-name="quotesingle" unicode="'" d="M1324 1076q17 -17 17 -41.5t-17 -41.5l-547 -547q-35 -34 -84 -34t-83 34l-232 231q-17 17 -17 42t17 42t41.5 17t41.5 -17l232 -232l547 547q17 17 42 17t42 -17z"/>
    <glyph glyph-name="quotesingle" unicode="’" d="M1324 1076q17 -17 17 -41.5t-17 -41.5l-547 -547q-35 -34 -84 -34t-83 34l-232 231q-17 17 -17 42t17 42t41.5 17t41.5 -17l232 -232l547 547q17 17 42 17t42 -17z"/>
    <glyph glyph-name="quotesingle" unicode="‘" d="M1324 1076q17 -17 17 -41.5t-17 -41.5l-547 -547q-35 -34 -84 -34t-83 34l-232 231q-17 17 -17 42t17 42t41.5 17t41.5 -17l232 -232l547 547q17 17 42 17t42 -17z"/>
    <glyph glyph-name="parenleft" unicode="(" d="M806 1461q150 9 290.5 -41t245.5 -142.5t172 -225.5t76 -283v-477q0 -128 -90 -218t-218 -90h-430q-144 0 -276.5 54t-231 146.5t-160.5 221t-71 272.5q-9 150 41 290t142.5 245t226 172t283.5 76zM1467 292v471q-8 126 -66 239.5t-156 194.5q-169 141 -393 141 q-35 0 -80 -5q-210 -28 -358.5 -178.5t-174.5 -360.5q-16 -131 24 -257t129 -224q88 -98 208 -152t252 -54h430q76 0 130.5 54.5t54.5 130.5zM605 907q-25 0 -43.5 18.5t-18.5 43.5t18.5 43.5t43.5 18.5h246q25 0 43.5 -18.5t18.5 -43.5t-18.5 -43.5t-43.5 -18.5h-246z M1097 784q26 0 44 -18t18 -43t-18.5 -43.5t-43.5 -18.5h-492q-25 0 -43.5 18.5t-18.5 43.5t18 43t44 18h492zM1097 538q26 0 44 -18t18 -43t-18.5 -43.5t-43.5 -18.5h-492q-25 0 -43.5 18.5t-18.5 43.5t18 43t44 18h492z"/>
    <glyph glyph-name="parenright" unicode=")" d="M1582 1007q8 -14 8 -29v-765q0 -26 -18 -45t-43 -19t-43.5 19t-18.5 45v526l-123 -61v-313q0 -105 -60 -189t-157 -116q-135 -41 -276 -39q-141 -2 -276 39q-97 31 -157 115.5t-60 189.5v313l-127 62q-56 32 -89 91q-47 85 -22.5 178.5t106.5 142.5q1 0 2.5 1t2.5 2 l460 227q76 45 163 44t162 -47l454 -224q85 -49 112 -148zM1221 365v252l-210 -104q-73 -44 -159 -44q-90 0 -166 47l-205 101v-252q0 -63 36 -113.5t94 -69.5q117 -35 240 -33q123 -2 240 33q58 19 94 69.5t36 113.5zM1418 855q49 32 49 92q0 63 -55 95l-454 224 q-48 31 -104 31.5t-105 -28.5l-462 -228q-27 -16 -40 -42q-20 -39 -7.5 -82.5t50.5 -64.5l454 -223q48 -31 104 -31.5t105 28.5z"/>
    <glyph glyph-name="asterisk" unicode="*" d="M1514 908q92 -105 73 -245l-43 -308q-16 -114 -103 -189t-202 -76h-819q-128 0 -218 90t-90 218v308q0 128 90 218t218 90h167l118 239q27 55 82 83.5t116 18.5q77 -13 122 -76t32 -139l-21 -126h246q67 0 127.5 -28t104.5 -78zM543 213v678h-123q-76 0 -130.5 -54.5 t-54.5 -130.5v-308q0 -76 54.5 -130.5t130.5 -54.5h123zM1465 680q2 18 2 26q0 76 -54.5 130.5t-130.5 54.5h-318h-10q-25 4 -40 24.5t-11 46.5l32 197q5 30 -14 52q-10 10 -16 13q-24 13 -50 5.5t-40 -31.5l-135 -273q-7 -12 -14 -18v-694h573q69 0 120.5 45.5t61.5 113.5z "/>
    <glyph glyph-name="plus" unicode="+" d="M852 1434q128 0 237 -64t172 -173t63 -237q0 -178 -118 -312v-487q0 -51 -33 -92q-38 -48 -98.5 -54.5t-108.5 31.5l-97 77q-19 15 -37 0l-96 -77q-41 -33 -92 -33q-62 0 -105 43.5t-43 104.5v487q-118 135 -118 314q0 128 64 237t173 172t237 63zM1087 161v389 q-109 -64 -236 -64t-237 64v-389q0 -9 7 -18q7 -10 19 -11.5t22 6.5l97 77q41 32 92 32t92 -32l96 -77q15 -12 32 -3q16 8 16 26zM851 605q147 0 251 104t104 251t-104 250.5t-251 103.5t-251 -103.5t-104 -250.5t104 -251t251 -104z"/>
    <glyph glyph-name="comma" unicode="," d="M1221 952q16 -16 16 -39t-16 -39l-331 -331q-16 -16 -39 -16t-39 16l-331 331q-17 16 -17 39t17 39t39 16t39 -16l227 -226q27 -27 65 -27t65 27l227 226q17 16 39 16t39 -16z"/>
    <glyph glyph-name="hyphen" unicode="-" d="M1518 1267q72 -72 72 -174v-862q0 -102 -72 -174q-73 -73 -174 -73h-986q-101 0 -174 73q-72 72 -72 174v862q0 102 72 174q73 73 174 73h62v61q0 26 18 44t43 18t43.5 -18.5t18.5 -43.5v-61h246v61q0 25 18.5 43.5t43.5 18.5t43.5 -18.5t18.5 -43.5v-61h246v61 q0 25 18.5 43.5t43.5 18.5t43 -18t18 -44v-61h62q101 0 174 -73zM1467 231v616h-1232v-616q0 -51 36 -87t87 -36h986q51 0 87 36t36 87zM235 970h1232v123q0 51 -36 87t-87 36h-62v-61q0 -26 -18 -44t-43 -18t-43.5 18.5t-18.5 43.5v61h-246v-61q0 -25 -18.5 -43.5 t-43.5 -18.5t-43 18t-18 44v61h-247v-61q0 -25 -18.5 -43.5t-43.5 -18.5t-43 18t-18 44v61h-62q-51 0 -87 -36t-36 -87v-123zM423 321q-8 0 -13.5 5.5t-5.5 13.5v297q0 8 5.5 13.5t13.5 5.5h51q13 0 21 -14l99 -178v173q0 7 6 13t13 6h37q8 0 13.5 -5.5t5.5 -13.5v-297 q0 -19 -19 -19h-38q-15 0 -26 19l-107 190v-190q0 -8 -5.5 -13.5t-13.5 -5.5h-37zM854 317q-59 0 -96.5 39t-37.5 101v63q0 62 37.5 101t96.5 39t96.5 -39t37.5 -101v-63q0 -62 -37.5 -101t-96.5 -39zM911 458v61q0 33 -16.5 51t-40.5 18q-26 0 -41.5 -19t-15.5 -50v-61 q0 -31 15.5 -50t41.5 -19t41.5 18.5t15.5 50.5zM1122 334l-103 295q-3 9 -3 12q0 6 4.5 10.5t10.5 4.5h45q15 0 22 -20l65 -202l65 201q7 21 21 21h42q6 0 11 -4.5t5 -10.5l-5 -18l-101 -289q-5 -13 -18 -13h-43q-13 0 -18 13z"/>
    <glyph glyph-name="period" unicode="." d="M959 849q29 -30 29 -73t-29 -73l-597 -636q-28 -30 -68 -30t-69 30l-65 69q-28 30 -28 73t28 73l396 421q28 30 28 73t-28 73l-396 422q-28 30 -28 73t28 73l65 68q29 30 68.5 30t68.5 -30zM1541 849q29 -30 29 -73t-29 -73l-597 -636q-28 -30 -68 -30t-68 30l-65 69 q-29 30 -29 73t29 73l395 421q28 30 28 73t-28 73l-395 422q-29 30 -29 73t29 73l65 68q28 30 68.5 30t68.5 -30z"/>
    <glyph glyph-name="slash" unicode="/" d="M1337 621q55 -36 53 -77q-1 -27 -11 -59q-36 -116 -185 -243q-68 -59 -154 -116t-138 -84l-51 -27q-21 11 -56.5 30t-127 78.5t-159.5 118.5q-149 127 -185 243q-10 32 -11 59q-2 41 53 77q129 83 486 83t486 -83zM1364 1486q11 -2 18.5 -10t7.5 -19v-544q-7 4 -21.5 10 t-64.5 21.5t-107.5 27.5t-151 22t-194.5 10q-160 0 -294.5 -23t-189.5 -45l-55 -23v315q0 15 13 25q36 25 88 53t177.5 73.5t270.5 74.5q279 56 503 32z"/>
    <glyph glyph-name="zero" unicode="0" d="M1518 1267q72 -72 72 -174v-862q0 -102 -72 -174q-73 -73 -174 -73h-986q-101 0 -174 73q-72 72 -72 174v862q0 102 72 174q73 73 174 73h62v61q0 26 18 44t43 18t43.5 -18.5t18.5 -43.5v-61h246v61q0 25 18.5 43.5t43.5 18.5t43.5 -18.5t18.5 -43.5v-61h246v61 q0 25 18.5 43.5t43.5 18.5t43 -18t18 -44v-61h62q101 0 174 -73zM1467 231v616h-1232v-616q0 -51 36 -87t87 -36h986q51 0 87 36t36 87zM235 970h1232v123q0 51 -36 87t-87 36h-62v-61q0 -26 -18 -44t-43 -18t-43.5 18.5t-18.5 43.5v61h-246v-61q0 -25 -18.5 -43.5 t-43.5 -18.5t-43 18t-18 44v61h-247v-61q0 -25 -18.5 -43.5t-43.5 -18.5t-43 18t-18 44v61h-62q-51 0 -87 -36t-36 -87v-123zM556 317q-59 0 -96.5 39t-37.5 101v63q0 62 37.5 101.5t96.5 39.5t96.5 -39.5t37.5 -101.5v-63q0 -62 -37.5 -101t-96.5 -39zM613 458v61 q0 33 -16.5 51t-40.5 18q-26 0 -41.5 -19t-15.5 -50v-61q0 -31 15.5 -50t41.5 -19t41.5 18.5t15.5 50.5zM866 317q-59 0 -96.5 39t-37.5 101v63q0 62 37.5 101.5t96.5 39.5q55 0 89.5 -34.5t37.5 -79.5q0 -8 -4 -12q-5 -5 -11 -5h-48q-14 0 -16 17q-7 41 -48 41 q-26 0 -41.5 -19t-15.5 -50v-62q0 -31 15.5 -49.5t41.5 -18.5q44 0 48 39q4 19 17 19h48q5 0 10 -5q4 -4 4 -11q-3 -46 -37.5 -80t-89.5 -34zM1039 583q-7 0 -13 5.5t-6 13.5v35q0 8 5.5 13.5t13.5 5.5h221q8 0 13.5 -5.5t5.5 -13.5v-35q0 -8 -5.5 -13.5t-13.5 -5.5h-72 v-243q0 -8 -5.5 -13.5t-13.5 -5.5h-39q-8 0 -13.5 5.5t-5.5 13.5v243h-72z"/>
    <glyph glyph-name="one" unicode="1" d="M1518 1267q72 -72 72 -174v-862q0 -102 -72 -174q-73 -73 -174 -73h-986q-101 0 -174 73q-72 72 -72 174v862q0 102 72 174q73 73 174 73h62v61q0 26 18 44t43 18t43.5 -18.5t18.5 -43.5v-61h246v61q0 25 18.5 43.5t43.5 18.5t43.5 -18.5t18.5 -43.5v-61h246v61 q0 25 18.5 43.5t43.5 18.5t43 -18t18 -44v-61h62q101 0 174 -73zM1467 231v616h-1232v-616q0 -51 36 -87t87 -36h986q51 0 87 36t36 87zM235 970h1232v123q0 51 -36 87t-87 36h-62v-61q0 -26 -18 -44t-43 -18t-43.5 18.5t-18.5 43.5v61h-246v-61q0 -25 -18.5 -43.5 t-43.5 -18.5t-43 18t-18 44v61h-247v-61q0 -25 -18.5 -43.5t-43.5 -18.5t-43 18t-18 44v61h-62q-51 0 -87 -36t-36 -87v-123zM513 317q-43 0 -76.5 30t-33.5 81v3q0 8 5.5 13.5t13.5 5.5h37q8 0 13.5 -5.5t5.5 -13.5v-4q0 -18 11.5 -28t23.5 -10t23 10t11 28v210 q0 8 5.5 13.5t13.5 5.5h39q8 0 13.5 -5.5t5.5 -13.5v-209q0 -51 -33.5 -81t-77.5 -30zM670 321q-15 0 -15 15q0 3 2 9v1l105 297q4 13 19 13h52q13 0 18 -14l103 -293q3 -9 3 -13q0 -15 -15 -15h-47q-14 0 -16 12l-18 52h-114l-17 -52q-3 -12 -16 -12h-44zM771 455h68 l-33 103zM1014 321q-8 0 -13.5 5.5t-5.5 13.5v297q0 7 5.5 13t13.5 6h51q12 0 20 -14l99 -178v173q0 8 6 13.5t14 5.5h36q8 0 13.5 -6t5.5 -13v-297q0 -8 -5.5 -13.5t-13.5 -5.5h-37q-15 0 -26 19l-107 190v-190q0 -19 -19 -19h-37z"/>
    <glyph glyph-name="two" unicode="2" d="M1518 1267q72 -72 72 -174v-862q0 -102 -72 -174q-73 -73 -174 -73h-986q-101 0 -174 73q-72 72 -72 174v862q0 102 72 174q73 73 174 73h62v61q0 26 18 44t43 18t43.5 -18.5t18.5 -43.5v-61h246v61q0 25 18.5 43.5t43.5 18.5t43.5 -18.5t18.5 -43.5v-61h246v61 q0 25 18.5 43.5t43.5 18.5t43 -18t18 -44v-61h62q101 0 174 -73zM1467 231v616h-1232v-616q0 -51 36 -87t87 -36h986q51 0 87 36t36 87zM235 970h1232v123q0 51 -36 87t-87 36h-62v-61q0 -26 -18 -44t-43 -18t-43.5 18.5t-18.5 43.5v61h-246v-61q0 -25 -18.5 -43.5 t-43.5 -18.5t-43 18t-18 44v61h-247v-61q0 -25 -18.5 -43.5t-43.5 -18.5t-43 18t-18 44v61h-62q-51 0 -87 -36t-36 -87v-123zM485 321q-8 0 -13.5 5.5t-5.5 13.5v297q0 7 6 13t13 6h177q8 0 13.5 -6t5.5 -13v-34q0 -8 -5.5 -14t-13.5 -6h-119v-69h91q8 0 13.5 -5.5 t5.5 -13.5v-34q0 -8 -5.5 -13.5t-13.5 -5.5h-91v-102q0 -8 -5.5 -13.5t-13.5 -5.5h-39zM742 321q-19 0 -19 19v297q0 8 5.5 13.5t13.5 5.5h177q8 0 13.5 -5.5t5.5 -13.5v-35q0 -8 -5.5 -13.5t-13.5 -5.5h-119v-56h91q8 0 13.5 -5.5t5.5 -13.5v-34q0 -8 -5.5 -13.5 t-13.5 -5.5h-91v-61h119q8 0 13.5 -5.5t5.5 -13.5v-35q0 -19 -19 -19h-177zM1006 321q-8 0 -13.5 5.5t-5.5 13.5v297q0 8 5.5 13.5t13.5 5.5h108q53 0 82.5 -24.5t29.5 -70.5v-7q0 -43 -34 -63q41 -24 41 -69v-4q0 -97 -126 -97h-101zM1064 526h45q22 0 31 5t9 20v6 q0 17 -9.5 21.5t-30.5 4.5h-45v-57zM1064 394h50q42 0 42 28v3q0 29 -42 29h-50v-60z"/>
    <glyph glyph-name="three" unicode="3" d="M1518 1267q72 -72 72 -174v-862q0 -102 -72 -174q-73 -73 -174 -73h-986q-101 0 -174 73q-72 72 -72 174v862q0 102 72 174q73 73 174 73h62v61q0 26 18 44t43 18t43.5 -18.5t18.5 -43.5v-61h246v61q0 25 18.5 43.5t43.5 18.5t43.5 -18.5t18.5 -43.5v-61h246v61 q0 25 18.5 43.5t43.5 18.5t43 -18t18 -44v-61h62q101 0 174 -73zM1467 231v616h-1232v-616q0 -51 36 -87t87 -36h986q51 0 87 36t36 87zM235 970h1232v123q0 51 -36 87t-87 36h-62v-61q0 -26 -18 -44t-43 -18t-43.5 18.5t-18.5 43.5v61h-246v-61q0 -25 -18.5 -43.5 t-43.5 -18.5t-43 18t-18 44v61h-247v-61q0 -25 -18.5 -43.5t-43.5 -18.5t-43 18t-18 44v61h-62q-51 0 -87 -36t-36 -87v-123zM383 321q-8 0 -13.5 5.5t-5.5 13.5v297q0 8 5.5 13.5t13.5 5.5h64q11 0 16 -10l74 -212l74 211q5 11 15 11h64q8 0 13.5 -5.5t5.5 -13.5v-297 q0 -19 -19 -19h-36q-8 0 -13.5 5.5t-5.5 13.5v178l-64 -184q-4 -13 -17 -13h-35q-11 0 -16 12l-66 186v-179q0 -19 -19 -19h-35zM762 321q-7 0 -11.5 4.5t-4.5 10.5q0 3 2 9l1 1l105 297q4 13 18 13h52q14 0 19 -14l102 -293q4 -12 4 -13q0 -6 -4.5 -10.5t-11.5 -4.5h-46 q-15 0 -17 12l-17 52h-114l-18 -52q-3 -12 -15 -12h-44zM862 455h68l-33 103zM1105 321q-18 0 -18 19v297q0 7 5.5 13t13.5 6h125q49 0 77 -27.5t28 -74.5v-14q0 -69 -56 -92l51 -99q5 -10 5 -13q0 -15 -15 -15h-47q-12 0 -20 14l-49 99h-42v-94q0 -8 -5.5 -13.5t-13.5 -5.5 h-39zM1163 506h62q34 0 34 35v7q0 35 -34 35h-62v-77z"/>
    <glyph glyph-name="four" unicode="4" d="M1518 1267q72 -72 72 -174v-862q0 -102 -72 -174q-73 -73 -174 -73h-986q-101 0 -174 73q-72 72 -72 174v862q0 102 72 174q73 73 174 73h62v61q0 26 18 44t43 18t43.5 -18.5t18.5 -43.5v-61h246v61q0 25 18.5 43.5t43.5 18.5t43.5 -18.5t18.5 -43.5v-61h246v61 q0 25 18.5 43.5t43.5 18.5t43 -18t18 -44v-61h62q101 0 174 -73zM1467 231v616h-1232v-616q0 -51 36 -87t87 -36h986q51 0 87 36t36 87zM235 970h1232v123q0 51 -36 87t-87 36h-62v-61q0 -26 -18 -44t-43 -18t-43.5 18.5t-18.5 43.5v61h-246v-61q0 -25 -18.5 -43.5 t-43.5 -18.5t-43 18t-18 44v61h-247v-61q0 -25 -18.5 -43.5t-43.5 -18.5t-43 18t-18 44v61h-62q-51 0 -87 -36t-36 -87v-123zM411 321q-7 0 -11.5 4.5t-4.5 10.5q0 3 2 9l1 1l105 297q4 13 18 13h52q15 0 19 -13l102 -294q4 -12 4 -13q0 -15 -15 -15h-47q-14 0 -16 12 l-18 52h-114l-18 -52q-3 -12 -15 -12h-44zM512 455h68l-34 103zM755 321q-19 0 -19 19v297q0 8 5.5 13.5t13.5 5.5h125q47 0 76 -29.5t29 -77.5v-14q0 -49 -29 -80t-76 -31h-68v-84q0 -19 -19 -19h-38zM812 583v-87h62q34 0 34 40v7q0 40 -34 40h-62zM1051 321q-7 0 -13 5.5 t-6 13.5v297q0 7 6 13t13 6h125q49 0 77 -27.5t28 -74.5v-14q0 -69 -56 -92l51 -99q5 -10 5 -13q0 -15 -15 -15h-47q-12 0 -20 14l-49 99h-42v-94q0 -8 -5.5 -13.5t-13.5 -5.5h-38zM1108 506h62q34 0 34 35v7q0 35 -34 35h-62v-77z"/>
    <glyph glyph-name="five" unicode="5" d="M1518 1267q72 -72 72 -174v-862q0 -102 -72 -174q-73 -73 -174 -73h-986q-101 0 -174 73q-72 72 -72 174v862q0 102 72 174q73 73 174 73h62v61q0 26 18 44t43 18t43.5 -18.5t18.5 -43.5v-61h246v61q0 25 18.5 43.5t43.5 18.5t43.5 -18.5t18.5 -43.5v-61h246v61 q0 25 18.5 43.5t43.5 18.5t43 -18t18 -44v-61h62q101 0 174 -73zM1467 231v616h-1232v-616q0 -51 36 -87t87 -36h986q51 0 87 36t36 87zM235 970h1232v123q0 51 -36 87t-87 36h-62v-61q0 -26 -18 -44t-43 -18t-43.5 18.5t-18.5 43.5v61h-246v-61q0 -25 -18.5 -43.5 t-43.5 -18.5t-43 18t-18 44v61h-247v-61q0 -25 -18.5 -43.5t-43.5 -18.5t-43 18t-18 44v61h-62q-51 0 -87 -36t-36 -87v-123zM376 321q-19 0 -19 19v297q0 8 5.5 13.5t13.5 5.5h65q10 0 15 -10l74 -212l75 211q5 11 14 11h64q8 0 13.5 -5.5t5.5 -13.5v-297q0 -19 -19 -19 h-36q-8 0 -13.5 5.5t-5.5 13.5v178l-64 -184q-4 -13 -17 -13h-35q-12 0 -16 12l-66 186v-179q0 -8 -5.5 -13.5t-13.5 -5.5h-35zM755 321q-15 0 -15 15q0 3 2 9v1l105 297q4 13 19 13h52q14 0 18 -13l103 -294q3 -9 3 -13q0 -15 -15 -15h-47q-14 0 -16 12l-18 52h-114 l-17 -52q-3 -12 -16 -12h-44zM856 455h68l-33 103zM1069 623l-2 2q-6 10 -6 16q0 15 16 15h49q9 0 15 -11l64 -125l67 126q7 10 16 10h46q15 0 15 -15q0 -6 -7 -18l-1 -2l-99 -176v-105q0 -8 -5.5 -13.5t-13.5 -5.5h-39q-8 0 -13.5 5.5t-5.5 13.5v106z"/>
    <glyph glyph-name="six" unicode="6" d="M1518 1267q72 -72 72 -174v-862q0 -102 -72 -174q-73 -73 -174 -73h-986q-101 0 -174 73q-72 72 -72 174v862q0 102 72 174q73 73 174 73h62v61q0 26 18 44t43 18t43.5 -18.5t18.5 -43.5v-61h246v61q0 25 18.5 43.5t43.5 18.5t43.5 -18.5t18.5 -43.5v-61h246v61 q0 25 18.5 43.5t43.5 18.5t43 -18t18 -44v-61h62q101 0 174 -73zM1467 231v616h-1232v-616q0 -51 36 -87t87 -36h986q51 0 87 36t36 87zM235 970h1232v123q0 51 -36 87t-87 36h-62v-61q0 -26 -18 -44t-43 -18t-43.5 18.5t-18.5 43.5v61h-246v-61q0 -25 -18.5 -43.5 t-43.5 -18.5t-43 18t-18 44v61h-247v-61q0 -25 -18.5 -43.5t-43.5 -18.5t-43 18t-18 44v61h-62q-51 0 -87 -36t-36 -87v-123zM517 317q-43 0 -76 30t-33 81v3q0 8 5.5 13.5t13.5 5.5h37q19 0 19 -19v-4q0 -18 11 -28t23 -10t23.5 10t11.5 28v210q0 8 5.5 13.5t13.5 5.5h39 q8 0 13.5 -5.5t5.5 -13.5v-209q0 -51 -34 -81t-78 -30zM806 317q-58 0 -93 37t-35 99v184q0 8 5.5 13.5t13.5 5.5h39q8 0 13.5 -5.5t5.5 -13.5v-184q0 -64 51 -64t51 64v184q0 8 5.5 13.5t13.5 5.5h39q8 0 13.5 -5.5t5.5 -13.5v-184q0 -62 -34.5 -99t-93.5 -37zM1009 321 q-7 0 -13 5.5t-6 13.5v297q0 7 6 13t13 6h51q12 0 20 -14l100 -178v173q0 7 6 13t13 6h36q8 0 13.5 -5.5t5.5 -13.5v-297q0 -19 -19 -19h-37q-15 0 -26 19l-107 190v-190q0 -19 -19 -19h-37z"/>
    <glyph glyph-name="seven" unicode="7" d="M1518 1267q72 -72 72 -174v-862q0 -102 -72 -174q-73 -73 -174 -73h-986q-101 0 -174 73q-72 72 -72 174v862q0 102 72 174q73 73 174 73h62v61q0 26 18 44t43 18t43.5 -18.5t18.5 -43.5v-61h246v61q0 25 18.5 43.5t43.5 18.5t43.5 -18.5t18.5 -43.5v-61h246v61 q0 25 18.5 43.5t43.5 18.5t43 -18t18 -44v-61h62q101 0 174 -73zM1467 231v616h-1232v-616q0 -51 36 -87t87 -36h986q51 0 87 36t36 87zM235 970h1232v123q0 51 -36 87t-87 36h-62v-61q0 -26 -18 -44t-43 -18t-43.5 18.5t-18.5 43.5v61h-246v-61q0 -25 -18.5 -43.5 t-43.5 -18.5t-43 18t-18 44v61h-247v-61q0 -25 -18.5 -43.5t-43.5 -18.5t-43 18t-18 44v61h-62q-51 0 -87 -36t-36 -87v-123zM552 317q-43 0 -76.5 30t-33.5 81v3q0 8 5.5 13.5t13.5 5.5h37q8 0 13.5 -5.5t5.5 -13.5v-4q0 -18 11.5 -28t23.5 -10t23 10t11 28v210 q0 8 5.5 13.5t13.5 5.5h39q8 0 13.5 -5.5t5.5 -13.5v-209q0 -51 -33.5 -81t-77.5 -30zM840 317q-58 0 -93 37t-35 99v184q0 8 5.5 13.5t13.5 5.5h39q8 0 13.5 -5.5t5.5 -13.5v-184q0 -64 51 -64t51 64v184q0 8 5.5 13.5t13.5 5.5h39q7 0 13 -6t6 -13v-184q0 -62 -34.5 -99 t-93.5 -37zM1043 321q-19 0 -19 19v297q0 7 6 13t13 6h39q8 0 13.5 -6t5.5 -13v-243h119q8 0 13.5 -5.5t5.5 -13.5v-35q0 -8 -5.5 -13.5t-13.5 -5.5h-177z"/>
    <glyph glyph-name="eight" unicode="8" d="M1518 1267q72 -72 72 -174v-862q0 -102 -72 -174q-73 -73 -174 -73h-986q-101 0 -174 73q-72 72 -72 174v862q0 102 72 174q73 73 174 73h62v61q0 26 18 44t43 18t43.5 -18.5t18.5 -43.5v-61h246v61q0 25 18.5 43.5t43.5 18.5t43.5 -18.5t18.5 -43.5v-61h246v61 q0 25 18.5 43.5t43.5 18.5t43 -18t18 -44v-61h62q101 0 174 -73zM1467 231v616h-1232v-616q0 -51 36 -87t87 -36h986q51 0 87 36t36 87zM235 970h1232v123q0 51 -36 87t-87 36h-62v-61q0 -26 -18 -44t-43 -18t-43.5 18.5t-18.5 43.5v61h-246v-61q0 -25 -18.5 -43.5 t-43.5 -18.5t-43 18t-18 44v61h-247v-61q0 -25 -18.5 -43.5t-43.5 -18.5t-43 18t-18 44v61h-62q-51 0 -87 -36t-36 -87v-123zM400 321q-15 0 -15 15q0 3 2 9v1l105 297q4 13 19 13h52q14 0 18 -13l103 -294q3 -9 3 -13q0 -15 -15 -15h-47q-14 0 -16 12l-18 52h-114l-17 -52 q-3 -12 -16 -12h-44zM501 455h68l-33 103zM848 317q-58 0 -93 37t-35 99v184q0 8 5.5 13.5t13.5 5.5h39q8 0 13.5 -5.5t5.5 -13.5v-184q0 -64 51 -64t51 64v184q0 8 5.5 13.5t13.5 5.5h39q7 0 13 -6t6 -13v-184q0 -62 -34.5 -99t-93.5 -37zM1153 317q-59 0 -94.5 38.5 t-35.5 101.5v63q0 62 38 101.5t97 39.5q56 0 89.5 -33t37.5 -77l1 -1v-5q0 -15 -15 -15h-47q-15 0 -17 17q-7 41 -49 41q-26 0 -42.5 -19t-16.5 -50v-62q0 -31 16 -49.5t43 -18.5q25 0 39.5 16t14.5 33v7h-46q-8 0 -13.5 5.5t-5.5 13.5v32q0 8 5.5 13.5t13.5 5.5h102 q8 0 13.5 -5.5t5.5 -13.5v-156q0 -8 -5.5 -13.5t-13.5 -5.5h-30q-17 0 -19 18q-24 -22 -66 -22z"/>
    <glyph glyph-name="nine" unicode="9" d="M1518 1267q72 -72 72 -174v-862q0 -102 -72 -174q-73 -73 -174 -73h-986q-101 0 -174 73q-72 72 -72 174v862q0 102 72 174q73 73 174 73h62v61q0 26 18 44t43 18t43.5 -18.5t18.5 -43.5v-61h246v61q0 25 18.5 43.5t43.5 18.5t43.5 -18.5t18.5 -43.5v-61h246v61 q0 25 18.5 43.5t43.5 18.5t43 -18t18 -44v-61h62q101 0 174 -73zM1467 231v616h-1232v-616q0 -51 36 -87t87 -36h986q51 0 87 36t36 87zM235 970h1232v123q0 51 -36 87t-87 36h-62v-61q0 -26 -18 -44t-43 -18t-43.5 18.5t-18.5 43.5v61h-246v-61q0 -25 -18.5 -43.5 t-43.5 -18.5t-43 18t-18 44v61h-247v-61q0 -25 -18.5 -43.5t-43.5 -18.5t-43 18t-18 44v61h-62q-51 0 -87 -36t-36 -87v-123zM564 317q-58 0 -92 31.5t-34 72.5q0 8 5.5 13.5t13.5 5.5h38q13 0 18 -16v-2q8 -38 51 -38q27 0 36.5 8.5t9.5 25.5q0 16 -13 23.5t-46 17.5 q-25 7 -38 12.5t-32 17t-28 30.5t-9 46q0 46 32 71t90 25q56 0 86 -28.5t30 -66.5q0 -19 -19 -19h-38q-15 0 -20 17q-8 29 -40 29q-44 0 -44 -28q0 -14 12 -20.5t44 -15.5q20 -6 30.5 -9.5t28.5 -12.5t27 -19.5t16.5 -28.5t7.5 -41q0 -47 -32.5 -74t-90.5 -27zM757 321 q-8 0 -13.5 5.5t-5.5 13.5v297q0 7 6 13t13 6h177q8 0 13.5 -6t5.5 -13v-34q0 -8 -6 -14t-13 -6h-119v-56h91q8 0 13.5 -5.5t5.5 -13.5v-34q0 -8 -5.5 -13.5t-13.5 -5.5h-91v-61h119q8 0 13.5 -5.5t5.5 -13.5v-35q0 -8 -5.5 -13.5t-13.5 -5.5h-177zM1021 321q-8 0 -13.5 5.5 t-5.5 13.5v297q0 8 5.5 13.5t13.5 5.5h125q47 0 76 -29.5t29 -77.5v-14q0 -49 -29 -80t-76 -31h-67v-84q0 -19 -19 -19h-39zM1079 583v-87h62q33 0 33 40v7q0 40 -33 40h-62z"/>
    <glyph glyph-name="colon" unicode=":" d="M1587 877q14 -83 -37 -147q-88 -110 -220 -135q-42 -8 -78 -8q-60 0 -118 20q0 -15 -0.5 -43.5t-0.5 -36.5l2 1q29 10 60 10q9 0 25 -2q61 -9 102.5 -54.5t47.5 -108.5q6 -61 -27 -113.5t-90 -73.5q-6 -2 -20 -7t-20 -8v-5q0 -75 -51 -128q-52 -54 -125 -54q-30 0 -60 11 q-25 9 -274.5 99.5t-252.5 91.5q-57 21 -90 73.5t-27 113.5q6 63 48 108.5t103 54.5q16 2 25 2q32 0 59 -10v79q-49 -17 -107 -19h-14q-158 0 -272 115q-51 51 -62 111l-1 9v50l5 16q1 2 1 5q4 14 12 31q23 47 65 74t93 27q82 0 135 -64q8 -9 18 -11q1 0 3.5 -0.5t3.5 -0.5 q11 0 21 12q19 22 20 23q3 3 9 10.5t9 11.5q67 77 165 82q-47 63 -47 141q0 96 66.5 164.5t160.5 68.5t160 -68.5t66 -164.5q0 -78 -47 -141q96 -6 162 -81q12 -14 19 -23q12 -15 23 -26q9 -9 20 -9q13 0 24 12q54 64 135 64q48 0 88 -24q71 -43 85 -125zM852 1364 q-54 0 -92.5 -39.5t-38.5 -94.5t38.5 -94.5t92.5 -39.5t92 39t38 95t-38 95t-92 39zM1111 134q6 15 6 32q0 40 -30 64q-11 9 -25 14q-221 78 -525 190q-15 5 -28 5h-11q-28 -4 -47 -25.5t-22 -50.5q-2 -27 13 -50.5t41 -33.5q8 -3 240.5 -87.5t272.5 -98.5q2 -1 6.5 -2.5 t6.5 -2.5q15 -5 28 -5q25 0 45 14t29 37zM1167 434q-57 -21 -171 -61l4 -1l94 -35q56 -21 90 -72q6 3 18.5 7t18.5 7q26 10 41 33.5t13 50.5q-3 29 -22 50.5t-47 25.5h-11q-13 0 -28 -5zM1476 793q24 29 17 66.5t-39 56.5q-19 11 -40 11q-38 0 -62 -29q-39 -47 -97 -47 q-50 0 -87 37q-10 10 -25 29t-21 25q-44 49 -104 49h-163h-170q-62 0 -106 -50q-6 -7 -19 -22.5t-19 -23.5q-39 -44 -93 -44q-6 0 -18 2q-47 6 -80 45q-23 29 -62 29q-51 0 -72 -46q-2 -5 -4.5 -13t-3.5 -11v-25q4 -27 34 -58q86 -88 205 -88h11q78 3 139 44q20 13 44 34 q4 4 9 4q3 0 5 -1q9 -4 9 -12v-6v-232q0 -22 19 -29l150 -54q9 -3 18 -3q8 0 17 3q25 9 75.5 27.5t75.5 27.5q18 6 18 27q0 11 0.5 67.5t0.5 67.5v101q0 13 8 16q2 1 5 1t11 -6q85 -77 190 -77q28 0 60 6q98 19 164 101z"/>
    <glyph glyph-name="semicolon" unicode=";" d="M935 724l271 -272q17 -17 17 -41.5t-17 -41.5t-42 -17t-42 17l-271 271l-271 -271q-17 -17 -42 -17t-42 17t-17 41.5t17 41.5l271 272l-271 271q-17 17 -17 41.5t17 41.5t42 17t42 -17l271 -271l271 271q17 17 42 17t42 -17t17 -41.5t-17 -41.5z"/>
    <glyph glyph-name="less" unicode="&lt;" d="M1590 984v-116v-404q0 -23 -5 -53q-17 -97 -95 -162t-177 -65h-57h-862q-20 0 -41 3q-86 11 -151.5 71.5t-83.5 144.5q0 4 -2 11t-2 10l-2 19l3 583q15 101 93 169t181 68h922q51 0 95 -16q82 -30 133 -102.5t51 -160.5zM1482 464v404v116q0 55 -30.5 98.5t-82.5 62.5 q-26 10 -57 10h-923q-61 0 -109.5 -42t-57.5 -103q0 -2 -1 -5.5t-1 -5.5v-552l1 -5q1 -3 2 -8.5t1 -8.5q11 -51 51 -87.5t92 -43.5q18 -2 27 -2h919q59 0 107 40t59 98q3 17 3 34zM1136 817q41 -27 41 -71t-41 -71l-58 -38q-53 -34 -161 -103t-161 -103q-25 -15 -48 -15 q-20 0 -38 10q-44 24 -44 77v243v52v189q0 27 13 50q16 28 50 36q36 8 65 -11zM1020 728l27 18l-313 200v-148v-113v-140q48 30 143 91t143 92z"/>
    <glyph glyph-name="equal" unicode="=" d="M1518 1267q72 -72 72 -174v-862q0 -102 -72 -174q-73 -73 -174 -73h-986q-101 0 -174 73q-72 72 -72 174v862q0 102 72 174q73 73 174 73h62v61q0 26 18 44t43 18t43.5 -18.5t18.5 -43.5v-61h246v61q0 25 18.5 43.5t43.5 18.5t43.5 -18.5t18.5 -43.5v-61h246v61 q0 25 18.5 43.5t43.5 18.5t43 -18t18 -44v-61h62q101 0 174 -73zM1467 231v616h-1232v-616q0 -51 36 -87t87 -36h986q51 0 87 36t36 87zM235 970h1232v123q0 51 -36 87t-87 36h-62v-61q0 -26 -18 -44t-43 -18t-43.5 18.5t-18.5 43.5v61h-246v-61q0 -25 -18.5 -43.5 t-43.5 -18.5t-43.5 18.5t-18.5 43.5v61h-246v-61q0 -25 -18.5 -43.5t-43.5 -18.5t-43 18t-18 44v61h-62q-51 0 -87 -36t-36 -87v-123zM457 321q-8 0 -13.5 5.5t-5.5 13.5v297q0 8 5.5 13.5t13.5 5.5h101q60 0 98 -39t38 -101v-54q0 -61 -38.5 -101t-97.5 -40h-101zM616 462 v53q0 33 -17 50.5t-41 17.5h-43v-189h43q26 0 42 18.5t16 49.5zM765 321q-8 0 -13.5 5.5t-5.5 13.5v297q0 7 6 13t13 6h176q8 0 13.5 -5.5t5.5 -13.5v-35q0 -8 -5.5 -13.5t-13.5 -5.5h-119v-56h91q7 0 13 -5.5t6 -13.5v-34q0 -8 -6 -13.5t-13 -5.5h-91v-61h119 q8 0 13.5 -5.5t5.5 -13.5v-35q0 -19 -19 -19h-176zM1134 317q-59 0 -96.5 39t-37.5 101v63q0 62 37.5 101.5t96.5 39.5q55 0 89 -34t37 -80q0 -9 -3 -12q-5 -5 -11 -5h-48q-14 0 -16 17q-7 41 -48 41q-26 0 -41.5 -19t-15.5 -50v-62q0 -31 15.5 -49.5t41.5 -18.5q44 0 48 39 q4 19 17 19h47q6 0 11 -5q4 -4 4 -11q-3 -46 -37.5 -80t-89.5 -34z"/>
    <glyph glyph-name="greater" unicode="&gt;" d="M851 1089q151 0 258 -107t107 -258t-107 -258.5t-258 -107.5t-258.5 107t-107.5 259q0 151 107 258t259 107zM851 456q110 0 188.5 79t78.5 189t-78.5 188.5t-188.5 78.5t-188.5 -78.5t-78.5 -188.5t78.5 -189t188.5 -79zM1225 1262q56 0 95.5 -40t39.5 -96t-39.5 -95.5 t-95.5 -39.5t-96 39.5t-40 95.5t40 96t96 40zM1225 1089q15 0 26 11t11 26t-11 26t-26 11t-26 -11t-11 -26t11 -26t26 -11zM1167 1463q175 0 299 -124t124 -299v-633q0 -175 -124 -299t-299 -124h-632q-175 0 -299 124t-124 299v633q0 175 124 299t299 124h632zM1492 407 v633q0 134 -95.5 229t-229.5 95h-632q-134 0 -229.5 -95t-95.5 -229v-633q0 -134 95.5 -229t229.5 -95h632q134 0 229.5 95t95.5 229z"/>
    <glyph glyph-name="question" unicode="?" d="M1575 630q0 -67 0.5 -201.5t0.5 -202.5v-151q0 -40 -25.5 -65t-65.5 -25h-190q-38 0 -63.5 25.5t-25.5 62.5v107v375q0 47 -29 79q-37 40 -92 34q-57 -7 -83 -54q-14 -26 -14 -55l1 -483q0 -40 -25.5 -65.5t-65.5 -25.5h-190q-38 0 -63.5 25.5t-25.5 62.5v845 q0 35 22.5 60t57.5 28h11h186q53 0 78 -39q76 60 173 69q106 10 199 -26q148 -57 202 -214q27 -76 27 -166zM1467 93v133v404q0 71 -21 131q-38 110 -139 148q-68 26 -150 19q-68 -6 -117 -46q-2 -2 -6.5 -6t-6.5 -6q-2 -1 -5.5 -5t-5.5 -5q-40 -35 -85 -16q-37 16 -48 54 h-156v-805h153v104v362q0 56 28 107q25 46 69 75t96 35t101 -12.5t84 -57.5q56 -62 56 -152v-374v-87h153zM561 917v-523v-318q0 -40 -26 -66t-64 -26h-1q-61 1 -184 1h-71q-38 0 -63.5 25t-25.5 63v844q0 38 25.5 63.5t62.5 25.5h259q38 0 63 -25.5t25 -63.5zM354 93h99 v301v504h-218v-805h51h68zM342 1028q-88 0 -152 64t-64 153t62 153t150 65q90 2 156 -63q64 -62 64 -154q0 -90 -63.5 -154t-152.5 -64zM340 1355q-44 -1 -75 -33t-31 -77t32 -77q30 -32 76 -32q45 0 76.5 32t31.5 78q0 45 -32 77q-34 32 -76 32h-2z"/>
    <glyph glyph-name="at" unicode="@" d="M851 459q-87 0 -149 62t-62 149t62 149t149 62t149 -62t62 -149t-62 -149t-149 -62zM851 780q-46 0 -78.5 -32t-32.5 -78t32.5 -78.5t78.5 -32.5t78 32.5t32 78.5t-32 78t-78 32zM1072 670q0 87 62 149t149 62t149 -62t62 -149t-62 -149t-149 -62t-149 62t-62 149z M1393 670q0 46 -32 78t-78 32t-78.5 -32t-32.5 -78t32.5 -78.5t78.5 -32.5t78 32.5t32 78.5zM1283 431q127 0 217 -90.5t90 -217.5q0 -21 -14.5 -35.5t-35.5 -14.5t-35.5 14.5t-14.5 35.5q0 85 -61 146t-146 61q-93 0 -156 -72q31 -62 31 -135q0 -21 -14.5 -35.5 t-35.5 -14.5t-35.5 14.5t-14.5 35.5q0 28 -8 58q-10 34 -36 69q-63 80 -163 80t-163 -80q-26 -35 -36 -69q-8 -25 -8 -58q0 -21 -14.5 -35.5t-35.5 -14.5t-35.5 14.5t-14.5 35.5q0 73 31 135q-63 72 -156 72q-85 0 -146 -61t-61 -146q0 -21 -14.5 -35.5t-35.5 -14.5 t-35.5 14.5t-14.5 35.5q0 127 90 217.5t217 90.5q125 0 215 -90v1l1 -1q90 90 216 90q125 0 215 -90v1l1 -1q90 90 216 90zM419 459q-87 0 -149 62t-62 149t62 149t149 62t149 -62t62 -149t-62 -149t-149 -62zM419 780q-46 0 -78.5 -32t-32.5 -78t32.5 -78.5t78.5 -32.5 t78 32.5t32 78.5t-32 78t-78 32zM1032 1081q-22 7 -31.5 28t-1.5 43l52 143q8 21 29 31t42 2q22 -7 31.5 -28t1.5 -43l-52 -143q-13 -36 -52 -36q-10 0 -19 3zM1255 981q-22 0 -36 13q-17 15 -19.5 38t12.5 40l98 116q17 19 37 20q25 2 41 -13q18 -16 19 -37q2 -26 -12 -41 l-98 -116q-17 -20 -42 -20zM352 1001l-97 116q-15 16 -13 41q1 20 20 37q16 15 40 13q21 -1 38 -20l97 -116q15 -16 13 -40q-1 -22 -19 -38q-16 -13 -36 -13h-5q-23 2 -38 20zM546 1114l-52 143q-8 21 2 42t32 29t43 -1.5t28 -31.5l52 -143q8 -22 -2 -43t-32 -28 q-9 -3 -18 -3q-17 0 -32 10t-21 26zM825 1111q-23 0 -39.5 16.5t-16.5 39.5v151q0 23 16.5 39.5t39.5 16.5t39 -16.5t16 -39.5v-151q0 -23 -16 -39.5t-39 -16.5z"/>
    <glyph glyph-name="A" unicode="A" d="M1265 1315q122 0 209 -87t87 -209v-710q0 -122 -87 -208.5t-209 -86.5h-828q-122 0 -209 86.5t-87 208.5v710q0 122 87 209t209 87h153q75 88 190 111q93 20 183 -10t152 -101h150zM851 1315q-98 0 -167.5 -69.5t-69.5 -167.5q0 -25 17.5 -42t42.5 -17h86l101 151 q13 20 37.5 25t44.5 -9q20 -13 25 -37.5t-9 -44.5l-57 -85h126q25 0 42.5 17t17.5 42q0 98 -69.5 167.5t-167.5 69.5zM1442 309v710q0 73 -52 125t-125 52h-80q22 -72 21 -139q-3 -66 -51 -111.5t-114 -44.5h-380q-68 0 -116.5 48t-48.5 116q0 67 23 131h-82q-73 0 -125 -52 t-52 -125v-710q0 -73 52 -125t125 -52h828q73 0 125 52t52 125z"/>
    <glyph glyph-name="A" unicode="Å" d="M1265 1315q122 0 209 -87t87 -209v-710q0 -122 -87 -208.5t-209 -86.5h-828q-122 0 -209 86.5t-87 208.5v710q0 122 87 209t209 87h153q75 88 190 111q93 20 183 -10t152 -101h150zM851 1315q-98 0 -167.5 -69.5t-69.5 -167.5q0 -25 17.5 -42t42.5 -17h86l101 151 q13 20 37.5 25t44.5 -9q20 -13 25 -37.5t-9 -44.5l-57 -85h126q25 0 42.5 17t17.5 42q0 98 -69.5 167.5t-167.5 69.5zM1442 309v710q0 73 -52 125t-125 52h-80q22 -72 21 -139q-3 -66 -51 -111.5t-114 -44.5h-380q-68 0 -116.5 48t-48.5 116q0 67 23 131h-82q-73 0 -125 -52 t-52 -125v-710q0 -73 52 -125t125 -52h828q73 0 125 52t52 125z"/>
    <glyph glyph-name="A" unicode="Ä" d="M1265 1315q122 0 209 -87t87 -209v-710q0 -122 -87 -208.5t-209 -86.5h-828q-122 0 -209 86.5t-87 208.5v710q0 122 87 209t209 87h153q75 88 190 111q93 20 183 -10t152 -101h150zM851 1315q-98 0 -167.5 -69.5t-69.5 -167.5q0 -25 17.5 -42t42.5 -17h86l101 151 q13 20 37.5 25t44.5 -9q20 -13 25 -37.5t-9 -44.5l-57 -85h126q25 0 42.5 17t17.5 42q0 98 -69.5 167.5t-167.5 69.5zM1442 309v710q0 73 -52 125t-125 52h-80q22 -72 21 -139q-3 -66 -51 -111.5t-114 -44.5h-380q-68 0 -116.5 48t-48.5 116q0 67 23 131h-82q-73 0 -125 -52 t-52 -125v-710q0 -73 52 -125t125 -52h828q73 0 125 52t52 125z"/>
    <glyph glyph-name="A" unicode="Ã" d="M1265 1315q122 0 209 -87t87 -209v-710q0 -122 -87 -208.5t-209 -86.5h-828q-122 0 -209 86.5t-87 208.5v710q0 122 87 209t209 87h153q75 88 190 111q93 20 183 -10t152 -101h150zM851 1315q-98 0 -167.5 -69.5t-69.5 -167.5q0 -25 17.5 -42t42.5 -17h86l101 151 q13 20 37.5 25t44.5 -9q20 -13 25 -37.5t-9 -44.5l-57 -85h126q25 0 42.5 17t17.5 42q0 98 -69.5 167.5t-167.5 69.5zM1442 309v710q0 73 -52 125t-125 52h-80q22 -72 21 -139q-3 -66 -51 -111.5t-114 -44.5h-380q-68 0 -116.5 48t-48.5 116q0 67 23 131h-82q-73 0 -125 -52 t-52 -125v-710q0 -73 52 -125t125 -52h828q73 0 125 52t52 125z"/>
    <glyph glyph-name="A" unicode="Â" d="M1265 1315q122 0 209 -87t87 -209v-710q0 -122 -87 -208.5t-209 -86.5h-828q-122 0 -209 86.5t-87 208.5v710q0 122 87 209t209 87h153q75 88 190 111q93 20 183 -10t152 -101h150zM851 1315q-98 0 -167.5 -69.5t-69.5 -167.5q0 -25 17.5 -42t42.5 -17h86l101 151 q13 20 37.5 25t44.5 -9q20 -13 25 -37.5t-9 -44.5l-57 -85h126q25 0 42.5 17t17.5 42q0 98 -69.5 167.5t-167.5 69.5zM1442 309v710q0 73 -52 125t-125 52h-80q22 -72 21 -139q-3 -66 -51 -111.5t-114 -44.5h-380q-68 0 -116.5 48t-48.5 116q0 67 23 131h-82q-73 0 -125 -52 t-52 -125v-710q0 -73 52 -125t125 -52h828q73 0 125 52t52 125z"/>
    <glyph glyph-name="A" unicode="Á" d="M1265 1315q122 0 209 -87t87 -209v-710q0 -122 -87 -208.5t-209 -86.5h-828q-122 0 -209 86.5t-87 208.5v710q0 122 87 209t209 87h153q75 88 190 111q93 20 183 -10t152 -101h150zM851 1315q-98 0 -167.5 -69.5t-69.5 -167.5q0 -25 17.5 -42t42.5 -17h86l101 151 q13 20 37.5 25t44.5 -9q20 -13 25 -37.5t-9 -44.5l-57 -85h126q25 0 42.5 17t17.5 42q0 98 -69.5 167.5t-167.5 69.5zM1442 309v710q0 73 -52 125t-125 52h-80q22 -72 21 -139q-3 -66 -51 -111.5t-114 -44.5h-380q-68 0 -116.5 48t-48.5 116q0 67 23 131h-82q-73 0 -125 -52 t-52 -125v-710q0 -73 52 -125t125 -52h828q73 0 125 52t52 125z"/>
    <glyph glyph-name="A" unicode="À" d="M1265 1315q122 0 209 -87t87 -209v-710q0 -122 -87 -208.5t-209 -86.5h-828q-122 0 -209 86.5t-87 208.5v710q0 122 87 209t209 87h153q75 88 190 111q93 20 183 -10t152 -101h150zM851 1315q-98 0 -167.5 -69.5t-69.5 -167.5q0 -25 17.5 -42t42.5 -17h86l101 151 q13 20 37.5 25t44.5 -9q20 -13 25 -37.5t-9 -44.5l-57 -85h126q25 0 42.5 17t17.5 42q0 98 -69.5 167.5t-167.5 69.5zM1442 309v710q0 73 -52 125t-125 52h-80q22 -72 21 -139q-3 -66 -51 -111.5t-114 -44.5h-380q-68 0 -116.5 48t-48.5 116q0 67 23 131h-82q-73 0 -125 -52 t-52 -125v-710q0 -73 52 -125t125 -52h828q73 0 125 52t52 125z"/>
    <glyph glyph-name="B" unicode="B" horiz-adv-x="1703" d="M1509 510q30 -13 46 -41t14 -61q-2 -32 -22.5 -57t-52.5 -34l-3 -1l-120 -24q17 -68 -31 -121q-47 -52 -118 -41l-39 7q-63 11 -110 -36q-117 -117 -222 -117t-222 117q-47 47 -110 36l-39 -7q-71 -11 -119 41q-48 53 -31 121l-122 25q-32 9 -52.5 34t-22.5 57 q-2 33 14 61t46 41q88 41 163 98q13 10 13 27q0 15 -15 25l-76 48q-46 29 -59 85q-12 53 18 101t84 60t102 -18l1 -1v101q0 176 125.5 301.5t301.5 125.5t301.5 -125.5t125.5 -301.5v-101l1 1q48 30 102 18t84 -60t18 -101q-13 -55 -60 -85l-75 -48q-15 -10 -15 -25 q0 -17 13 -27q75 -57 163 -98zM1347 392l119 24q-100 48 -183 110q-56 43 -53 113q3 69 63 108l75 48q11 8 14 20q3 14 -4 24q-8 11 -20 14t-24 -4l-49 -31q-36 -23 -73 -2q-38 21 -38 63v157q0 134 -95 229t-228 95t-228.5 -95t-95.5 -229v-157q0 -42 -37 -63 q-38 -21 -74 2l-48 31q-10 7 -24 4q-12 -3 -20 -14q-7 -10 -4 -24q3 -12 14 -20l75 -48q60 -39 63 -108t-54 -113q-87 -65 -182 -109v-1l123 -25q40 -11 61 -47t10 -77q-4 -15 7 -26t26 -9l39 7q18 3 37 3q95 0 163 -68q86 -86 149 -86t149 86q39 39 92 56.5t108 8.5l39 -7 q15 -2 26 9q10 10 6 26q-10 40 10.5 76.5t61.5 47.5z"/>
    <glyph glyph-name="C" unicode="C" d="M1265 1433q122 0 209 -86.5t87 -208.5v-671q0 -124 -87 -209l-157 -158q-84 -86 -209 -86h-671q-122 0 -209 87t-87 209v828q0 122 87 208.5t209 86.5h828zM1391 341q36 36 47 87h-232q-25 0 -42 -17t-17 -42v-232q49 11 86 47zM1442 546v592q0 74 -52 125.5t-125 51.5 h-828q-73 0 -125 -51.5t-52 -125.5v-828q0 -74 52 -126t125 -52h591v237q0 73 52 125t126 52h236zM618 846l18 6q4 -6 4 -15q0 -10 -6.5 -16.5t-16.5 -6.5h-23q-18 0 -27 14l-64 99l-65 -98q-11 -15 -25 -15h-22q-10 0 -16.5 6.5t-6.5 16.5q0 9 6 17l87 134l-85 130 q-8 12 -8 20q0 10 7 16.5t17 6.5h24q17 0 26 -16l62 -95l64 96q9 15 25 15h22q10 0 17 -6.5t7 -16.5q0 -9 -7 -18l-86 -131l87 -133zM872 882q11 0 18.5 -7.5t7.5 -18.5v-16q0 -11 -7.5 -18.5t-18.5 -7.5h-180q-11 0 -18.5 7.5t-7.5 18.5v295q0 11 8 18.5t18 7.5h19 q11 0 18.5 -7.5t7.5 -18.5v-253h135zM1055 1020q24 -6 38 -11.5t33.5 -17t29 -31t9.5 -46.5q0 -48 -34 -76.5t-91 -28.5q-64 0 -97.5 36.5t-33.5 77.5q0 11 7 18.5t18 7.5h19q10 0 17.5 -7t8.5 -17q4 -48 61 -48q19 0 31.5 4t16.5 11.5t5 11.5t1 10q0 15 -13.5 23t-47.5 17 q-25 7 -39.5 12.5t-35 17.5t-30.5 32.5t-10 49.5q0 47 32 73.5t89 26.5q60 0 89 -30t29 -70q0 -11 -7.5 -18.5t-18.5 -7.5h-19q-23 0 -25 24q-1 10 -3.5 16.5t-13.5 12t-31 5.5q-31 0 -40.5 -8t-9.5 -24q0 -18 14.5 -27t51.5 -19z"/>
    <glyph glyph-name="C" unicode="Ç" d="M1265 1433q122 0 209 -86.5t87 -208.5v-671q0 -124 -87 -209l-157 -158q-84 -86 -209 -86h-671q-122 0 -209 87t-87 209v828q0 122 87 208.5t209 86.5h828zM1391 341q36 36 47 87h-232q-25 0 -42 -17t-17 -42v-232q49 11 86 47zM1442 546v592q0 74 -52 125.5t-125 51.5 h-828q-73 0 -125 -51.5t-52 -125.5v-828q0 -74 52 -126t125 -52h591v237q0 73 52 125t126 52h236zM618 846l18 6q4 -6 4 -15q0 -10 -6.5 -16.5t-16.5 -6.5h-23q-18 0 -27 14l-64 99l-65 -98q-11 -15 -25 -15h-22q-10 0 -16.5 6.5t-6.5 16.5q0 9 6 17l87 134l-85 130 q-8 12 -8 20q0 10 7 16.5t17 6.5h24q17 0 26 -16l62 -95l64 96q9 15 25 15h22q10 0 17 -6.5t7 -16.5q0 -9 -7 -18l-86 -131l87 -133zM872 882q11 0 18.5 -7.5t7.5 -18.5v-16q0 -11 -7.5 -18.5t-18.5 -7.5h-180q-11 0 -18.5 7.5t-7.5 18.5v295q0 11 8 18.5t18 7.5h19 q11 0 18.5 -7.5t7.5 -18.5v-253h135zM1055 1020q24 -6 38 -11.5t33.5 -17t29 -31t9.5 -46.5q0 -48 -34 -76.5t-91 -28.5q-64 0 -97.5 36.5t-33.5 77.5q0 11 7 18.5t18 7.5h19q10 0 17.5 -7t8.5 -17q4 -48 61 -48q19 0 31.5 4t16.5 11.5t5 11.5t1 10q0 15 -13.5 23t-47.5 17 q-25 7 -39.5 12.5t-35 17.5t-30.5 32.5t-10 49.5q0 47 32 73.5t89 26.5q60 0 89 -30t29 -70q0 -11 -7.5 -18.5t-18.5 -7.5h-19q-23 0 -25 24q-1 10 -3.5 16.5t-13.5 12t-31 5.5q-31 0 -40.5 -8t-9.5 -24q0 -18 14.5 -27t51.5 -19z"/>
    <glyph glyph-name="D" unicode="D" d="M1282 1463q128 0 218 -90.5t90 -217.5v-699q0 -128 -90 -218l-164 -163q-91 -91 -218 -91h-698q-128 0 -218 90t-90 218v863q0 127 90 217.5t218 90.5h862zM1413 325q36 36 49 91h-241q-25 0 -43.5 -18t-18.5 -44v-242q52 12 90 50zM1221 539h246v616q0 77 -54.5 131 t-130.5 54h-862q-76 0 -130.5 -54t-54.5 -131v-863q0 -76 54 -130t131 -54h616v246q0 76 54 130.5t131 54.5z"/>
    <glyph glyph-name="E" unicode="E" d="M1265 1374q122 0 209 -87t87 -209v-473q0 -122 -87 -208.5t-209 -86.5h-355v-119h237q25 0 42 -17t17 -42t-17 -42t-42 -17h-592q-25 0 -42 17t-17 42t17 42t42 17h237v119h-355q-122 0 -209 86.5t-87 208.5v473q0 122 87 209t209 87h828zM1265 428q56 0 101.5 32.5 t64.5 85.5h-1161q19 -53 65 -85.5t102 -32.5h828zM1442 664v414q0 74 -52 126t-125 52h-828q-73 0 -125 -52t-52 -126v-414h1182z"/>
    <glyph glyph-name="E" unicode="Ë" d="M1265 1374q122 0 209 -87t87 -209v-473q0 -122 -87 -208.5t-209 -86.5h-355v-119h237q25 0 42 -17t17 -42t-17 -42t-42 -17h-592q-25 0 -42 17t-17 42t17 42t42 17h237v119h-355q-122 0 -209 86.5t-87 208.5v473q0 122 87 209t209 87h828zM1265 428q56 0 101.5 32.5 t64.5 85.5h-1161q19 -53 65 -85.5t102 -32.5h828zM1442 664v414q0 74 -52 126t-125 52h-828q-73 0 -125 -52t-52 -126v-414h1182z"/>
    <glyph glyph-name="E" unicode="Ê" d="M1265 1374q122 0 209 -87t87 -209v-473q0 -122 -87 -208.5t-209 -86.5h-355v-119h237q25 0 42 -17t17 -42t-17 -42t-42 -17h-592q-25 0 -42 17t-17 42t17 42t42 17h237v119h-355q-122 0 -209 86.5t-87 208.5v473q0 122 87 209t209 87h828zM1265 428q56 0 101.5 32.5 t64.5 85.5h-1161q19 -53 65 -85.5t102 -32.5h828zM1442 664v414q0 74 -52 126t-125 52h-828q-73 0 -125 -52t-52 -126v-414h1182z"/>
    <glyph glyph-name="E" unicode="É" d="M1265 1374q122 0 209 -87t87 -209v-473q0 -122 -87 -208.5t-209 -86.5h-355v-119h237q25 0 42 -17t17 -42t-17 -42t-42 -17h-592q-25 0 -42 17t-17 42t17 42t42 17h237v119h-355q-122 0 -209 86.5t-87 208.5v473q0 122 87 209t209 87h828zM1265 428q56 0 101.5 32.5 t64.5 85.5h-1161q19 -53 65 -85.5t102 -32.5h828zM1442 664v414q0 74 -52 126t-125 52h-828q-73 0 -125 -52t-52 -126v-414h1182z"/>
    <glyph glyph-name="E" unicode="È" d="M1265 1374q122 0 209 -87t87 -209v-473q0 -122 -87 -208.5t-209 -86.5h-355v-119h237q25 0 42 -17t17 -42t-17 -42t-42 -17h-592q-25 0 -42 17t-17 42t17 42t42 17h237v119h-355q-122 0 -209 86.5t-87 208.5v473q0 122 87 209t209 87h828zM1265 428q56 0 101.5 32.5 t64.5 85.5h-1161q19 -53 65 -85.5t102 -32.5h828zM1442 664v414q0 74 -52 126t-125 52h-828q-73 0 -125 -52t-52 -126v-414h1182z"/>
    <glyph glyph-name="F" unicode="F" d="M1282 1463q128 0 218 -90.5t90 -217.5v-699q0 -128 -90 -218l-164 -163q-91 -91 -218 -91h-698q-128 0 -218 90t-90 218v863q0 127 90 217.5t218 90.5h862zM1413 325q36 36 49 91h-241q-25 0 -43.5 -18t-18.5 -44v-242q52 12 90 50zM1221 539h246v616q0 77 -54.5 131 t-130.5 54h-862q-76 0 -130.5 -54t-54.5 -131v-863q0 -76 54 -130t131 -54h616v246q0 76 54 130.5t131 54.5zM773 711q18 16 42.5 14.5t41.5 -19.5q16 -18 14.5 -42t-19.5 -41l-94 -84q-50 -50 -122 -50q-74 0 -126 52l-92 82q-18 17 -19 41t15 42q17 18 41 19.5t42 -14.5 l79 -71v441q0 25 17 42t42 17t42 -17t17 -42v-441z"/>
    <glyph glyph-name="G" unicode="G" d="M1282 1463q128 0 218 -90.5t90 -217.5v-699q0 -128 -90 -218l-164 -163q-91 -91 -218 -91h-698q-128 0 -218 90t-90 218v863q0 127 90 217.5t218 90.5h862zM1413 325q36 36 49 91h-241q-25 0 -43.5 -18t-18.5 -44v-242q52 12 90 50zM1221 539h246v616q0 77 -54.5 131 t-130.5 54h-862q-76 0 -130.5 -54t-54.5 -131v-863q0 -76 54 -130t131 -54h616v246q0 76 54 130.5t131 54.5zM761 1088l91 -82q18 -17 19.5 -41t-14.5 -42q-17 -18 -41.5 -19.5t-42.5 14.5l-79 71v-441q0 -25 -17 -42t-42 -17t-42 17t-17 42v441l-79 -71q-18 -16 -42 -14.5 t-41 19.5q-16 18 -15 42t19 41v1l94 83q50 50 122 50q73 0 127 -52z"/>
    <glyph glyph-name="H" unicode="H" d="M1190 1373q173 -8 290 -135t110 -299q0 -81 -33.5 -170.5t-85.5 -169.5t-126 -165t-145 -152.5t-152 -135.5q-86 -72 -197 -72t-197 72q-81 68 -152 135.5t-145 152.5t-126 165t-85.5 169.5t-33.5 170.5q-7 172 110 299t290 135q106 -1 197 -56t142 -147q51 92 142 147 t197 56zM1467 939q7 121 -74 212t-203 99q-122 -8 -203 -99t-74 -212q0 -25 -18.5 -43.5t-43.5 -18.5t-43.5 18.5t-18.5 43.5q7 121 -74 212t-203 99q-122 -8 -203 -99t-74 -212q0 -134 130.5 -317t367.5 -382q51 -43 118 -43t118 43q237 199 367.5 382t130.5 317z"/>
    <glyph glyph-name="I" unicode="I" d="M1551 902q20 -59 0.5 -118.5t-69.5 -95.5l-211 -153l80 -248q30 -93 -28 -172q-46 -64 -124.5 -75.5t-142.5 35.5l-205 151l-206 -152q-49 -37 -112 -37.5t-113 36.5q-51 36 -70.5 95.5t0.5 118.5l80 248l-210 153q-79 58 -79 154q0 79 56 135t135 56h258l79 245 q14 44 46.5 76.5t76.5 46.5q75 24 145.5 -12t94.5 -111l79 -245h258q62 1 112.5 -35.5t69.5 -95.5zM1412 784q30 22 30 58q0 30 -21.5 51.5t-51.5 21.5h-301q-19 0 -35 11.5t-22 29.5l-91 286q-11 36 -47 47q-29 9 -56 -5t-36 -42l-91 -286q-14 -41 -56 -41h-302 q-37 0 -59 -30q-18 -24 -13 -53.5t29 -47.5l245 -179q16 -11 22 -29.5t0 -36.5l-94 -288q-11 -36 11 -66q18 -24 48 -28.5t54 13.5l241 177q35 25 70 0l241 -177q30 -22 65 -11q28 9 42 36t5 56l-94 288q-6 18 0 36.5t22 29.5z"/>
    <glyph glyph-name="I" unicode="Ï" d="M1551 902q20 -59 0.5 -118.5t-69.5 -95.5l-211 -153l80 -248q30 -93 -28 -172q-46 -64 -124.5 -75.5t-142.5 35.5l-205 151l-206 -152q-49 -37 -112 -37.5t-113 36.5q-51 36 -70.5 95.5t0.5 118.5l80 248l-210 153q-79 58 -79 154q0 79 56 135t135 56h258l79 245 q14 44 46.5 76.5t76.5 46.5q75 24 145.5 -12t94.5 -111l79 -245h258q62 1 112.5 -35.5t69.5 -95.5zM1412 784q30 22 30 58q0 30 -21.5 51.5t-51.5 21.5h-301q-19 0 -35 11.5t-22 29.5l-91 286q-11 36 -47 47q-29 9 -56 -5t-36 -42l-91 -286q-14 -41 -56 -41h-302 q-37 0 -59 -30q-18 -24 -13 -53.5t29 -47.5l245 -179q16 -11 22 -29.5t0 -36.5l-94 -288q-11 -36 11 -66q18 -24 48 -28.5t54 13.5l241 177q35 25 70 0l241 -177q30 -22 65 -11q28 9 42 36t5 56l-94 288q-6 18 0 36.5t22 29.5z"/>
    <glyph glyph-name="I" unicode="Î" d="M1551 902q20 -59 0.5 -118.5t-69.5 -95.5l-211 -153l80 -248q30 -93 -28 -172q-46 -64 -124.5 -75.5t-142.5 35.5l-205 151l-206 -152q-49 -37 -112 -37.5t-113 36.5q-51 36 -70.5 95.5t0.5 118.5l80 248l-210 153q-79 58 -79 154q0 79 56 135t135 56h258l79 245 q14 44 46.5 76.5t76.5 46.5q75 24 145.5 -12t94.5 -111l79 -245h258q62 1 112.5 -35.5t69.5 -95.5zM1412 784q30 22 30 58q0 30 -21.5 51.5t-51.5 21.5h-301q-19 0 -35 11.5t-22 29.5l-91 286q-11 36 -47 47q-29 9 -56 -5t-36 -42l-91 -286q-14 -41 -56 -41h-302 q-37 0 -59 -30q-18 -24 -13 -53.5t29 -47.5l245 -179q16 -11 22 -29.5t0 -36.5l-94 -288q-11 -36 11 -66q18 -24 48 -28.5t54 13.5l241 177q35 25 70 0l241 -177q30 -22 65 -11q28 9 42 36t5 56l-94 288q-6 18 0 36.5t22 29.5z"/>
    <glyph glyph-name="I" unicode="Í" d="M1551 902q20 -59 0.5 -118.5t-69.5 -95.5l-211 -153l80 -248q30 -93 -28 -172q-46 -64 -124.5 -75.5t-142.5 35.5l-205 151l-206 -152q-49 -37 -112 -37.5t-113 36.5q-51 36 -70.5 95.5t0.5 118.5l80 248l-210 153q-79 58 -79 154q0 79 56 135t135 56h258l79 245 q14 44 46.5 76.5t76.5 46.5q75 24 145.5 -12t94.5 -111l79 -245h258q62 1 112.5 -35.5t69.5 -95.5zM1412 784q30 22 30 58q0 30 -21.5 51.5t-51.5 21.5h-301q-19 0 -35 11.5t-22 29.5l-91 286q-11 36 -47 47q-29 9 -56 -5t-36 -42l-91 -286q-14 -41 -56 -41h-302 q-37 0 -59 -30q-18 -24 -13 -53.5t29 -47.5l245 -179q16 -11 22 -29.5t0 -36.5l-94 -288q-11 -36 11 -66q18 -24 48 -28.5t54 13.5l241 177q35 25 70 0l241 -177q30 -22 65 -11q28 9 42 36t5 56l-94 288q-6 18 0 36.5t22 29.5z"/>
    <glyph glyph-name="I" unicode="Ì" d="M1551 902q20 -59 0.5 -118.5t-69.5 -95.5l-211 -153l80 -248q30 -93 -28 -172q-46 -64 -124.5 -75.5t-142.5 35.5l-205 151l-206 -152q-49 -37 -112 -37.5t-113 36.5q-51 36 -70.5 95.5t0.5 118.5l80 248l-210 153q-79 58 -79 154q0 79 56 135t135 56h258l79 245 q14 44 46.5 76.5t76.5 46.5q75 24 145.5 -12t94.5 -111l79 -245h258q62 1 112.5 -35.5t69.5 -95.5zM1412 784q30 22 30 58q0 30 -21.5 51.5t-51.5 21.5h-301q-19 0 -35 11.5t-22 29.5l-91 286q-11 36 -47 47q-29 9 -56 -5t-36 -42l-91 -286q-14 -41 -56 -41h-302 q-37 0 -59 -30q-18 -24 -13 -53.5t29 -47.5l245 -179q16 -11 22 -29.5t0 -36.5l-94 -288q-11 -36 11 -66q18 -24 48 -28.5t54 13.5l241 177q35 25 70 0l241 -177q30 -22 65 -11q28 9 42 36t5 56l-94 288q-6 18 0 36.5t22 29.5z"/>
    <glyph glyph-name="J" unicode="J" d="M1510 1051q47 -55 41 -125q-6 -71 -61 -117l-153 -126q-61 -50 -137 -50q-56 0 -106 28l-124 70l-23 -38l64 -44q4 -2 23 -19q84 -73 90 -182t-67 -192l-123 -137q-52 -57 -128 -57q-66 0 -114 43q-53 46 -58 118q0 3 0.5 10t0.5 11l-186 -204q-53 -56 -127 -56 q-65 0 -115 44q-53 48 -56 119q-3 74 44 124l253 278q46 50 117 55q-21 81 20 155l-140 -25q-15 -3 -30 -3q-62 0 -110.5 40t-59.5 101q-12 68 28 127q41 60 111 72l382 67q33 6 67 6h11q-21 49 -20 102q4 92 69.5 154.5t157.5 62.5h9q94 -3 158 -72q64 -67 61 -163 q-3 -67 -41 -121t-98 -79l45 -26l84 70q48 40 110 40q78 0 131 -61zM1051 1377q-57 0 -98.5 -39t-43.5 -96q-2 -58 38 -100.5t99 -44.5q1 0 2.5 -0.5t2.5 -0.5q57 0 98.5 39t43.5 96q2 58 -38 101t-98 45h-6zM631 383q21 23 19.5 54t-24.5 52q-22 19 -51 19q-33 0 -56 -24 l-253 -278q-21 -23 -19.5 -54t24.5 -52q20 -19 51 -19q34 0 56 24zM1428 883q24 20 26.5 51t-17.5 55q-22 26 -58 26q-28 0 -48 -17l-112 -93q-11 -10 -28 -10q-11 0 -22 6l-196 110q-66 37 -140 37q-27 0 -50 -4l-382 -68q-31 -5 -48.5 -30.5t-12.5 -56.5q5 -27 26 -44.5 t48 -17.5q9 0 14 1l295 53h5q7 0 13 -3q9 -5 11 -15t-3 -19l-77 -128q-24 -40 -14.5 -85t47.5 -71l154 -107l1 -1q2 0 2 -1q21 -19 2 -40l-115 -128q-21 -23 -18.5 -54.5t25.5 -51.5q20 -19 50 -19q35 0 57 25l123 137q46 52 42 121.5t-57 116.5q-2 2 -7 5.5t-8 5.5l-116 80 q-10 7 -12 18.5t4 21.5l89 146q10 15 25 15q8 0 15 -4l180 -102q27 -15 59 -15q42 0 76 28z"/>
    <glyph glyph-name="K" unicode="K" d="M1498 1030q62 -62 62 -151t-62 -151t-151 -62t-151 62l-129 129l-349 -349l129 -129q62 -62 62 -150.5t-62 -150.5v-1q-62 -62 -151 -61.5t-151 62.5l-129 129l-56 -56l-1 -2q-18 -17 -42.5 -16.5t-41.5 18.5t-16.5 42t18.5 41l56 56l-129 129q-62 62 -62 151t62 151 q64 61 151 61t151 -61l129 -129l348 349l-129 129q-62 62 -62 151t62 151q64 61 151 61t151 -61l129 -129l56 56q1 0 1 0.5t1 0.5q18 17 42 16.5t41 -17.5q17 -18 16.5 -42.5t-17.5 -41.5l-56 -56l129 -129v0zM764 296l-342 342q-28 28 -67.5 28t-67.5 -28t-28 -67.5 t28 -67.5l342 -342q29 -27 68 -27t67 27q28 28 28 67q0 40 -28 68zM1414 812q28 28 28 67t-28 67l-341 342q-28 28 -67.5 28t-67.5 -28t-28 -67.5t28 -67.5l342 -341q28 -27 67 -27t67 27z"/>
    <glyph glyph-name="L" unicode="L" d="M1555 435q19 0 31.5 -12.5t12.5 -31.5v-360q0 -18 -13 -31.5t-31 -13.5h-939h-469q-19 0 -32 13.5t-13 31.5v651q0 19 13 32t32 13h425v141q0 19 13 32t31 13h470q18 0 31 -13t13 -32v-433h425zM572 75v563h-381v-563h381zM1041 75v749h-380v-749h380zM1511 75v272h-381 v-272h381zM1212 620l-57 56q-16 14 -9 36q6 21 28 24l79 12l36 71q10 20 31 20q22 0 32 -20l35 -71l79 -12q23 -3 29 -24q7 -22 -9 -36l-57 -56l13 -78q3 -22 -14 -35q-10 -7 -21 -7q-9 0 -16 4l-71 38l-70 -38q-20 -10 -38 3q-17 13 -14 35zM1282 681l-27 -4l20 -19 q13 -13 10 -31l-5 -27l24 13q7 4 16 4q10 0 17 -4l24 -13l-5 27q-3 18 10 31l20 19l-27 4q-19 3 -27 19l-12 24l-12 -24q-8 -16 -26 -19zM261 936l-70 68q-16 14 -9 36q6 21 28 24l97 14l43 88q10 19 32 19t31 -19l43 -88l97 -14q23 -3 29 -24q7 -22 -9 -36l-70 -68l16 -97 q3 -21 -14 -34q-11 -7 -20 -7q-10 0 -17 4l-86 46l-87 -46q-19 -10 -37 3q-17 13 -14 34zM335 1011l-44 -7l32 -31q13 -13 10 -31l-8 -44l40 21q7 4 17 4q9 0 16 -4l40 -21l-8 44q-3 18 10 31l33 31l-45 7q-18 3 -26 19l-20 40l-20 -40q-8 -16 -27 -19zM740 1147l-93 90 q-16 14 -9 36q6 21 28 24l129 19l57 116q10 19 31 19q23 0 32 -19l57 -116l128 -19q23 -3 29 -24q7 -22 -9 -36l-93 -90l22 -128q3 -21 -14 -34q-11 -7 -21 -7q-9 0 -16 4l-115 60l-114 -60q-19 -10 -37 3q-17 13 -14 34zM823 1249l-76 -11l55 -54q13 -13 10 -31l-13 -75 l68 36q17 8 33 0l68 -36l-13 75q-3 18 10 31l55 54l-76 11q-19 3 -27 19l-34 69l-34 -69q-8 -16 -26 -19z"/>
    <glyph glyph-name="M" unicode="M" d="M1553 1099q34 -14 37 -43q3 -32 -26 -52q-23 -16 -40 -29l-51 -36q-12 -8 -12 -24q3 -237 -130 -438q-180 -273 -506 -338q-88 -17 -175 -17q-156 0 -319 50q-48 14 -148 54q-6 2 -19.5 8t-20.5 8q-18 7 -26.5 23t-3.5 36q4 16 18 26.5t33 11.5q2 0 53 3q110 8 199 41 q-74 20 -121 55q-55 43 -85 104q-11 22 -3 42q7 19 30 29q1 1 4 2t5 2l21 9q-108 65 -147 207q-3 11 -7 33q-3 28 14 45q19 18 47 13q19 -3 55 -9l16 -2q-1 3 -3.5 10t-3.5 11q-15 44 -19 62q-23 96 2 228q6 30 37 38q28 7 52 -17l33 -33q85 -85 108 -105q105 -92 226 -120 q76 -18 126 -7q1 4 1 12t1 12q5 51 7 59q22 109 108.5 183.5t197.5 78.5q113 5 205 -62q9 -6 18 -2q15 5 67 22q8 3 23.5 8t23.5 8q38 14 61 -12t6 -61q-5 -12 -16 -35t-16 -34l-12 -26l20 -8q10 -4 28 -12zM1426 1031q2 2 6 4q2 2 4 3l-39 17q-26 12 -34 32q-8 21 4 46 q12 27 13 29l3 6q-1 0 -3.5 -1t-3.5 -1q-17 -5 -29 -10q-37 -15 -69 13q-45 39 -102.5 50.5t-114.5 -7.5q-56 -19 -95 -61.5t-52 -100.5q-7 -30 -7 -81q0 -5 -0.5 -15t-0.5 -15q-2 -46 -44 -54q-112 -22 -224 7q-138 37 -268 149q-8 7 -22.5 20.5t-22.5 20.5q-10 8 -15 13 q0 -73 24 -128q19 -45 63 -86q29 -26 11 -61q-16 -34 -55 -27q-6 1 -18.5 3t-18.5 3l-81 12q18 -43 51 -73q53 -49 138 -59q46 -6 51 -44q5 -41 -39 -57l-83 -31q-5 -2 -17 -6l-2 -1q31 -34 85 -52q53 -17 155 -25h2q42 -3 51 -37q10 -34 -24 -59q-75 -53 -162 -83 q-6 -2 -50 -16q-2 0 -6 -2t-6 -2q229 -63 422 -26q337 66 491 377q75 152 67 327q-1 42 33 64q3 2 34 25z"/>
    <glyph glyph-name="N" unicode="N" d="M1264 1018q15 -17 12 -50q-12 -102 -24 -228q-5 -52 -56 -52h-118h-62v-162v-149.5v-177.5v-151q0 -47 -37 -63l-1 -1l-332 1q-37 16 -37 62v475v166h-46h-81q-57 0 -57 57v233q0 57 56 57h92h36v14v24q0 87 8 130q19 111 93.5 179t186.5 78q29 3 58 3h252q24 0 39 -14.5 t15 -38.5v-241q0 -24 -14.5 -38t-39.5 -14q-29 0 -86 0.5t-85 0.5q-14 0 -17 -2.5t-3 -16.5v-47v-17h71h130q32 0 47 -17zM1169 918l1 16h-67h-137q-22 0 -36.5 13t-14.5 34q-2 77 1 134q2 41 27 69t64 32q21 2 96 2h42h13h1v143h-77q-137 0 -183 -3q-131 -9 -171 -133 q-12 -38 -17 -101q-1 -15 -1 -89v-49q0 -25 -14 -38.5t-39 -13.5h-83h-47v-145h48h85q21 0 34.5 -13.5t15.5 -34.5v-14v-641h205v646q0 57 57 57h38h137h1q8 0 9 8q1 17 5 49l3 27q2 15 4 45z"/>
    <glyph glyph-name="N" unicode="Ñ" d="M1264 1018q15 -17 12 -50q-12 -102 -24 -228q-5 -52 -56 -52h-118h-62v-162v-149.5v-177.5v-151q0 -47 -37 -63l-1 -1l-332 1q-37 16 -37 62v475v166h-46h-81q-57 0 -57 57v233q0 57 56 57h92h36v14v24q0 87 8 130q19 111 93.5 179t186.5 78q29 3 58 3h252q24 0 39 -14.5 t15 -38.5v-241q0 -24 -14.5 -38t-39.5 -14q-29 0 -86 0.5t-85 0.5q-14 0 -17 -2.5t-3 -16.5v-47v-17h71h130q32 0 47 -17zM1169 918l1 16h-67h-137q-22 0 -36.5 13t-14.5 34q-2 77 1 134q2 41 27 69t64 32q21 2 96 2h42h13h1v143h-77q-137 0 -183 -3q-131 -9 -171 -133 q-12 -38 -17 -101q-1 -15 -1 -89v-49q0 -25 -14 -38.5t-39 -13.5h-83h-47v-145h48h85q21 0 34.5 -13.5t15.5 -34.5v-14v-641h205v646q0 57 57 57h38h137h1q8 0 9 8q1 17 5 49l3 27q2 15 4 45z"/>
    <glyph glyph-name="O" unicode="O" d="M1252 1252q95 -109 122.5 -248t-18 -273.5t-154.5 -229.5q-111 -91 -114 -236v-33q0 -90 -64.5 -154t-154.5 -64h-36q-90 0 -154 64t-64 154v10q-1 78 -34.5 148.5t-92.5 121.5q-95 88 -138.5 209.5t-26.5 249.5q21 161 131 285q96 108 231 152t274 15t247 -125 q32 -30 46 -46zM969 232v18h-237l1 -18q0 -41 29.5 -70.5t70.5 -29.5h36q41 0 70.5 29.5t29.5 70.5zM1160 626q114 127 104.5 298.5t-137.5 285.5q-116 105 -275 105q-25 0 -49 -3q-153 -19 -255 -129q-117 -125 -110.5 -296.5t131.5 -288.5q104 -95 145 -229h78v425 q-53 19 -85.5 64.5t-32.5 101.5q0 25 17 42t42 17t42 -17t17 -42t17 -42t42 -17t42 17t17 42t17 42t42 17t42.5 -17t17.5 -42q0 -56 -33 -101.5t-86 -64.5v-425h74q37 132 140 221q20 16 36 36z"/>
    <glyph glyph-name="O" unicode="Ø" d="M1252 1252q95 -109 122.5 -248t-18 -273.5t-154.5 -229.5q-111 -91 -114 -236v-33q0 -90 -64.5 -154t-154.5 -64h-36q-90 0 -154 64t-64 154v10q-1 78 -34.5 148.5t-92.5 121.5q-95 88 -138.5 209.5t-26.5 249.5q21 161 131 285q96 108 231 152t274 15t247 -125 q32 -30 46 -46zM969 232v18h-237l1 -18q0 -41 29.5 -70.5t70.5 -29.5h36q41 0 70.5 29.5t29.5 70.5zM1160 626q114 127 104.5 298.5t-137.5 285.5q-116 105 -275 105q-25 0 -49 -3q-153 -19 -255 -129q-117 -125 -110.5 -296.5t131.5 -288.5q104 -95 145 -229h78v425 q-53 19 -85.5 64.5t-32.5 101.5q0 25 17 42t42 17t42 -17t17 -42t17 -42t42 -17t42 17t17 42t17 42t42 17t42.5 -17t17.5 -42q0 -56 -33 -101.5t-86 -64.5v-425h74q37 132 140 221q20 16 36 36z"/>
    <glyph glyph-name="O" unicode="Ö" d="M1252 1252q95 -109 122.5 -248t-18 -273.5t-154.5 -229.5q-111 -91 -114 -236v-33q0 -90 -64.5 -154t-154.5 -64h-36q-90 0 -154 64t-64 154v10q-1 78 -34.5 148.5t-92.5 121.5q-95 88 -138.5 209.5t-26.5 249.5q21 161 131 285q96 108 231 152t274 15t247 -125 q32 -30 46 -46zM969 232v18h-237l1 -18q0 -41 29.5 -70.5t70.5 -29.5h36q41 0 70.5 29.5t29.5 70.5zM1160 626q114 127 104.5 298.5t-137.5 285.5q-116 105 -275 105q-25 0 -49 -3q-153 -19 -255 -129q-117 -125 -110.5 -296.5t131.5 -288.5q104 -95 145 -229h78v425 q-53 19 -85.5 64.5t-32.5 101.5q0 25 17 42t42 17t42 -17t17 -42t17 -42t42 -17t42 17t17 42t17 42t42 17t42.5 -17t17.5 -42q0 -56 -33 -101.5t-86 -64.5v-425h74q37 132 140 221q20 16 36 36z"/>
    <glyph glyph-name="O" unicode="Õ" d="M1252 1252q95 -109 122.5 -248t-18 -273.5t-154.5 -229.5q-111 -91 -114 -236v-33q0 -90 -64.5 -154t-154.5 -64h-36q-90 0 -154 64t-64 154v10q-1 78 -34.5 148.5t-92.5 121.5q-95 88 -138.5 209.5t-26.5 249.5q21 161 131 285q96 108 231 152t274 15t247 -125 q32 -30 46 -46zM969 232v18h-237l1 -18q0 -41 29.5 -70.5t70.5 -29.5h36q41 0 70.5 29.5t29.5 70.5zM1160 626q114 127 104.5 298.5t-137.5 285.5q-116 105 -275 105q-25 0 -49 -3q-153 -19 -255 -129q-117 -125 -110.5 -296.5t131.5 -288.5q104 -95 145 -229h78v425 q-53 19 -85.5 64.5t-32.5 101.5q0 25 17 42t42 17t42 -17t17 -42t17 -42t42 -17t42 17t17 42t17 42t42 17t42.5 -17t17.5 -42q0 -56 -33 -101.5t-86 -64.5v-425h74q37 132 140 221q20 16 36 36z"/>
    <glyph glyph-name="O" unicode="Ô" d="M1252 1252q95 -109 122.5 -248t-18 -273.5t-154.5 -229.5q-111 -91 -114 -236v-33q0 -90 -64.5 -154t-154.5 -64h-36q-90 0 -154 64t-64 154v10q-1 78 -34.5 148.5t-92.5 121.5q-95 88 -138.5 209.5t-26.5 249.5q21 161 131 285q96 108 231 152t274 15t247 -125 q32 -30 46 -46zM969 232v18h-237l1 -18q0 -41 29.5 -70.5t70.5 -29.5h36q41 0 70.5 29.5t29.5 70.5zM1160 626q114 127 104.5 298.5t-137.5 285.5q-116 105 -275 105q-25 0 -49 -3q-153 -19 -255 -129q-117 -125 -110.5 -296.5t131.5 -288.5q104 -95 145 -229h78v425 q-53 19 -85.5 64.5t-32.5 101.5q0 25 17 42t42 17t42 -17t17 -42t17 -42t42 -17t42 17t17 42t17 42t42 17t42.5 -17t17.5 -42q0 -56 -33 -101.5t-86 -64.5v-425h74q37 132 140 221q20 16 36 36z"/>
    <glyph glyph-name="O" unicode="Ó" d="M1252 1252q95 -109 122.5 -248t-18 -273.5t-154.5 -229.5q-111 -91 -114 -236v-33q0 -90 -64.5 -154t-154.5 -64h-36q-90 0 -154 64t-64 154v10q-1 78 -34.5 148.5t-92.5 121.5q-95 88 -138.5 209.5t-26.5 249.5q21 161 131 285q96 108 231 152t274 15t247 -125 q32 -30 46 -46zM969 232v18h-237l1 -18q0 -41 29.5 -70.5t70.5 -29.5h36q41 0 70.5 29.5t29.5 70.5zM1160 626q114 127 104.5 298.5t-137.5 285.5q-116 105 -275 105q-25 0 -49 -3q-153 -19 -255 -129q-117 -125 -110.5 -296.5t131.5 -288.5q104 -95 145 -229h78v425 q-53 19 -85.5 64.5t-32.5 101.5q0 25 17 42t42 17t42 -17t17 -42t17 -42t42 -17t42 17t17 42t17 42t42 17t42.5 -17t17.5 -42q0 -56 -33 -101.5t-86 -64.5v-425h74q37 132 140 221q20 16 36 36z"/>
    <glyph glyph-name="O" unicode="Ò" d="M1252 1252q95 -109 122.5 -248t-18 -273.5t-154.5 -229.5q-111 -91 -114 -236v-33q0 -90 -64.5 -154t-154.5 -64h-36q-90 0 -154 64t-64 154v10q-1 78 -34.5 148.5t-92.5 121.5q-95 88 -138.5 209.5t-26.5 249.5q21 161 131 285q96 108 231 152t274 15t247 -125 q32 -30 46 -46zM969 232v18h-237l1 -18q0 -41 29.5 -70.5t70.5 -29.5h36q41 0 70.5 29.5t29.5 70.5zM1160 626q114 127 104.5 298.5t-137.5 285.5q-116 105 -275 105q-25 0 -49 -3q-153 -19 -255 -129q-117 -125 -110.5 -296.5t131.5 -288.5q104 -95 145 -229h78v425 q-53 19 -85.5 64.5t-32.5 101.5q0 25 17 42t42 17t42 -17t17 -42t17 -42t42 -17t42 17t17 42t17 42t42 17t42.5 -17t17.5 -42q0 -56 -33 -101.5t-86 -64.5v-425h74q37 132 140 221q20 16 36 36z"/>
    <glyph glyph-name="P" unicode="P" d="M1265 1197q122 0 209 -87t87 -209v-591q0 -122 -87 -209t-209 -87h-828q-122 0 -209 87t-87 209v591q0 122 87 209t209 87h65q21 103 103 169.5t187 66.5h118q105 0 187 -66.5t103 -169.5h65zM792 1315q-56 0 -102 -32.5t-65 -85.5h452q-19 53 -65 85.5t-102 32.5h-118z M1442 310v295h-532v-59q0 -25 -17 -42t-42 -17t-42 17t-17 42v59h-532v-295q0 -74 52 -126t125 -52h828q73 0 125 52t52 126zM1442 724v177q0 73 -52 125t-125 52h-828q-73 0 -125 -52t-52 -125v-177h1182z"/>
    <glyph glyph-name="Q" unicode="Q" d="M1350 1065q-11 23 -3 47.5t31 35.5l123 61q22 11 47 3t36 -30q11 -23 3 -47.5t-31 -35.5l-123 -61q-22 -11 -47 -3t-36 30zM1405 785q-25 0 -43.5 18.5t-18.5 43.5t18 43t44 18h123q26 0 44 -18t18 -43t-18 -43.5t-44 -18.5h-123zM1159 1463q25 0 43 -18t18 -44v-1109 q0 -26 -18 -43.5t-43 -17.5q-26 0 -44 18t-18 43q0 65 -26.5 114.5t-72 77.5t-98 41.5t-111.5 13.5h-150l135 -296q16 -35 16 -75q0 -76 -53.5 -130t-129.5 -54q-59 0 -108.5 32.5t-73.5 86.5l-220 491q-93 73 -93 191v123q0 102 72 174.5t174 72.5h431q59 0 111.5 13.5 t98 41t72 77t26.5 114.5q0 25 18.5 43.5t43.5 18.5zM662 193l-159 346h-138l172 -386q9 -20 28 -32.5t42 -12.5q11 0 24 5q23 11 32 34t-1 46zM1097 563v567q-135 -104 -308 -98h-431q-51 0 -87 -36.5t-36 -87.5v-123q0 -51 36 -87t87 -36h431q172 6 308 -99zM1556 594 q23 -11 31 -35.5t-3 -47.5t-35.5 -31t-47.5 3l-123 62q-23 11 -31 35.5t3 47.5q11 22 36 30t47 -3z"/>
    <glyph glyph-name="R" unicode="R" d="M851 1463q150 0 287 -58.5t236 -157.5t157.5 -236t58.5 -287t-58.5 -287t-157.5 -236.5t-236 -158t-287 -58.5t-287 58.5t-236 158t-157.5 236.5t-58.5 287t58.5 287t157.5 236t236 157.5t287 58.5zM851 83q174 0 321.5 86t233.5 233.5t86 321.5t-86 321.5t-233.5 233 t-321.5 85.5t-321.5 -85.5t-233.5 -233t-86 -321.5t86 -321.5t233.5 -233.5t321.5 -86zM555 904q-19 0 -34 15t-15 35q0 47 34 81t81 34t81 -34t34 -81q0 -20 -15 -35t-34 -15t-34.5 15t-15.5 35q0 16 -16 16t-16 -16q0 -20 -15.5 -35t-34.5 -15zM1015 904q-19 0 -34 15 t-15 35q0 47 34 81t81 34t81 -34t34 -81q0 -20 -15 -35t-34 -15t-34.5 15t-15.5 35q0 16 -16 16q-17 0 -17 -16q0 -20 -15 -35t-34 -15zM1327 689v-1q-11 -221 -137 -367q-75 -85 -180 -126l-1 -1q-4 -1 -12 -4t-12 -4t-11.5 -3t-10.5 -3q-12 -4 -18 -5q-7 -2 -21.5 -4 t-15.5 -2q-8 -2 -12 -2q-30 -2 -45 -2t-45 2q-4 0 -12 2q-1 0 -15.5 2t-21.5 4q-6 1 -18 5q-4 1 -11.5 3t-10.5 3q-4 1 -12 4t-12 4l-1 1q-108 41 -180 126q-126 146 -137 367v1q0 11 2 16q0 1 1 3q3 5 7 11q1 1 2 2.5t2 2.5q6 6 9 8l6 3q4 2 12 4l1 1h2h864h1l2 -1 q8 -2 12 -4l6 -3q3 -2 9 -8q3 -3 4 -5q4 -6 7 -11v-1q1 -1 1 -2q2 -5 2 -16zM1222 641h-742q0 -4 1 -11t2 -11q14 -80 45 -144q4 -3 5 -8q76 -145 213 -188q1 -1 5 -1t5 -1q20 -6 35 -8q2 -1 6 -1t6 -1q24 -3 48 -3t48 3q2 1 6 1t6 1q15 2 35 8q1 1 4.5 1t5.5 1 q137 43 213 188q1 5 5 8q31 64 45 144q1 3 2 11t1 11z"/>
    <glyph glyph-name="S" unicode="S" d="M437 448q0 124 87 209l721 721q55 52 130.5 52t130.5 -52q54 -54 54 -130.5t-54 -130.5l-721 -721q-84 -86 -209 -86h-80q-25 0 -42 17t-17 42v79zM555 448v-20h21q73 0 125 52l721 721q20 19 20 47t-20 47t-47 19t-47 -19l-721 -721q-52 -52 -52 -126zM1501 902 q25 0 42.5 -17t17.5 -42v-376q0 -124 -87 -209l-157 -158q-84 -86 -209 -86h-671q-122 0 -209 87t-87 209v828q0 122 87 208.5t209 86.5h535q25 0 42 -17t17 -42t-17 -42t-42 -17h-535q-73 0 -125 -51.5t-52 -125.5v-828q0 -74 52 -126t125 -52h591v237q0 73 52 125t126 52 h236v297q0 25 17 42t42 17zM1391 341q36 36 47 87h-232q-25 0 -42 -17t-17 -42v-232q49 11 86 47z"/>
    <glyph glyph-name="T" unicode="T" d="M1034 487q-6 -36 -6 -54v-183v-14q3 -46 38 -76.5t81 -27.5h59q25 0 42 -17t17 -42t-17 -42t-42 -17h-710q-25 0 -42 17t-17 42t17 42t42 17h59h15q46 3 76.5 37.5t27.5 80.5v183q0 18 -6 54q-139 1 -245 35.5t-165.5 92t-88 122t-28.5 134.5q0 73 46.5 130t117.5 73 q-15 44 -20 59q-16 53 -6 107t43 98q34 45 84 70t106 25h678q56 0 106 -25t84 -70q33 -44 43 -98t-6 -107q-5 -15 -20 -59q71 -15 117.5 -72.5t46.5 -130.5q0 -70 -28.5 -134.5t-88 -122t-165.5 -92t-245 -35.5zM1354 960h-1q-1 1 -2 1q-77 -175 -221 -305q-24 -20 -45 -49 q182 11 269.5 87t87.5 177q0 37 -25.5 63t-62.5 26zM260 871q0 -101 87.5 -177t269.5 -87q-20 27 -46 49q-143 129 -220 305q-1 0 -3 -1q-37 0 -62.5 -26t-25.5 -63zM910 433q0 90 37.5 172.5t106.5 140.5q184 176 249 421q16 55 -18 100q-35 48 -95 48h-678q-60 0 -95 -48 q-35 -46 -19 -100q65 -244 250 -421q69 -58 106.5 -140.5t37.5 -172.5v-183q2 -63 -29 -118h176q-31 55 -29 118v183z"/>
    <glyph glyph-name="U" unicode="U" d="M851 1433q193 0 356.5 -95t258.5 -258t95 -356q0 -144 -56 -275.5t-151.5 -227t-227 -151.5t-275.5 -56t-275.5 56t-227 151.5t-151.5 227t-56 275.5q0 193 95 356t258.5 258t356.5 95zM851 132q160 0 296.5 79.5t215.5 216t79 296.5q0 161 -79 297t-215 215t-297 79 t-297 -79t-215 -215t-79 -297q0 -120 46.5 -230t126 -189t189 -126t229.5 -47zM851 1078q25 0 42 -17t17 -42v-288q0 -33 -28 -51l-227 -142q-21 -13 -44.5 -7.5t-36.5 26.5t-8 45t26 37l200 124v256q0 25 17 42t42 17z"/>
    <glyph glyph-name="U" unicode="Ü" d="M851 1433q193 0 356.5 -95t258.5 -258t95 -356q0 -144 -56 -275.5t-151.5 -227t-227 -151.5t-275.5 -56t-275.5 56t-227 151.5t-151.5 227t-56 275.5q0 193 95 356t258.5 258t356.5 95zM851 132q160 0 296.5 79.5t215.5 216t79 296.5q0 161 -79 297t-215 215t-297 79 t-297 -79t-215 -215t-79 -297q0 -120 46.5 -230t126 -189t189 -126t229.5 -47zM851 1078q25 0 42 -17t17 -42v-288q0 -33 -28 -51l-227 -142q-21 -13 -44.5 -7.5t-36.5 26.5t-8 45t26 37l200 124v256q0 25 17 42t42 17z"/>
    <glyph glyph-name="U" unicode="Û" d="M851 1433q193 0 356.5 -95t258.5 -258t95 -356q0 -144 -56 -275.5t-151.5 -227t-227 -151.5t-275.5 -56t-275.5 56t-227 151.5t-151.5 227t-56 275.5q0 193 95 356t258.5 258t356.5 95zM851 132q160 0 296.5 79.5t215.5 216t79 296.5q0 161 -79 297t-215 215t-297 79 t-297 -79t-215 -215t-79 -297q0 -120 46.5 -230t126 -189t189 -126t229.5 -47zM851 1078q25 0 42 -17t17 -42v-288q0 -33 -28 -51l-227 -142q-21 -13 -44.5 -7.5t-36.5 26.5t-8 45t26 37l200 124v256q0 25 17 42t42 17z"/>
    <glyph glyph-name="U" unicode="Ú" d="M851 1433q193 0 356.5 -95t258.5 -258t95 -356q0 -144 -56 -275.5t-151.5 -227t-227 -151.5t-275.5 -56t-275.5 56t-227 151.5t-151.5 227t-56 275.5q0 193 95 356t258.5 258t356.5 95zM851 132q160 0 296.5 79.5t215.5 216t79 296.5q0 161 -79 297t-215 215t-297 79 t-297 -79t-215 -215t-79 -297q0 -120 46.5 -230t126 -189t189 -126t229.5 -47zM851 1078q25 0 42 -17t17 -42v-288q0 -33 -28 -51l-227 -142q-21 -13 -44.5 -7.5t-36.5 26.5t-8 45t26 37l200 124v256q0 25 17 42t42 17z"/>
    <glyph glyph-name="U" unicode="Ù" d="M851 1433q193 0 356.5 -95t258.5 -258t95 -356q0 -144 -56 -275.5t-151.5 -227t-227 -151.5t-275.5 -56t-275.5 56t-227 151.5t-151.5 227t-56 275.5q0 193 95 356t258.5 258t356.5 95zM851 132q160 0 296.5 79.5t215.5 216t79 296.5q0 161 -79 297t-215 215t-297 79 t-297 -79t-215 -215t-79 -297q0 -120 46.5 -230t126 -189t189 -126t229.5 -47zM851 1078q25 0 42 -17t17 -42v-288q0 -33 -28 -51l-227 -142q-21 -13 -44.5 -7.5t-36.5 26.5t-8 45t26 37l200 124v256q0 25 17 42t42 17z"/>
    <glyph glyph-name="V" unicode="V" d="M1265 1433q122 0 209 -86.5t87 -208.5v-671q0 -124 -87 -209l-157 -158q-84 -86 -209 -86h-671q-122 0 -209 87t-87 209v828q0 122 87 208.5t209 86.5h828zM1391 341q36 36 47 87h-232q-25 0 -42 -17t-17 -42v-232q49 11 86 47zM1442 546v592q0 74 -52 125.5t-125 51.5 h-828q-73 0 -125 -51.5t-52 -125.5v-828q0 -74 52 -126t125 -52h591v237q0 73 52 125t126 52h236zM526 1161q52 0 83 -29.5t31 -78.5v-9q0 -51 -31.5 -82.5t-82.5 -31.5h-61v-90q0 -11 -7.5 -18.5t-18.5 -7.5h-19q-11 0 -18.5 7.5t-7.5 18.5v295q0 11 8 18.5t18 7.5h106z M570 1043v9q0 41 -46 41h-59v-94h59q46 0 46 44zM796 1161q58 0 95.5 -39t37.5 -100v-69q0 -61 -37.5 -100t-95.5 -39h-97q-11 0 -18.5 7.5t-7.5 18.5v295q0 11 7.5 18.5t18.5 7.5h97zM857 953v69q0 32 -16.5 51.5t-44.5 19.5h-53v-211h53q28 0 44.5 19.5t16.5 51.5z M1173 1161q11 0 18.5 -7.5t7.5 -18.5v-17q0 -11 -7.5 -18t-18.5 -7h-132v-79h102q11 0 18.5 -7.5t7.5 -18.5v-17q0 -11 -7.5 -18.5t-18.5 -7.5h-102v-105q0 -11 -7.5 -18.5t-18.5 -7.5h-19q-11 0 -18.5 7.5t-7.5 18.5v295q0 11 8 18.5t18 7.5h177z"/>
    <glyph glyph-name="W" unicode="W" d="M851 1433q193 0 356.5 -95t258.5 -258t95 -356q0 -144 -56 -275.5t-151.5 -227t-227 -151.5t-275.5 -56t-275.5 56t-227 151.5t-151.5 227t-56 275.5q0 193 95 356t258.5 258t356.5 95zM792 135v234q0 25 -17 42t-42 17h-158q-74 0 -126 52l-187 187 q21 -211 170.5 -360.5t359.5 -171.5zM910 135q211 22 359 171l-79 79q-43 43 -43 104v57q0 25 -17.5 42t-42.5 17h-177q-73 0 -125 52t-52 126v29q0 62 43 105t104 43q12 0 21 9t9 21v59q0 61 43 104.5t105 43.5h81q11 0 21 8l14 14q-100 66 -221 87q-158 28 -305.5 -26.5 t-249 -174.5t-129.5 -278l264 -264q17 -17 42 -17h158q73 0 125 -52t52 -125v-234zM1344 398q98 149 98 326q0 119 -45.5 228t-130.5 192l-22 -22q-44 -44 -105 -44h-81q-12 0 -21 -8.5t-9 -20.5v-59q0 -62 -43 -105t-105 -43q-12 0 -20.5 -9t-8.5 -21v-29q0 -25 17 -42 t42 -17h177q73 0 125.5 -52t52.5 -126v-57q0 -12 9 -21z"/>
    <glyph glyph-name="X" unicode="X" d="M1265 1433q122 0 209 -86.5t87 -208.5v-671q0 -124 -87 -209l-157 -158q-84 -86 -209 -86h-671q-122 0 -209 87t-87 209v828q0 122 87 208.5t209 86.5h828zM1391 341q36 36 47 87h-232q-25 0 -42 -17t-17 -42v-232q49 11 86 47zM1442 546v592q0 74 -52 125.5t-125 51.5 h-828q-73 0 -125 -51.5t-52 -125.5v-828q0 -74 52 -126t125 -52h591v237q0 73 52 125t126 52h236zM526 1161q52 0 83 -29.5t31 -78.5v-9q0 -51 -31.5 -82.5t-82.5 -31.5h-61v-90q0 -11 -7.5 -18.5t-18.5 -7.5h-19q-11 0 -18.5 7.5t-7.5 18.5v295q0 11 8 18.5t18 7.5h106z M570 1043v9q0 41 -46 41h-59v-94h59q46 0 46 44zM805 1161q52 0 83 -29.5t31 -78.5v-9q0 -51 -31.5 -82.5t-82.5 -31.5h-62v-90q0 -11 -7.5 -18.5t-18.5 -7.5h-18q-11 0 -18.5 7.5t-7.5 18.5v295q0 11 7.5 18.5t18.5 7.5h106zM848 1043v9q0 41 -45 41h-60v-94h60q45 0 45 44 zM1169 1161q11 0 18.5 -7.5t7.5 -18.5v-17q0 -11 -7.5 -18t-18.5 -7h-75v-253q0 -10 -8 -18t-18 -8h-18q-11 0 -18.5 7.5t-7.5 18.5v253h-75q-11 0 -18.5 7.5t-7.5 17.5v17q0 11 7.5 18.5t18.5 7.5h220z"/>
    <glyph glyph-name="Y" unicode="Y" d="M614 1226q49 0 84 -34.5t35 -83.5v-414q0 -128 -63.5 -237t-172.5 -172.5t-237 -63.5q-25 0 -42.5 17t-17.5 42t17.5 42t42.5 17q129 0 228 84t121 212h-349q-49 0 -84 34.5t-35 83.5v237q0 98 69.5 167t167.5 69h236zM288 750h335v317q0 16 -11 27t-27 11h-212 q-50 0 -86.5 -36.5t-36.5 -86.5v-194q0 -16 11 -27t27 -11zM1442 1226q49 0 84 -34.5t35 -83.5v-414q0 -128 -63.5 -237t-173 -172.5t-237.5 -63.5q-25 0 -42 17t-17 42t17 42t42 17q130 0 229 84t121 212h-350q-49 0 -83.5 34.5t-34.5 83.5v237q0 98 69.5 167t167.5 69h236 zM1452 750v317q0 16 -11.5 27t-27.5 11h-212q-50 0 -86 -36.5t-36 -86.5v-194q0 -16 11 -27t27 -11h335z"/>
    <glyph glyph-name="Y" unicode="Ÿ" d="M614 1226q49 0 84 -34.5t35 -83.5v-414q0 -128 -63.5 -237t-172.5 -172.5t-237 -63.5q-25 0 -42.5 17t-17.5 42t17.5 42t42.5 17q129 0 228 84t121 212h-349q-49 0 -84 34.5t-35 83.5v237q0 98 69.5 167t167.5 69h236zM288 750h335v317q0 16 -11 27t-27 11h-212 q-50 0 -86.5 -36.5t-36.5 -86.5v-194q0 -16 11 -27t27 -11zM1442 1226q49 0 84 -34.5t35 -83.5v-414q0 -128 -63.5 -237t-173 -172.5t-237.5 -63.5q-25 0 -42 17t-17 42t17 42t42 17q130 0 229 84t121 212h-350q-49 0 -83.5 34.5t-34.5 83.5v237q0 98 69.5 167t167.5 69h236 zM1452 750v317q0 16 -11.5 27t-27.5 11h-212q-50 0 -86 -36.5t-36 -86.5v-194q0 -16 11 -27t27 -11h335z"/>
    <glyph glyph-name="Y" unicode="Ý" d="M614 1226q49 0 84 -34.5t35 -83.5v-414q0 -128 -63.5 -237t-172.5 -172.5t-237 -63.5q-25 0 -42.5 17t-17.5 42t17.5 42t42.5 17q129 0 228 84t121 212h-349q-49 0 -84 34.5t-35 83.5v237q0 98 69.5 167t167.5 69h236zM288 750h335v317q0 16 -11 27t-27 11h-212 q-50 0 -86.5 -36.5t-36.5 -86.5v-194q0 -16 11 -27t27 -11zM1442 1226q49 0 84 -34.5t35 -83.5v-414q0 -128 -63.5 -237t-173 -172.5t-237.5 -63.5q-25 0 -42 17t-17 42t17 42t42 17q130 0 229 84t121 212h-350q-49 0 -83.5 34.5t-34.5 83.5v237q0 98 69.5 167t167.5 69h236 zM1452 750v317q0 16 -11.5 27t-27.5 11h-212q-50 0 -86 -36.5t-36 -86.5v-194q0 -16 11 -27t27 -11h335z"/>
    <glyph glyph-name="Z" unicode="Z" d="M1265 1433q122 0 209 -86.5t87 -208.5v-671q0 -124 -87 -209l-157 -158q-84 -86 -209 -86h-671q-122 0 -209 87t-87 209v828q0 122 87 208.5t209 86.5h828zM1391 341q36 36 47 87h-232q-25 0 -42 -17t-17 -42v-232q49 11 86 47zM1442 546v592q0 74 -52 125.5t-125 51.5 h-828q-73 0 -125 -51.5t-52 -125.5v-828q0 -74 52 -126t125 -52h591v237q0 73 52 125t126 52h236zM517 1161q58 0 95.5 -39t37.5 -100v-69q0 -61 -37.5 -100t-95.5 -39h-97q-11 0 -18.5 7.5t-7.5 18.5v295q0 11 8 18.5t18 7.5h97zM579 953v69q0 32 -17 51.5t-45 19.5h-52 v-211h52q28 0 45 19.5t17 51.5zM814 1166q58 0 95.5 -39.5t37.5 -100.5v-77q0 -61 -37.5 -100.5t-95.5 -39.5t-95 39.5t-37 100.5v77q0 61 37.5 100.5t94.5 39.5zM875 949v76q0 33 -16.5 52.5t-44.5 19.5t-45 -19.5t-17 -52.5v-76q0 -32 17 -51.5t45 -19.5t44.5 19.5 t16.5 51.5zM1217 955q10 0 16.5 -7t6.5 -17v-1q-3 -52 -40 -86.5t-90 -34.5q-58 0 -95 39.5t-37 100.5v77q0 62 37 101t95 39q52 0 88 -31.5t42 -83.5q2 -12 -6 -20t-19 -8h-23q-20 0 -24 22q-3 21 -17.5 36.5t-40.5 15.5q-28 0 -44.5 -19.5t-16.5 -51.5v-77 q0 -32 16.5 -51.5t44.5 -19.5q24 0 40 15t19 41q3 21 24 21h24z"/>
    <glyph glyph-name="bracketleft" unicode="[" d="M851 1093q102 0 174 -72t72 -174t-72 -174.5t-174 -72.5t-174 72.5t-72 174.5t72 174t174 72zM851 724q51 0 87 36t36 87t-36 87t-87 36t-87 -36t-36 -87t36 -87t87 -36zM851 1463q168 0 310.5 -83t225.5 -226t83 -311q0 -236 -353 -723q-46 -64 -116.5 -100.5 t-149.5 -35.5q-79 -1 -149.5 35.5t-116.5 100.5q-353 487 -353 723q0 168 83 311t225.5 226t310.5 83zM1008 199q159 219 243.5 385t84.5 259q0 132 -65 243.5t-176.5 176.5t-243.5 65t-243.5 -65t-176.5 -176.5t-65 -243.5q0 -93 84.5 -259t243.5 -385q47 -65 126.5 -77.5 t144.5 34.5q25 18 43 43z"/>
    <glyph glyph-name="backslash" unicode="\" d="M1265 1433q122 0 209 -86.5t87 -208.5v-828q0 -122 -87 -209t-209 -87h-828q-122 0 -209 87t-87 209v828q0 122 87 208.5t209 86.5h828zM1442 310v828q0 74 -52 125.5t-125 51.5h-828q-73 0 -125 -51.5t-52 -125.5v-828q0 -74 52 -126t125 -52h828q73 0 125 52t52 126z M1199 1133q25 0 42 -17t17 -42t-17 -42.5t-42 -17.5h-696q-25 0 -42 17.5t-17 42.5t17 42t42 17h696zM1199 896q25 0 42 -17t17 -42t-17 -42t-42 -17h-696q-25 0 -42 17t-17 42t17 42t42 17h696zM941 550q20 14 44.5 10.5t38.5 -23.5t10.5 -44.5t-23.5 -38.5 q-91 -65 -204 -70q-67 0 -119 41q-26 18 -41 18q-61 -9 -108 -47q-20 -14 -44.5 -10t-38.5 24q-13 19 -10 42t21 38q81 62 180 71q64 -2 109 -38q21 -19 51 -21q74 6 134 48z"/>
    <glyph glyph-name="bracketright" unicode="]" d="M1570 89q16 -17 16 -41t-16 -41q-17 -17 -41.5 -17.5t-41.5 16.5l-165 165l-164 -164q-18 -18 -41 -18q-5 0 -13 2q-31 6 -42 37l-192 527q-14 40 0 80q16 46 60 66.5t90 3.5l527 -191q11 -4 21 -14q17 -17 17.5 -41.5t-16.5 -41.5l-164 -163l101 -102zM1140 155l280 280 l-440 160zM854 175q19 0 34 -10.5t21 -27.5q11 -29 -6.5 -54t-48.5 -25h-445q-121 0 -207 86t-86 208v822q0 122 86 208t207 86h823q122 0 208 -86t86 -208v-450q0 -31 -25 -48.5t-54 -6.5q-39 14 -39 55v391q0 97 -69 166t-166 69h-705q-98 0 -166.5 -69t-68.5 -166v-705 q0 -98 68.5 -166.5t166.5 -68.5h386zM1167 1177q24 0 41.5 -17t17.5 -41t-17.5 -41.5t-41.5 -17.5h-692q-24 0 -41.5 17.5t-17.5 41.5t17.5 41t41.5 17h692zM1167 942q24 0 41.5 -17t17.5 -41t-17.5 -41.5t-41.5 -17.5h-692q-24 0 -41.5 17.5t-17.5 41.5t17.5 41t41.5 17 h692z"/>
    <glyph glyph-name="asciicircum" unicode="^" d="M965 1315q122 0 209.5 -85t90.5 -207v-8q0 -25 -17 -42t-42 -17t-42 17t-17 42q0 75 -53.5 128.5t-128.5 53.5h-55v-431l150 -50q92 -31 148.5 -109t56.5 -175q0 -124 -87.5 -212t-212.5 -88h-55v-59q0 -25 -17 -42t-42 -17t-42 17t-17 42v59h-55q-122 0 -209.5 85.5 t-90.5 207.5v7q0 25 17 42t42 17t42 -17t17 -42q0 -75 53.5 -128.5t128.5 -53.5h55v431l-150 50q-92 31 -148.5 109t-56.5 175q0 125 87.5 212.5t212.5 87.5h55v59q0 25 17 42t42 17t42 -17t17 -42v-59h55zM792 806v391h-55q-58 0 -105.5 -34t-66.5 -90q-24 -71 9.5 -138.5 t104.5 -91.5zM1022 604l-112 38v-392h55q58 0 105.5 34.5t66.5 90.5q24 71 -10 138t-105 91z"/>
    <glyph glyph-name="underscore" unicode="_" d="M1354 642q64 -72 58 -168.5t-78 -161.5q-18 -16 -40 -29v-226q0 -18 -12 -30.5t-30 -12.5t-30 12l-46 46l-45 -46q-13 -13 -30.5 -13t-30.5 13q-12 12 -12 31v226q-85 49 -110.5 143t23.5 179q32 55 86.5 87t118.5 32q25 0 59 -9v422q0 74 -52 126t-125 52h-473 q-73 0 -125.5 -52.5t-52.5 -125.5v-709q0 -74 52.5 -126t125.5 -52h296q25 0 42 -17t17 -42t-17 -42t-42 -17h-296q-122 0 -209 87t-87 209v709q0 122 87 209t209 87h473q122 0 209 -87t87 -209v-495zM1176 369q49 0 84 34.5t35 83.5t-35 83.5t-84 34.5t-83.5 -34.5 t-34.5 -83.5t34.5 -83.5t83.5 -34.5zM585 724h177q25 0 42 -17.5t17 -42.5t-17 -42t-42 -17h-177q-25 0 -42 17t-17 42t17 42.5t42 17.5zM1117 901q0 -25 -17 -42t-42 -17h-473q-25 0 -42 17t-17 42t17 42t42 17h473q25 0 42 -17t17 -42zM585 1078q-25 0 -42 17t-17 42 t17 42.5t42 17.5h473q25 0 42 -17.5t17 -42.5t-17 -42t-42 -17h-473z"/>
    <glyph glyph-name="grave" unicode="`" d="M1518 1267q72 -72 72 -174v-862q0 -102 -72 -174q-73 -73 -174 -73h-986q-101 0 -174 73q-72 72 -72 174v862q0 102 72 174q73 73 174 73h62v61q0 26 18 44t43 18t43.5 -18.5t18.5 -43.5v-61h246v61q0 25 18.5 43.5t43.5 18.5t43.5 -18.5t18.5 -43.5v-61h246v61 q0 25 18.5 43.5t43.5 18.5t43 -18t18 -44v-61h62q101 0 174 -73zM1467 231v616h-1232v-616q0 -51 36 -87t87 -36h986q51 0 87 36t36 87zM235 970h1232v123q0 51 -36 87t-87 36h-62v-61q0 -26 -18 -44t-43 -18t-43.5 18.5t-18.5 43.5v61h-246v-61q0 -25 -18.5 -43.5 t-43.5 -18.5t-43 18t-18 44v61h-247v-61q0 -25 -18.5 -43.5t-43.5 -18.5t-43 18t-18 44v61h-62q-51 0 -87 -36t-36 -87v-123zM746 310l-123 124q-18 18 -18 43.5t18 43.5t43.5 18t43.5 -18l79 -80l203 203q18 18 43.5 18t43.5 -18t18 -43.5t-18 -43.5l-246 -247 q-18 -18 -44 -18q-25 0 -43 18z"/>
    <glyph glyph-name="a" unicode="a" d="M1074 845q50 -27 66.5 -82t-10.5 -105q-17 -33 -53 -54l-318 -159q-31 -17 -65 -17q-37 0 -70 19q-32 19 -50.5 50.5t-18.5 68.5v315q0 57 40.5 97.5t97.5 40.5q37 0 69 -18zM1021 708q7 6 7 16q0 12 -10 17l-312 156q-8 4 -14 4q-4 0 -9 -3q-10 -5 -10 -17v-315 q0 -8 6 -14t14 -6q5 0 10 3zM1265 1433q122 0 209 -86.5t87 -208.5v-828q0 -122 -87 -209t-209 -87h-828q-122 0 -209 87t-87 209v828q0 122 87 208.5t209 86.5h828zM1442 310v828q0 74 -52 125.5t-125 51.5h-828q-73 0 -125 -51.5t-52 -125.5v-828q0 -74 52 -126t125 -52 h828q73 0 125 52t52 126z"/>
    <glyph glyph-name="a" unicode="å" d="M1074 845q50 -27 66.5 -82t-10.5 -105q-17 -33 -53 -54l-318 -159q-31 -17 -65 -17q-37 0 -70 19q-32 19 -50.5 50.5t-18.5 68.5v315q0 57 40.5 97.5t97.5 40.5q37 0 69 -18zM1021 708q7 6 7 16q0 12 -10 17l-312 156q-8 4 -14 4q-4 0 -9 -3q-10 -5 -10 -17v-315 q0 -8 6 -14t14 -6q5 0 10 3zM1265 1433q122 0 209 -86.5t87 -208.5v-828q0 -122 -87 -209t-209 -87h-828q-122 0 -209 87t-87 209v828q0 122 87 208.5t209 86.5h828zM1442 310v828q0 74 -52 125.5t-125 51.5h-828q-73 0 -125 -51.5t-52 -125.5v-828q0 -74 52 -126t125 -52 h828q73 0 125 52t52 126z"/>
    <glyph glyph-name="a" unicode="ä" d="M1074 845q50 -27 66.5 -82t-10.5 -105q-17 -33 -53 -54l-318 -159q-31 -17 -65 -17q-37 0 -70 19q-32 19 -50.5 50.5t-18.5 68.5v315q0 57 40.5 97.5t97.5 40.5q37 0 69 -18zM1021 708q7 6 7 16q0 12 -10 17l-312 156q-8 4 -14 4q-4 0 -9 -3q-10 -5 -10 -17v-315 q0 -8 6 -14t14 -6q5 0 10 3zM1265 1433q122 0 209 -86.5t87 -208.5v-828q0 -122 -87 -209t-209 -87h-828q-122 0 -209 87t-87 209v828q0 122 87 208.5t209 86.5h828zM1442 310v828q0 74 -52 125.5t-125 51.5h-828q-73 0 -125 -51.5t-52 -125.5v-828q0 -74 52 -126t125 -52 h828q73 0 125 52t52 126z"/>
    <glyph glyph-name="a" unicode="ã" d="M1074 845q50 -27 66.5 -82t-10.5 -105q-17 -33 -53 -54l-318 -159q-31 -17 -65 -17q-37 0 -70 19q-32 19 -50.5 50.5t-18.5 68.5v315q0 57 40.5 97.5t97.5 40.5q37 0 69 -18zM1021 708q7 6 7 16q0 12 -10 17l-312 156q-8 4 -14 4q-4 0 -9 -3q-10 -5 -10 -17v-315 q0 -8 6 -14t14 -6q5 0 10 3zM1265 1433q122 0 209 -86.5t87 -208.5v-828q0 -122 -87 -209t-209 -87h-828q-122 0 -209 87t-87 209v828q0 122 87 208.5t209 86.5h828zM1442 310v828q0 74 -52 125.5t-125 51.5h-828q-73 0 -125 -51.5t-52 -125.5v-828q0 -74 52 -126t125 -52 h828q73 0 125 52t52 126z"/>
    <glyph glyph-name="a" unicode="â" d="M1074 845q50 -27 66.5 -82t-10.5 -105q-17 -33 -53 -54l-318 -159q-31 -17 -65 -17q-37 0 -70 19q-32 19 -50.5 50.5t-18.5 68.5v315q0 57 40.5 97.5t97.5 40.5q37 0 69 -18zM1021 708q7 6 7 16q0 12 -10 17l-312 156q-8 4 -14 4q-4 0 -9 -3q-10 -5 -10 -17v-315 q0 -8 6 -14t14 -6q5 0 10 3zM1265 1433q122 0 209 -86.5t87 -208.5v-828q0 -122 -87 -209t-209 -87h-828q-122 0 -209 87t-87 209v828q0 122 87 208.5t209 86.5h828zM1442 310v828q0 74 -52 125.5t-125 51.5h-828q-73 0 -125 -51.5t-52 -125.5v-828q0 -74 52 -126t125 -52 h828q73 0 125 52t52 126z"/>
    <glyph glyph-name="a" unicode="á" d="M1074 845q50 -27 66.5 -82t-10.5 -105q-17 -33 -53 -54l-318 -159q-31 -17 -65 -17q-37 0 -70 19q-32 19 -50.5 50.5t-18.5 68.5v315q0 57 40.5 97.5t97.5 40.5q37 0 69 -18zM1021 708q7 6 7 16q0 12 -10 17l-312 156q-8 4 -14 4q-4 0 -9 -3q-10 -5 -10 -17v-315 q0 -8 6 -14t14 -6q5 0 10 3zM1265 1433q122 0 209 -86.5t87 -208.5v-828q0 -122 -87 -209t-209 -87h-828q-122 0 -209 87t-87 209v828q0 122 87 208.5t209 86.5h828zM1442 310v828q0 74 -52 125.5t-125 51.5h-828q-73 0 -125 -51.5t-52 -125.5v-828q0 -74 52 -126t125 -52 h828q73 0 125 52t52 126z"/>
    <glyph glyph-name="a" unicode="à" d="M1074 845q50 -27 66.5 -82t-10.5 -105q-17 -33 -53 -54l-318 -159q-31 -17 -65 -17q-37 0 -70 19q-32 19 -50.5 50.5t-18.5 68.5v315q0 57 40.5 97.5t97.5 40.5q37 0 69 -18zM1021 708q7 6 7 16q0 12 -10 17l-312 156q-8 4 -14 4q-4 0 -9 -3q-10 -5 -10 -17v-315 q0 -8 6 -14t14 -6q5 0 10 3zM1265 1433q122 0 209 -86.5t87 -208.5v-828q0 -122 -87 -209t-209 -87h-828q-122 0 -209 87t-87 209v828q0 122 87 208.5t209 86.5h828zM1442 310v828q0 74 -52 125.5t-125 51.5h-828q-73 0 -125 -51.5t-52 -125.5v-828q0 -74 52 -126t125 -52 h828q73 0 125 52t52 126z"/>
    <glyph glyph-name="b" unicode="b" d="M1055 825q16 -16 16 -39t-16 -39l-330 -331q-17 -16 -39 -16t-39 16t-17 39t17 39l226 227q27 27 27 65t-27 65l-226 227q-17 16 -17 39t17 39t39 16t39 -16z"/>
    <glyph glyph-name="c" unicode="c" d="M759 767q0 -23 -16 -39l-331 -330q-16 -16 -39 -16t-39 16t-16 39t16 39l227 226q27 27 27 65.5t-27 65.5l-227 226q-16 17 -16 39t16 39t39 17t39 -17l331 -331q16 -16 16 -39zM1071 767q0 -23 -16 -39l-330 -330q-17 -16 -39 -16t-39 16t-17 39t17 39l226 226 q27 27 27 65.5t-27 65.5l-226 226q-17 17 -17 39t17 39t39 17t39 -17l330 -331q16 -16 16 -39zM1368 806q16 -16 16 -38q0 -23 -16 -39l-331 -331q-16 -16 -39 -16q-36 0 -51 34q-13 35 12 60l226 226q27 27 27 65.5t-27 65.5l-226 226q-17 17 -17 39t17 39t39 17t39 -17z "/>
    <glyph glyph-name="c" unicode="ç" d="M759 767q0 -23 -16 -39l-331 -330q-16 -16 -39 -16t-39 16t-16 39t16 39l227 226q27 27 27 65.5t-27 65.5l-227 226q-16 17 -16 39t16 39t39 17t39 -17l331 -331q16 -16 16 -39zM1071 767q0 -23 -16 -39l-330 -330q-17 -16 -39 -16t-39 16t-17 39t17 39l226 226 q27 27 27 65.5t-27 65.5l-226 226q-17 17 -17 39t17 39t39 17t39 -17l330 -331q16 -16 16 -39zM1368 806q16 -16 16 -38q0 -23 -16 -39l-331 -331q-16 -16 -39 -16q-36 0 -51 34q-13 35 12 60l226 226q27 27 27 65.5t-27 65.5l-226 226q-17 17 -17 39t17 39t39 17t39 -17z "/>
    <glyph glyph-name="d" unicode="d" d="M201 1094q-25 0 -42 17t-17 42q0 18 12 35q72 97 175 160t222 84q24 5 44.5 -8.5t25.5 -37.5t-8.5 -44.5t-37.5 -25.5q-98 -16 -182.5 -67.5t-143.5 -130.5q-18 -24 -48 -24zM1512 487q24 -5 37.5 -25.5t8.5 -44.5v-2q-22 -117 -84.5 -218t-157.5 -172q-16 -11 -35 -11 q-25 0 -42 17t-17 42q0 30 24 48q78 59 129 141.5t67 178.5q5 24 25.5 37.5t44.5 8.5zM1328 1116q101 -126 114 -287t-66 -302l-223 -364q-38 -62 -98 -100.5t-131 -46.5q-24 -2 -37 -2q-99 0 -178 56q-93 -70 -207.5 -53t-184.5 110q-55 74 -56 166t53 166l-78 77 q-92 92 -92 221t92 220q22 22 56 44l341 211q142 91 311 82.5t300 -114.5l98 98q17 18 41.5 18t42.5 -17q17 -17 17.5 -41t-16.5 -42l-1 -2zM426 180q39 -37 92.5 -44.5t100.5 17.5l-220 220q-26 -47 -19 -101t46 -92zM1274 586q67 120 48 256t-116 234q-101 103 -245 118.5 t-265 -62.5l-342 -211q-68 -42 -86 -120t24 -146q13 -21 27 -35l432 -431q56 -56 136.5 -56t136.5 56q17 17 28 35z"/>
    <glyph glyph-name="e" unicode="e" d="M200 1152q-25 0 -42 17t-17 42t17 42.5t42 17.5h162q15 56 56.5 97t98.5 57q89 24 168 -21t103 -133h713q25 0 42.5 -17.5t17.5 -42.5t-17.5 -42t-42.5 -17h-713q-15 -56 -56.5 -97.5t-98.5 -57.5q-88 -24 -167.5 21.5t-103.5 133.5h-162zM575 1315q-43 0 -73.5 -30.5 t-30.5 -73.5t30.5 -73t73.5 -30t73 30t30 73t-30 73.5t-73 30.5zM1501 783q25 0 42.5 -17t17.5 -42t-17.5 -42.5t-42.5 -17.5h-161q-15 -57 -56.5 -98.5t-98.5 -56.5q-88 -24 -167.5 21.5t-103.5 133.5h-714q-25 0 -42 17.5t-17 42.5t17 42t42 17h714q15 57 56.5 98.5 t98.5 56.5q88 24 167.5 -21.5t103.5 -133.5h161zM1127 620q43 0 73 30.5t30 73.5t-30 73t-73 30t-73.5 -30t-30.5 -73t30.5 -73.5t73.5 -30.5zM1501 295q25 0 42.5 -17t17.5 -42t-17.5 -42t-42.5 -17h-713q-15 -56 -56.5 -97.5t-98.5 -57.5q-88 -24 -167.5 21.5 t-103.5 133.5h-162q-25 0 -42 17t-17 42t17 42t42 17h162q15 56 56.5 97.5t98.5 57.5q89 24 168 -21.5t103 -133.5h713zM575 132q43 0 73 30.5t30 73.5t-30 73t-73 30t-73.5 -30t-30.5 -73t30.5 -73.5t73.5 -30.5z"/>
    <glyph glyph-name="e" unicode="ë" d="M200 1152q-25 0 -42 17t-17 42t17 42.5t42 17.5h162q15 56 56.5 97t98.5 57q89 24 168 -21t103 -133h713q25 0 42.5 -17.5t17.5 -42.5t-17.5 -42t-42.5 -17h-713q-15 -56 -56.5 -97.5t-98.5 -57.5q-88 -24 -167.5 21.5t-103.5 133.5h-162zM575 1315q-43 0 -73.5 -30.5 t-30.5 -73.5t30.5 -73t73.5 -30t73 30t30 73t-30 73.5t-73 30.5zM1501 783q25 0 42.5 -17t17.5 -42t-17.5 -42.5t-42.5 -17.5h-161q-15 -57 -56.5 -98.5t-98.5 -56.5q-88 -24 -167.5 21.5t-103.5 133.5h-714q-25 0 -42 17.5t-17 42.5t17 42t42 17h714q15 57 56.5 98.5 t98.5 56.5q88 24 167.5 -21.5t103.5 -133.5h161zM1127 620q43 0 73 30.5t30 73.5t-30 73t-73 30t-73.5 -30t-30.5 -73t30.5 -73.5t73.5 -30.5zM1501 295q25 0 42.5 -17t17.5 -42t-17.5 -42t-42.5 -17h-713q-15 -56 -56.5 -97.5t-98.5 -57.5q-88 -24 -167.5 21.5 t-103.5 133.5h-162q-25 0 -42 17t-17 42t17 42t42 17h162q15 56 56.5 97.5t98.5 57.5q89 24 168 -21.5t103 -133.5h713zM575 132q43 0 73 30.5t30 73.5t-30 73t-73 30t-73.5 -30t-30.5 -73t30.5 -73.5t73.5 -30.5z"/>
    <glyph glyph-name="e" unicode="ê" d="M200 1152q-25 0 -42 17t-17 42t17 42.5t42 17.5h162q15 56 56.5 97t98.5 57q89 24 168 -21t103 -133h713q25 0 42.5 -17.5t17.5 -42.5t-17.5 -42t-42.5 -17h-713q-15 -56 -56.5 -97.5t-98.5 -57.5q-88 -24 -167.5 21.5t-103.5 133.5h-162zM575 1315q-43 0 -73.5 -30.5 t-30.5 -73.5t30.5 -73t73.5 -30t73 30t30 73t-30 73.5t-73 30.5zM1501 783q25 0 42.5 -17t17.5 -42t-17.5 -42.5t-42.5 -17.5h-161q-15 -57 -56.5 -98.5t-98.5 -56.5q-88 -24 -167.5 21.5t-103.5 133.5h-714q-25 0 -42 17.5t-17 42.5t17 42t42 17h714q15 57 56.5 98.5 t98.5 56.5q88 24 167.5 -21.5t103.5 -133.5h161zM1127 620q43 0 73 30.5t30 73.5t-30 73t-73 30t-73.5 -30t-30.5 -73t30.5 -73.5t73.5 -30.5zM1501 295q25 0 42.5 -17t17.5 -42t-17.5 -42t-42.5 -17h-713q-15 -56 -56.5 -97.5t-98.5 -57.5q-88 -24 -167.5 21.5 t-103.5 133.5h-162q-25 0 -42 17t-17 42t17 42t42 17h162q15 56 56.5 97.5t98.5 57.5q89 24 168 -21.5t103 -133.5h713zM575 132q43 0 73 30.5t30 73.5t-30 73t-73 30t-73.5 -30t-30.5 -73t30.5 -73.5t73.5 -30.5z"/>
    <glyph glyph-name="e" unicode="é" d="M200 1152q-25 0 -42 17t-17 42t17 42.5t42 17.5h162q15 56 56.5 97t98.5 57q89 24 168 -21t103 -133h713q25 0 42.5 -17.5t17.5 -42.5t-17.5 -42t-42.5 -17h-713q-15 -56 -56.5 -97.5t-98.5 -57.5q-88 -24 -167.5 21.5t-103.5 133.5h-162zM575 1315q-43 0 -73.5 -30.5 t-30.5 -73.5t30.5 -73t73.5 -30t73 30t30 73t-30 73.5t-73 30.5zM1501 783q25 0 42.5 -17t17.5 -42t-17.5 -42.5t-42.5 -17.5h-161q-15 -57 -56.5 -98.5t-98.5 -56.5q-88 -24 -167.5 21.5t-103.5 133.5h-714q-25 0 -42 17.5t-17 42.5t17 42t42 17h714q15 57 56.5 98.5 t98.5 56.5q88 24 167.5 -21.5t103.5 -133.5h161zM1127 620q43 0 73 30.5t30 73.5t-30 73t-73 30t-73.5 -30t-30.5 -73t30.5 -73.5t73.5 -30.5zM1501 295q25 0 42.5 -17t17.5 -42t-17.5 -42t-42.5 -17h-713q-15 -56 -56.5 -97.5t-98.5 -57.5q-88 -24 -167.5 21.5 t-103.5 133.5h-162q-25 0 -42 17t-17 42t17 42t42 17h162q15 56 56.5 97.5t98.5 57.5q89 24 168 -21.5t103 -133.5h713zM575 132q43 0 73 30.5t30 73.5t-30 73t-73 30t-73.5 -30t-30.5 -73t30.5 -73.5t73.5 -30.5z"/>
    <glyph glyph-name="e" unicode="è" d="M200 1152q-25 0 -42 17t-17 42t17 42.5t42 17.5h162q15 56 56.5 97t98.5 57q89 24 168 -21t103 -133h713q25 0 42.5 -17.5t17.5 -42.5t-17.5 -42t-42.5 -17h-713q-15 -56 -56.5 -97.5t-98.5 -57.5q-88 -24 -167.5 21.5t-103.5 133.5h-162zM575 1315q-43 0 -73.5 -30.5 t-30.5 -73.5t30.5 -73t73.5 -30t73 30t30 73t-30 73.5t-73 30.5zM1501 783q25 0 42.5 -17t17.5 -42t-17.5 -42.5t-42.5 -17.5h-161q-15 -57 -56.5 -98.5t-98.5 -56.5q-88 -24 -167.5 21.5t-103.5 133.5h-714q-25 0 -42 17.5t-17 42.5t17 42t42 17h714q15 57 56.5 98.5 t98.5 56.5q88 24 167.5 -21.5t103.5 -133.5h161zM1127 620q43 0 73 30.5t30 73.5t-30 73t-73 30t-73.5 -30t-30.5 -73t30.5 -73.5t73.5 -30.5zM1501 295q25 0 42.5 -17t17.5 -42t-17.5 -42t-42.5 -17h-713q-15 -56 -56.5 -97.5t-98.5 -57.5q-88 -24 -167.5 21.5 t-103.5 133.5h-162q-25 0 -42 17t-17 42t17 42t42 17h162q15 56 56.5 97.5t98.5 57.5q89 24 168 -21.5t103 -133.5h713zM575 132q43 0 73 30.5t30 73.5t-30 73t-73 30t-73.5 -30t-30.5 -73t30.5 -73.5t73.5 -30.5z"/>
    <glyph glyph-name="f" unicode="f" d="M851 1463q150 0 287 -58.5t236 -157.5t157.5 -236t58.5 -287t-58.5 -287t-157.5 -236.5t-236 -158t-287 -58.5t-287 58.5t-236 158t-157.5 236.5t-58.5 287t58.5 287t157.5 236t236 157.5t287 58.5zM851 108q167 0 309 82.5t224.5 224.5t82.5 309t-82.5 309t-224.5 224.5 t-309 82.5t-309 -82.5t-224.5 -224.5t-82.5 -309t82.5 -309t224.5 -224.5t309 -82.5zM833 1151q37 0 60.5 -23.5t23.5 -60.5t-23.5 -61t-60.5 -24q-36 0 -59.5 24t-23.5 61t23.5 60.5t59.5 23.5zM856 926q20 0 33.5 -14t13.5 -33v-516q0 -20 -13.5 -33.5t-33.5 -13.5h-46 q-20 0 -33 13.5t-13 33.5v516q0 19 13.5 33t32.5 14h46z"/>
    <glyph glyph-name="g" unicode="g" d="M851 1463q150 0 287 -58.5t236 -157.5t157.5 -236t58.5 -287t-58.5 -287t-157.5 -236.5t-236 -158t-287 -58.5t-287 58.5t-236 158t-157.5 236.5t-58.5 287t58.5 287t157.5 236t236 157.5t287 58.5zM851 108q167 0 309 82.5t224.5 224.5t82.5 309t-82.5 309t-224.5 224.5 t-309 82.5t-309 -82.5t-224.5 -224.5t-82.5 -309t82.5 -309t224.5 -224.5t309 -82.5zM819 492q40 0 66 -26t26 -66t-25.5 -65.5t-66.5 -25.5t-66.5 25.5t-25.5 65.5t26 66t66 26zM828 1159q120 0 189.5 -59.5t69.5 -161.5q0 -47 -19.5 -89.5t-38.5 -63.5t-55 -54 q-32 -29 -45.5 -43.5t-28 -42t-14.5 -57.5v-24q0 -20 -13 -32.5t-33 -12.5h-46q-20 0 -32.5 12.5t-12.5 32.5v24q0 44 10 80t32 65.5t37 45t43 40.5q27 24 40 37.5t24.5 35.5t11.5 46q0 89 -119 89q-39 0 -64.5 -8.5t-39 -27t-18.5 -32t-11 -38.5l-1 -7q-7 -36 -45 -36h-43 q-20 0 -33 15q-12 13 -10 32q4 43 20.5 82.5t47 74.5t81.5 56t116 21z"/>
    <glyph glyph-name="h" unicode="h" d="M851 1463q150 0 287 -58.5t236 -157.5t157.5 -236t58.5 -287t-58.5 -287t-157.5 -236.5t-236 -158t-287 -58.5t-287 58.5t-236 158t-157.5 236.5t-58.5 287t58.5 287t157.5 236t236 157.5t287 58.5zM851 108q167 0 309 82.5t224.5 224.5t82.5 309t-82.5 309t-224.5 224.5 t-309 82.5t-309 -82.5t-224.5 -224.5t-82.5 -309t82.5 -309t224.5 -224.5t309 -82.5zM834 455q40 0 66 -26t26 -66t-25.5 -65.5t-66.5 -25.5t-66.5 25.5t-25.5 65.5t26 66t66 26zM809 519q-20 0 -33 12.5t-13 32.5v537q0 20 13.5 33.5t32.5 13.5h47q19 0 33 -14t14 -33v-537 q0 -19 -13.5 -32t-33.5 -13h-47z"/>
    <glyph glyph-name="i" unicode="i" d="M1265 935q81 -35 129 -109t48 -162v-354q0 -122 -86.5 -209t-208.5 -87h-592q-122 0 -208.5 87t-86.5 209v354q0 88 48 162t129 109v84q0 172 121 293t293 121t293 -121t121 -293v-84zM555 1019v-59h592v59q0 122 -87 209t-209 87t-209 -87t-87 -209zM1324 310v354 q0 74 -52 126t-125 52h-592q-73 0 -125 -52t-52 -126v-354q0 -74 52 -126t125 -52h592q73 0 125 52t52 126zM851 605q25 0 42 -17t17 -42v-118q0 -25 -17 -42t-42 -17t-42 17t-17 42v118q0 25 17 42t42 17z"/>
    <glyph glyph-name="i" unicode="ï" d="M1265 935q81 -35 129 -109t48 -162v-354q0 -122 -86.5 -209t-208.5 -87h-592q-122 0 -208.5 87t-86.5 209v354q0 88 48 162t129 109v84q0 172 121 293t293 121t293 -121t121 -293v-84zM555 1019v-59h592v59q0 122 -87 209t-209 87t-209 -87t-87 -209zM1324 310v354 q0 74 -52 126t-125 52h-592q-73 0 -125 -52t-52 -126v-354q0 -74 52 -126t125 -52h592q73 0 125 52t52 126zM851 605q25 0 42 -17t17 -42v-118q0 -25 -17 -42t-42 -17t-42 17t-17 42v118q0 25 17 42t42 17z"/>
    <glyph glyph-name="i" unicode="î" d="M1265 935q81 -35 129 -109t48 -162v-354q0 -122 -86.5 -209t-208.5 -87h-592q-122 0 -208.5 87t-86.5 209v354q0 88 48 162t129 109v84q0 172 121 293t293 121t293 -121t121 -293v-84zM555 1019v-59h592v59q0 122 -87 209t-209 87t-209 -87t-87 -209zM1324 310v354 q0 74 -52 126t-125 52h-592q-73 0 -125 -52t-52 -126v-354q0 -74 52 -126t125 -52h592q73 0 125 52t52 126zM851 605q25 0 42 -17t17 -42v-118q0 -25 -17 -42t-42 -17t-42 17t-17 42v118q0 25 17 42t42 17z"/>
    <glyph glyph-name="i" unicode="í" d="M1265 935q81 -35 129 -109t48 -162v-354q0 -122 -86.5 -209t-208.5 -87h-592q-122 0 -208.5 87t-86.5 209v354q0 88 48 162t129 109v84q0 172 121 293t293 121t293 -121t121 -293v-84zM555 1019v-59h592v59q0 122 -87 209t-209 87t-209 -87t-87 -209zM1324 310v354 q0 74 -52 126t-125 52h-592q-73 0 -125 -52t-52 -126v-354q0 -74 52 -126t125 -52h592q73 0 125 52t52 126zM851 605q25 0 42 -17t17 -42v-118q0 -25 -17 -42t-42 -17t-42 17t-17 42v118q0 25 17 42t42 17z"/>
    <glyph glyph-name="i" unicode="ì" d="M1265 935q81 -35 129 -109t48 -162v-354q0 -122 -86.5 -209t-208.5 -87h-592q-122 0 -208.5 87t-86.5 209v354q0 88 48 162t129 109v84q0 172 121 293t293 121t293 -121t121 -293v-84zM555 1019v-59h592v59q0 122 -87 209t-209 87t-209 -87t-87 -209zM1324 310v354 q0 74 -52 126t-125 52h-592q-73 0 -125 -52t-52 -126v-354q0 -74 52 -126t125 -52h592q73 0 125 52t52 126zM851 605q25 0 42 -17t17 -42v-118q0 -25 -17 -42t-42 -17t-42 17t-17 42v118q0 25 17 42t42 17z"/>
    <glyph glyph-name="j" unicode="j" d="M851 1463q150 0 287 -58.5t236 -157.5t157.5 -236t58.5 -287t-58.5 -287t-157.5 -236.5t-236 -158t-287 -58.5t-287 58.5t-236 158t-157.5 236.5t-58.5 287t58.5 287t157.5 236t236 157.5t287 58.5zM851 108q167 0 309 82.5t224.5 224.5t82.5 309t-82.5 309t-224.5 224.5 t-309 82.5t-309 -82.5t-224.5 -224.5t-82.5 -309t82.5 -309t224.5 -224.5t309 -82.5zM922 1148q124 0 195.5 -68t71.5 -185v-22q0 -119 -73.5 -192t-193.5 -73h-172v-245q0 -20 -13 -33.5t-33 -13.5h-47q-20 0 -33 13.5t-13 33.5v738q0 20 13.5 33.5t32.5 13.5h265z M1050 870v24q0 119 -132 119h-168v-271h168q17 0 34.5 4t42 15t40 39.5t15.5 69.5z"/>
    <glyph glyph-name="k" unicode="k" d="M1294 783q25 0 42 -17t17 -42t-17 -42.5t-42 -17.5h-384v-383q0 -25 -17 -42t-42 -17t-42 17t-17 42v383h-384q-25 0 -42 17.5t-17 42.5t17 42t42 17h384v383q0 25 17 42t42 17t42 -17t17 -42v-383h384z"/>
    <glyph glyph-name="l" unicode="l" d="M1294 775q25 0 42 -17.5t17 -42.5t-17 -42t-42 -17h-886q-25 0 -42 17t-17 42t17 42.5t42 17.5h886z"/>
    <glyph glyph-name="m" unicode="m" d="M1221 650q16 -16 16 -39t-16 -39q-17 -16 -39 -16t-39 16l-227 226q-27 27 -65 27t-65 -27l-227 -226q-17 -16 -39 -16t-39 16t-17 39t17 39l331 331q16 16 39 16t39 -16z"/>
    <glyph glyph-name="n" unicode="n" d="M829 690l226 -227q17 -17 17 -39t-17 -39t-39 -17t-39 17l-330 331q-17 17 -17 39t17 39l330 331q17 17 39 17t39 -17t17 -39t-17 -39l-226 -227q-27 -27 -27 -65t27 -65z"/>
    <glyph glyph-name="n" unicode="ñ" d="M829 690l226 -227q17 -17 17 -39t-17 -39t-39 -17t-39 17l-330 331q-17 17 -17 39t17 39l330 331q17 17 39 17t39 -17t17 -39t-17 -39l-226 -227q-27 -27 -27 -65t27 -65z"/>
    <glyph glyph-name="o" unicode="o" d="M588 832q-4 -21 -4 -49q0 -257 -91 -394.5t-263 -137.5q-25 0 -42.5 17t-17.5 42t17.5 42t42.5 17q236 0 236 414q0 35 6 69q0 1 0.5 3t0.5 3q5 24 26 37t45 8t36.5 -26t7.5 -45zM880 842q-25 0 -42 -17t-17 -42q0 -41 -0.5 -64t-2.5 -70t-6.5 -79t-14 -80t-22.5 -83.5 t-33.5 -78.5t-46 -77t-62 -67.5t-79.5 -59.5q-14 -9 -30 -9q-25 0 -42 17.5t-17 42.5q0 33 28 50q50 30 88 72t60 94.5t35.5 97.5t19 107.5t6.5 96t1 90.5q0 73 51.5 125t125.5 52t126 -52t52 -125q0 -25 -17.5 -42t-42.5 -17t-42 17t-17 42t-17 42t-42 17zM289 546 q-25 0 -42 17t-17 42v178q0 132 51.5 252.5t138.5 207.5t207.5 138.5t252.5 51.5q219 0 390 -130q20 -15 23.5 -39t-11.5 -44t-39 -23t-44 12q-141 106 -319 106q-108 0 -206.5 -42t-170 -113.5t-113.5 -170t-42 -206.5v-178q0 -25 -17 -42t-42 -17zM1051 600 q-30 -364 -234 -569v1q-17 -17 -41.5 -17.5t-41.5 16.5t-17.5 42t16.5 42q174 176 201 496v2q2 24 21 38.5t43 12.5q25 -2 40 -20.5t13 -43.5zM1531 783q12 -380 -136 -734q-17 -35 -54 -35q-14 0 -24 5q-22 10 -31 33.5t1 45.5q136 327 125 685q0 123 -53 232q-10 22 -2 45 t30 34q22 10 45 2t34 -30q65 -133 65 -283zM880 1196q172 0 293 -120.5t121 -292.5q3 -190 -29 -366q-4 -21 -20.5 -34.5t-37.5 -13.5q-8 0 -12 1q-24 4 -37.5 24.5t-8.5 44.5q30 170 27 344q0 132 -99 220q-91 82 -213 75t-204 -98l-1 -1q-1 -1 -1 -2q-17 -18 -41.5 -18.5 t-42.5 16.5t-18.5 41.5t16.5 42.5q58 66 138.5 101.5t169.5 35.5zM1177 305q23 -7 34 -29.5t3 -45.5q-34 -97 -89 -188q-13 -21 -37 -27t-45 7t-27 37t7 45q49 81 80 167q8 22 29.5 32t44.5 2z"/>
    <glyph glyph-name="o" unicode="ø" d="M588 832q-4 -21 -4 -49q0 -257 -91 -394.5t-263 -137.5q-25 0 -42.5 17t-17.5 42t17.5 42t42.5 17q236 0 236 414q0 35 6 69q0 1 0.5 3t0.5 3q5 24 26 37t45 8t36.5 -26t7.5 -45zM880 842q-25 0 -42 -17t-17 -42q0 -41 -0.5 -64t-2.5 -70t-6.5 -79t-14 -80t-22.5 -83.5 t-33.5 -78.5t-46 -77t-62 -67.5t-79.5 -59.5q-14 -9 -30 -9q-25 0 -42 17.5t-17 42.5q0 33 28 50q50 30 88 72t60 94.5t35.5 97.5t19 107.5t6.5 96t1 90.5q0 73 51.5 125t125.5 52t126 -52t52 -125q0 -25 -17.5 -42t-42.5 -17t-42 17t-17 42t-17 42t-42 17zM289 546 q-25 0 -42 17t-17 42v178q0 132 51.5 252.5t138.5 207.5t207.5 138.5t252.5 51.5q219 0 390 -130q20 -15 23.5 -39t-11.5 -44t-39 -23t-44 12q-141 106 -319 106q-108 0 -206.5 -42t-170 -113.5t-113.5 -170t-42 -206.5v-178q0 -25 -17 -42t-42 -17zM1051 600 q-30 -364 -234 -569v1q-17 -17 -41.5 -17.5t-41.5 16.5t-17.5 42t16.5 42q174 176 201 496v2q2 24 21 38.5t43 12.5q25 -2 40 -20.5t13 -43.5zM1531 783q12 -380 -136 -734q-17 -35 -54 -35q-14 0 -24 5q-22 10 -31 33.5t1 45.5q136 327 125 685q0 123 -53 232q-10 22 -2 45 t30 34q22 10 45 2t34 -30q65 -133 65 -283zM880 1196q172 0 293 -120.5t121 -292.5q3 -190 -29 -366q-4 -21 -20.5 -34.5t-37.5 -13.5q-8 0 -12 1q-24 4 -37.5 24.5t-8.5 44.5q30 170 27 344q0 132 -99 220q-91 82 -213 75t-204 -98l-1 -1q-1 -1 -1 -2q-17 -18 -41.5 -18.5 t-42.5 16.5t-18.5 41.5t16.5 42.5q58 66 138.5 101.5t169.5 35.5zM1177 305q23 -7 34 -29.5t3 -45.5q-34 -97 -89 -188q-13 -21 -37 -27t-45 7t-27 37t7 45q49 81 80 167q8 22 29.5 32t44.5 2z"/>
    <glyph glyph-name="o" unicode="ö" d="M588 832q-4 -21 -4 -49q0 -257 -91 -394.5t-263 -137.5q-25 0 -42.5 17t-17.5 42t17.5 42t42.5 17q236 0 236 414q0 35 6 69q0 1 0.5 3t0.5 3q5 24 26 37t45 8t36.5 -26t7.5 -45zM880 842q-25 0 -42 -17t-17 -42q0 -41 -0.5 -64t-2.5 -70t-6.5 -79t-14 -80t-22.5 -83.5 t-33.5 -78.5t-46 -77t-62 -67.5t-79.5 -59.5q-14 -9 -30 -9q-25 0 -42 17.5t-17 42.5q0 33 28 50q50 30 88 72t60 94.5t35.5 97.5t19 107.5t6.5 96t1 90.5q0 73 51.5 125t125.5 52t126 -52t52 -125q0 -25 -17.5 -42t-42.5 -17t-42 17t-17 42t-17 42t-42 17zM289 546 q-25 0 -42 17t-17 42v178q0 132 51.5 252.5t138.5 207.5t207.5 138.5t252.5 51.5q219 0 390 -130q20 -15 23.5 -39t-11.5 -44t-39 -23t-44 12q-141 106 -319 106q-108 0 -206.5 -42t-170 -113.5t-113.5 -170t-42 -206.5v-178q0 -25 -17 -42t-42 -17zM1051 600 q-30 -364 -234 -569v1q-17 -17 -41.5 -17.5t-41.5 16.5t-17.5 42t16.5 42q174 176 201 496v2q2 24 21 38.5t43 12.5q25 -2 40 -20.5t13 -43.5zM1531 783q12 -380 -136 -734q-17 -35 -54 -35q-14 0 -24 5q-22 10 -31 33.5t1 45.5q136 327 125 685q0 123 -53 232q-10 22 -2 45 t30 34q22 10 45 2t34 -30q65 -133 65 -283zM880 1196q172 0 293 -120.5t121 -292.5q3 -190 -29 -366q-4 -21 -20.5 -34.5t-37.5 -13.5q-8 0 -12 1q-24 4 -37.5 24.5t-8.5 44.5q30 170 27 344q0 132 -99 220q-91 82 -213 75t-204 -98l-1 -1q-1 -1 -1 -2q-17 -18 -41.5 -18.5 t-42.5 16.5t-18.5 41.5t16.5 42.5q58 66 138.5 101.5t169.5 35.5zM1177 305q23 -7 34 -29.5t3 -45.5q-34 -97 -89 -188q-13 -21 -37 -27t-45 7t-27 37t7 45q49 81 80 167q8 22 29.5 32t44.5 2z"/>
    <glyph glyph-name="o" unicode="õ" d="M588 832q-4 -21 -4 -49q0 -257 -91 -394.5t-263 -137.5q-25 0 -42.5 17t-17.5 42t17.5 42t42.5 17q236 0 236 414q0 35 6 69q0 1 0.5 3t0.5 3q5 24 26 37t45 8t36.5 -26t7.5 -45zM880 842q-25 0 -42 -17t-17 -42q0 -41 -0.5 -64t-2.5 -70t-6.5 -79t-14 -80t-22.5 -83.5 t-33.5 -78.5t-46 -77t-62 -67.5t-79.5 -59.5q-14 -9 -30 -9q-25 0 -42 17.5t-17 42.5q0 33 28 50q50 30 88 72t60 94.5t35.5 97.5t19 107.5t6.5 96t1 90.5q0 73 51.5 125t125.5 52t126 -52t52 -125q0 -25 -17.5 -42t-42.5 -17t-42 17t-17 42t-17 42t-42 17zM289 546 q-25 0 -42 17t-17 42v178q0 132 51.5 252.5t138.5 207.5t207.5 138.5t252.5 51.5q219 0 390 -130q20 -15 23.5 -39t-11.5 -44t-39 -23t-44 12q-141 106 -319 106q-108 0 -206.5 -42t-170 -113.5t-113.5 -170t-42 -206.5v-178q0 -25 -17 -42t-42 -17zM1051 600 q-30 -364 -234 -569v1q-17 -17 -41.5 -17.5t-41.5 16.5t-17.5 42t16.5 42q174 176 201 496v2q2 24 21 38.5t43 12.5q25 -2 40 -20.5t13 -43.5zM1531 783q12 -380 -136 -734q-17 -35 -54 -35q-14 0 -24 5q-22 10 -31 33.5t1 45.5q136 327 125 685q0 123 -53 232q-10 22 -2 45 t30 34q22 10 45 2t34 -30q65 -133 65 -283zM880 1196q172 0 293 -120.5t121 -292.5q3 -190 -29 -366q-4 -21 -20.5 -34.5t-37.5 -13.5q-8 0 -12 1q-24 4 -37.5 24.5t-8.5 44.5q30 170 27 344q0 132 -99 220q-91 82 -213 75t-204 -98l-1 -1q-1 -1 -1 -2q-17 -18 -41.5 -18.5 t-42.5 16.5t-18.5 41.5t16.5 42.5q58 66 138.5 101.5t169.5 35.5zM1177 305q23 -7 34 -29.5t3 -45.5q-34 -97 -89 -188q-13 -21 -37 -27t-45 7t-27 37t7 45q49 81 80 167q8 22 29.5 32t44.5 2z"/>
    <glyph glyph-name="o" unicode="ô" d="M588 832q-4 -21 -4 -49q0 -257 -91 -394.5t-263 -137.5q-25 0 -42.5 17t-17.5 42t17.5 42t42.5 17q236 0 236 414q0 35 6 69q0 1 0.5 3t0.5 3q5 24 26 37t45 8t36.5 -26t7.5 -45zM880 842q-25 0 -42 -17t-17 -42q0 -41 -0.5 -64t-2.5 -70t-6.5 -79t-14 -80t-22.5 -83.5 t-33.5 -78.5t-46 -77t-62 -67.5t-79.5 -59.5q-14 -9 -30 -9q-25 0 -42 17.5t-17 42.5q0 33 28 50q50 30 88 72t60 94.5t35.5 97.5t19 107.5t6.5 96t1 90.5q0 73 51.5 125t125.5 52t126 -52t52 -125q0 -25 -17.5 -42t-42.5 -17t-42 17t-17 42t-17 42t-42 17zM289 546 q-25 0 -42 17t-17 42v178q0 132 51.5 252.5t138.5 207.5t207.5 138.5t252.5 51.5q219 0 390 -130q20 -15 23.5 -39t-11.5 -44t-39 -23t-44 12q-141 106 -319 106q-108 0 -206.5 -42t-170 -113.5t-113.5 -170t-42 -206.5v-178q0 -25 -17 -42t-42 -17zM1051 600 q-30 -364 -234 -569v1q-17 -17 -41.5 -17.5t-41.5 16.5t-17.5 42t16.5 42q174 176 201 496v2q2 24 21 38.5t43 12.5q25 -2 40 -20.5t13 -43.5zM1531 783q12 -380 -136 -734q-17 -35 -54 -35q-14 0 -24 5q-22 10 -31 33.5t1 45.5q136 327 125 685q0 123 -53 232q-10 22 -2 45 t30 34q22 10 45 2t34 -30q65 -133 65 -283zM880 1196q172 0 293 -120.5t121 -292.5q3 -190 -29 -366q-4 -21 -20.5 -34.5t-37.5 -13.5q-8 0 -12 1q-24 4 -37.5 24.5t-8.5 44.5q30 170 27 344q0 132 -99 220q-91 82 -213 75t-204 -98l-1 -1q-1 -1 -1 -2q-17 -18 -41.5 -18.5 t-42.5 16.5t-18.5 41.5t16.5 42.5q58 66 138.5 101.5t169.5 35.5zM1177 305q23 -7 34 -29.5t3 -45.5q-34 -97 -89 -188q-13 -21 -37 -27t-45 7t-27 37t7 45q49 81 80 167q8 22 29.5 32t44.5 2z"/>
    <glyph glyph-name="o" unicode="ó" d="M588 832q-4 -21 -4 -49q0 -257 -91 -394.5t-263 -137.5q-25 0 -42.5 17t-17.5 42t17.5 42t42.5 17q236 0 236 414q0 35 6 69q0 1 0.5 3t0.5 3q5 24 26 37t45 8t36.5 -26t7.5 -45zM880 842q-25 0 -42 -17t-17 -42q0 -41 -0.5 -64t-2.5 -70t-6.5 -79t-14 -80t-22.5 -83.5 t-33.5 -78.5t-46 -77t-62 -67.5t-79.5 -59.5q-14 -9 -30 -9q-25 0 -42 17.5t-17 42.5q0 33 28 50q50 30 88 72t60 94.5t35.5 97.5t19 107.5t6.5 96t1 90.5q0 73 51.5 125t125.5 52t126 -52t52 -125q0 -25 -17.5 -42t-42.5 -17t-42 17t-17 42t-17 42t-42 17zM289 546 q-25 0 -42 17t-17 42v178q0 132 51.5 252.5t138.5 207.5t207.5 138.5t252.5 51.5q219 0 390 -130q20 -15 23.5 -39t-11.5 -44t-39 -23t-44 12q-141 106 -319 106q-108 0 -206.5 -42t-170 -113.5t-113.5 -170t-42 -206.5v-178q0 -25 -17 -42t-42 -17zM1051 600 q-30 -364 -234 -569v1q-17 -17 -41.5 -17.5t-41.5 16.5t-17.5 42t16.5 42q174 176 201 496v2q2 24 21 38.5t43 12.5q25 -2 40 -20.5t13 -43.5zM1531 783q12 -380 -136 -734q-17 -35 -54 -35q-14 0 -24 5q-22 10 -31 33.5t1 45.5q136 327 125 685q0 123 -53 232q-10 22 -2 45 t30 34q22 10 45 2t34 -30q65 -133 65 -283zM880 1196q172 0 293 -120.5t121 -292.5q3 -190 -29 -366q-4 -21 -20.5 -34.5t-37.5 -13.5q-8 0 -12 1q-24 4 -37.5 24.5t-8.5 44.5q30 170 27 344q0 132 -99 220q-91 82 -213 75t-204 -98l-1 -1q-1 -1 -1 -2q-17 -18 -41.5 -18.5 t-42.5 16.5t-18.5 41.5t16.5 42.5q58 66 138.5 101.5t169.5 35.5zM1177 305q23 -7 34 -29.5t3 -45.5q-34 -97 -89 -188q-13 -21 -37 -27t-45 7t-27 37t7 45q49 81 80 167q8 22 29.5 32t44.5 2z"/>
    <glyph glyph-name="o" unicode="ò" d="M588 832q-4 -21 -4 -49q0 -257 -91 -394.5t-263 -137.5q-25 0 -42.5 17t-17.5 42t17.5 42t42.5 17q236 0 236 414q0 35 6 69q0 1 0.5 3t0.5 3q5 24 26 37t45 8t36.5 -26t7.5 -45zM880 842q-25 0 -42 -17t-17 -42q0 -41 -0.5 -64t-2.5 -70t-6.5 -79t-14 -80t-22.5 -83.5 t-33.5 -78.5t-46 -77t-62 -67.5t-79.5 -59.5q-14 -9 -30 -9q-25 0 -42 17.5t-17 42.5q0 33 28 50q50 30 88 72t60 94.5t35.5 97.5t19 107.5t6.5 96t1 90.5q0 73 51.5 125t125.5 52t126 -52t52 -125q0 -25 -17.5 -42t-42.5 -17t-42 17t-17 42t-17 42t-42 17zM289 546 q-25 0 -42 17t-17 42v178q0 132 51.5 252.5t138.5 207.5t207.5 138.5t252.5 51.5q219 0 390 -130q20 -15 23.5 -39t-11.5 -44t-39 -23t-44 12q-141 106 -319 106q-108 0 -206.5 -42t-170 -113.5t-113.5 -170t-42 -206.5v-178q0 -25 -17 -42t-42 -17zM1051 600 q-30 -364 -234 -569v1q-17 -17 -41.5 -17.5t-41.5 16.5t-17.5 42t16.5 42q174 176 201 496v2q2 24 21 38.5t43 12.5q25 -2 40 -20.5t13 -43.5zM1531 783q12 -380 -136 -734q-17 -35 -54 -35q-14 0 -24 5q-22 10 -31 33.5t1 45.5q136 327 125 685q0 123 -53 232q-10 22 -2 45 t30 34q22 10 45 2t34 -30q65 -133 65 -283zM880 1196q172 0 293 -120.5t121 -292.5q3 -190 -29 -366q-4 -21 -20.5 -34.5t-37.5 -13.5q-8 0 -12 1q-24 4 -37.5 24.5t-8.5 44.5q30 170 27 344q0 132 -99 220q-91 82 -213 75t-204 -98l-1 -1q-1 -1 -1 -2q-17 -18 -41.5 -18.5 t-42.5 16.5t-18.5 41.5t16.5 42.5q58 66 138.5 101.5t169.5 35.5zM1177 305q23 -7 34 -29.5t3 -45.5q-34 -97 -89 -188q-13 -21 -37 -27t-45 7t-27 37t7 45q49 81 80 167q8 22 29.5 32t44.5 2z"/>
    <glyph glyph-name="p" unicode="p" d="M1240 1307q91 -30 146.5 -108t55.5 -173v-302q0 -91 -31 -179t-77 -154.5t-108.5 -128.5t-117 -102t-112 -75t-82.5 -47.5t-39 -18.5q-24 -11 -48 0q-14 6 -39 18.5t-82.5 47.5t-112 75t-117 102t-108.5 128.5t-77 154.5t-31 179v302q0 95 55.5 173t146.5 108l370 123 q19 6 38 0zM1324 724v302q0 57 -33.5 104t-87.5 65l-352 117l-352 -117q-54 -18 -87.5 -65t-33.5 -104v-302q0 -66 21.5 -131.5t54.5 -117t79 -101.5t89.5 -85.5t91.5 -68t79 -50t58 -31.5q43 22 88.5 49.5t119.5 85.5t128.5 119.5t95.5 150.5t41 180zM1046 942q17 17 42 17 t42 -17t17 -42t-17 -42l-253 -252q-33 -33 -79 -33h-2q-45 0 -79 36l-136 141l-3 3q-16 18 -15 42t19 41q18 16 42.5 15t41.5 -19l132 -138z"/>
    <glyph glyph-name="q" unicode="q" d="M1536 905q54 -54 54 -131v-605q0 -77 -54 -131t-131 -54h-1108q-77 0 -131 54t-54 131v605q0 77 54 131l467 468q90 90 218 90t218 -90zM1036 108v242q0 76 -54 130.5t-131 54.5t-131 -54.5t-54 -130.5v-242h370zM1467 169v605q0 24 -18 44l-467 467q-54 54 -131 54 t-131 -54l-467 -467q-18 -18 -18 -44v-605q0 -25 18 -43t44 -18h246v242q0 128 90.5 218t217.5 90t217.5 -90t90.5 -218v-242h246q26 0 44 18t18 43z"/>
    <glyph glyph-name="r" unicode="r" d="M851 960q98 0 167.5 -69t69.5 -167t-69.5 -167.5t-167.5 -69.5t-167.5 69.5t-69.5 167.5t69.5 167t167.5 69zM851 605q49 0 83.5 35t34.5 84t-34.5 83.5t-83.5 34.5t-83.5 -34.5t-34.5 -83.5t34.5 -84t83.5 -35zM1401 611q64 -37 83 -107.5t-18 -134.5t-108 -83t-135 18 l-26 15q-73 -63 -169 -97v-31q0 -73 -52 -125t-125 -52t-125 52t-52 125v31q-93 33 -169 97l-26 -15q-64 -37 -135 -18t-108 83t-18 134.5t83 107.5l27 15q-18 98 0 195l-27 15q-64 37 -83 107.5t18 134.5t108 83t135 -18l26 -15q73 63 169 97v31q0 74 52 125.5t125 51.5 t125 -51.5t52 -125.5v-31q93 -33 169 -97l26 16q64 37 135 18t108 -83t18 -135t-83 -108l-27 -15q18 -97 0 -195zM1250 834q-5 19 2.5 37.5t24.5 29.5l64 37l1 1q21 13 27.5 36.5t-6.5 44.5q-12 21 -36 27.5t-45 -6.5l-64 -37q-17 -10 -37.5 -7.5t-34.5 16.5 q-82 83 -192 112q-20 5 -32 21t-12 36v74q0 25 -17 42t-42 17t-42 -17t-17 -42v-74q0 -20 -12.5 -36.5t-32.5 -21.5q-110 -29 -191 -111q-14 -14 -34.5 -16.5t-37.5 7.5l-64 37q-21 12 -45 5.5t-36 -27.5t-6 -45t27 -36l64 -37q17 -10 25 -28.5t3 -37.5q-30 -111 0 -222 q5 -20 -2.5 -38.5t-24.5 -28.5l-65 -37v-1q-21 -12 -27 -35.5t6 -44.5t36 -28t45 6l64 37q17 10 37.5 7.5t34.5 -16.5q81 -82 191 -111q20 -5 32.5 -21.5t12.5 -36.5v-74q0 -25 17 -42t42 -17t42 17t17 42v74q0 20 12.5 36.5t31.5 21.5q112 29 192 111q14 14 34.5 16.5 t37.5 -7.5l64 -37q21 -12 45 -5.5t36 27.5t5.5 45t-27.5 36l-64 37q-17 10 -24.5 28.5t-2.5 38.5q30 111 0 222v-1z"/>
    <glyph glyph-name="s" unicode="s" d="M1277 1156q133 -116 189.5 -279.5t24.5 -333.5t-148 -303q47 -23 74 -68.5t25 -98.5q0 -25 -17 -42t-42 -17t-42 17t-17 42q1 28 -18 49t-48 23q-8 2 -11 4q-175 -136 -396 -136t-396 136l-12 -3q-28 -2 -47 -23t-18 -50q0 -25 -17 -42t-42 -17t-42 17t-17 42 q-2 53 25 98.5t74 68.5q-138 159 -156 367q-16 176 57.5 332.5t214.5 256.5t317 116v62q0 25 17 42t42 17t42 -17t17 -42v-62q208 -18 367 -156zM851 132q108 0 206.5 42t170 113.5t113.5 170t42 206.5q0 145 -71 267.5t-193.5 194t-267.5 71.5t-267.5 -71.5t-193.5 -194 t-71 -267.5q0 -108 42 -206.5t113.5 -170t170 -113.5t206.5 -42zM1283 1433q113 2 194.5 -76t83.5 -190q0 -25 -17.5 -42t-42.5 -17t-42 17t-17 42v7q-4 63 -52.5 104.5t-111.5 36.5q-25 0 -42.5 17t-17.5 42t17.5 42t42.5 17h5zM260 1167q0 -25 -17.5 -42t-42.5 -17t-42 17 t-17 42v5q4 112 87 189t196 72q25 0 42 -17t17 -42t-17 -42t-42 -17h-6q-64 2 -110 -41t-48 -107zM910 748l160 -160q16 -17 16 -41t-16 -41q-17 -17 -41 -18t-42 16l-178 178q-17 17 -17 41v296q0 25 17 42t42 17t42 -17t17 -42v-271z"/>
    <glyph glyph-name="t" unicode="t" d="M1502 1192q52 -62 38 -145l-46 -258q-19 -106 -101.5 -174.5t-189.5 -68.5h-705q19 -53 65 -85.5t102 -32.5h617q25 0 42 -17t17 -42t-17 -42t-42 -17h-617q-113 0 -197 74.5t-97 186.5l-81 692q-3 22 -19.5 37t-39.5 15h-13q-25 0 -42 17t-17 42t17 42t42 17h13 q67 0 117.5 -44.5t58.5 -111.5l3 -21h956q82 0 136 -64zM1424 1068q1 4 1 11q0 25 -17 42t-42 17h-942l55 -474h724q65 0 114.5 41t60.5 105zM573 250q49 0 83.5 -34.5t34.5 -83.5t-34.5 -83.5t-83.5 -34.5t-84 34.5t-35 83.5t35 83.5t84 34.5zM1164 250q49 0 83.5 -34.5 t34.5 -83.5t-34.5 -83.5t-83.5 -34.5t-83.5 34.5t-34.5 83.5t34.5 83.5t83.5 34.5z"/>
    <glyph glyph-name="u" unicode="u" d="M1265 1078q122 0 209 -86.5t87 -208.5v-296q0 -122 -87 -209t-209 -87q0 -73 -52 -125t-126 -52h-473q-74 0 -125.5 52t-51.5 125q-122 0 -209 87t-87 209v296q0 122 87 208.5t209 86.5v119q0 98 69.5 167t167.5 69h354q98 0 167.5 -69t69.5 -167v-119zM555 1197v-119 h592v119q0 49 -35 83.5t-84 34.5h-354q-49 0 -84 -34.5t-35 -83.5zM1147 191v237q0 25 -17.5 42t-42.5 17h-473q-25 0 -42 -17t-17 -42v-237q0 -25 17 -42t42 -17h473q25 0 42.5 17t17.5 42zM1442 487v296q0 73 -52 125t-125 52h-828q-73 0 -125 -52t-52 -125v-296 q0 -73 52 -125t125 -52v118q0 74 51.5 125.5t125.5 51.5h473q74 0 126 -52t52 -125v-118q73 0 125 52t52 125zM1206 842q25 0 42 -17t17 -42t-17 -42t-42 -17h-119q-25 0 -42 17t-17 42t17 42t42 17h119z"/>
    <glyph glyph-name="u" unicode="ü" d="M1265 1078q122 0 209 -86.5t87 -208.5v-296q0 -122 -87 -209t-209 -87q0 -73 -52 -125t-126 -52h-473q-74 0 -125.5 52t-51.5 125q-122 0 -209 87t-87 209v296q0 122 87 208.5t209 86.5v119q0 98 69.5 167t167.5 69h354q98 0 167.5 -69t69.5 -167v-119zM555 1197v-119 h592v119q0 49 -35 83.5t-84 34.5h-354q-49 0 -84 -34.5t-35 -83.5zM1147 191v237q0 25 -17.5 42t-42.5 17h-473q-25 0 -42 -17t-17 -42v-237q0 -25 17 -42t42 -17h473q25 0 42.5 17t17.5 42zM1442 487v296q0 73 -52 125t-125 52h-828q-73 0 -125 -52t-52 -125v-296 q0 -73 52 -125t125 -52v118q0 74 51.5 125.5t125.5 51.5h473q74 0 126 -52t52 -125v-118q73 0 125 52t52 125zM1206 842q25 0 42 -17t17 -42t-17 -42t-42 -17h-119q-25 0 -42 17t-17 42t17 42t42 17h119z"/>
    <glyph glyph-name="u" unicode="û" d="M1265 1078q122 0 209 -86.5t87 -208.5v-296q0 -122 -87 -209t-209 -87q0 -73 -52 -125t-126 -52h-473q-74 0 -125.5 52t-51.5 125q-122 0 -209 87t-87 209v296q0 122 87 208.5t209 86.5v119q0 98 69.5 167t167.5 69h354q98 0 167.5 -69t69.5 -167v-119zM555 1197v-119 h592v119q0 49 -35 83.5t-84 34.5h-354q-49 0 -84 -34.5t-35 -83.5zM1147 191v237q0 25 -17.5 42t-42.5 17h-473q-25 0 -42 -17t-17 -42v-237q0 -25 17 -42t42 -17h473q25 0 42.5 17t17.5 42zM1442 487v296q0 73 -52 125t-125 52h-828q-73 0 -125 -52t-52 -125v-296 q0 -73 52 -125t125 -52v118q0 74 51.5 125.5t125.5 51.5h473q74 0 126 -52t52 -125v-118q73 0 125 52t52 125zM1206 842q25 0 42 -17t17 -42t-17 -42t-42 -17h-119q-25 0 -42 17t-17 42t17 42t42 17h119z"/>
    <glyph glyph-name="u" unicode="ú" d="M1265 1078q122 0 209 -86.5t87 -208.5v-296q0 -122 -87 -209t-209 -87q0 -73 -52 -125t-126 -52h-473q-74 0 -125.5 52t-51.5 125q-122 0 -209 87t-87 209v296q0 122 87 208.5t209 86.5v119q0 98 69.5 167t167.5 69h354q98 0 167.5 -69t69.5 -167v-119zM555 1197v-119 h592v119q0 49 -35 83.5t-84 34.5h-354q-49 0 -84 -34.5t-35 -83.5zM1147 191v237q0 25 -17.5 42t-42.5 17h-473q-25 0 -42 -17t-17 -42v-237q0 -25 17 -42t42 -17h473q25 0 42.5 17t17.5 42zM1442 487v296q0 73 -52 125t-125 52h-828q-73 0 -125 -52t-52 -125v-296 q0 -73 52 -125t125 -52v118q0 74 51.5 125.5t125.5 51.5h473q74 0 126 -52t52 -125v-118q73 0 125 52t52 125zM1206 842q25 0 42 -17t17 -42t-17 -42t-42 -17h-119q-25 0 -42 17t-17 42t17 42t42 17h119z"/>
    <glyph glyph-name="u" unicode="ù" d="M1265 1078q122 0 209 -86.5t87 -208.5v-296q0 -122 -87 -209t-209 -87q0 -73 -52 -125t-126 -52h-473q-74 0 -125.5 52t-51.5 125q-122 0 -209 87t-87 209v296q0 122 87 208.5t209 86.5v119q0 98 69.5 167t167.5 69h354q98 0 167.5 -69t69.5 -167v-119zM555 1197v-119 h592v119q0 49 -35 83.5t-84 34.5h-354q-49 0 -84 -34.5t-35 -83.5zM1147 191v237q0 25 -17.5 42t-42.5 17h-473q-25 0 -42 -17t-17 -42v-237q0 -25 17 -42t42 -17h473q25 0 42.5 17t17.5 42zM1442 487v296q0 73 -52 125t-125 52h-828q-73 0 -125 -52t-52 -125v-296 q0 -73 52 -125t125 -52v118q0 74 51.5 125.5t125.5 51.5h473q74 0 126 -52t52 -125v-118q73 0 125 52t52 125zM1206 842q25 0 42 -17t17 -42t-17 -42t-42 -17h-119q-25 0 -42 17t-17 42t17 42t42 17h119z"/>
    <glyph glyph-name="v" unicode="v" d="M915 767q0 -23 -16 -39l-331 -330q-16 -16 -39 -16t-39 16t-16 39t16 39l227 226q27 27 27 65.5t-27 65.5l-227 226q-16 17 -16 39t16 39t39 17t39 -17l331 -331q16 -16 16 -39zM1211 806q17 -17 17 -39t-17 -39l-330 -330q-17 -16 -39 -16t-39 16t-17 39t17 39l226 226 q27 27 27 65.5t-27 65.5l-226 226q-17 17 -17 39t17 39t39 17t39 -17z"/>
    <glyph glyph-name="w" unicode="w" d="M1545 114q17 -17 17 -41.5t-17 -41.5q-17 -18 -41.5 -18t-42.5 17l-353 353q-164 -133 -375 -133t-375 133q-124 102 -180 249.5t-31 303.5t127 280t250 180t304 31t280 -127t180 -249.5t31 -303.5t-127 -280zM734 367q128 0 237 63.5t172.5 173t63.5 237.5t-63.5 237 t-172.5 172.5t-237 63.5t-237 -63.5t-172.5 -172.5t-63.5 -237t63.5 -237.5t172.5 -173t237 -63.5z"/>
    <glyph glyph-name="x" unicode="x" d="M851 469q-111 0 -189.5 78.5t-78.5 189.5t78.5 189.5t189.5 78.5t189.5 -78.5t78.5 -189.5t-78.5 -189.5t-189.5 -78.5z"/>
    <glyph glyph-name="y" unicode="y" d="M1265 1374q122 0 209 -87t87 -209v-709q0 -122 -87 -209t-209 -87h-828q-122 0 -209 87t-87 209v709q0 122 87 209t209 87h828zM437 1256q-54 0 -99 -31t-65 -81l452 -453q52 -52 125.5 -52t125.5 52l453 453q-20 50 -65 81t-99 31h-828zM1442 369v621l-382 -382 q-87 -86 -209 -86t-209 86l-382 382v-621q0 -74 52 -126t125 -52h828q73 0 125 52t52 126z"/>
    <glyph glyph-name="y" unicode="ÿ" d="M1265 1374q122 0 209 -87t87 -209v-709q0 -122 -87 -209t-209 -87h-828q-122 0 -209 87t-87 209v709q0 122 87 209t209 87h828zM437 1256q-54 0 -99 -31t-65 -81l452 -453q52 -52 125.5 -52t125.5 52l453 453q-20 50 -65 81t-99 31h-828zM1442 369v621l-382 -382 q-87 -86 -209 -86t-209 86l-382 382v-621q0 -74 52 -126t125 -52h828q73 0 125 52t52 126z"/>
    <glyph glyph-name="y" unicode="ý" d="M1265 1374q122 0 209 -87t87 -209v-709q0 -122 -87 -209t-209 -87h-828q-122 0 -209 87t-87 209v709q0 122 87 209t209 87h828zM437 1256q-54 0 -99 -31t-65 -81l452 -453q52 -52 125.5 -52t125.5 52l453 453q-20 50 -65 81t-99 31h-828zM1442 369v621l-382 -382 q-87 -86 -209 -86t-209 86l-382 382v-621q0 -74 52 -126t125 -52h828q73 0 125 52t52 126z"/>
    <glyph glyph-name="z" unicode="z" d="M1058 790q17 -17 17 -42t-17 -42l-330 -330q-18 -18 -42 -18q-25 0 -42 17.5t-17 42.5v660q0 25 17 42t42 17t42 -17z"/>
    <glyph glyph-name="braceleft" unicode="{" d="M1582 1121q25 -112 -6 -220t-112 -189q-79 -79 -187 -110.5t-218 -8.5l-544 -545q-74 -66 -167 -66q-50 0 -95.5 20t-74.5 50q-26 27 -43.5 64t-24.5 82t9.5 95.5t58.5 94.5l543 543q-24 110 7.5 217.5t111.5 187.5q81 81 189.5 112.5t220.5 5.5q22 -4 38.5 -20t22.5 -38 q15 -46 -21 -82l-152 -151l40 -113l113 -40l151 152q35 34 82 21q47 -14 58 -62zM1386 790q105 105 96 254l-162 -161l-229 80l-80 229l161 161q-4 0 -11 0.5t-10 0.5q-135 0 -232 -97q-65 -65 -87 -151.5t4 -175.5l9 -31l-588 -588q-29 -30 -37 -63t2.5 -59t19.5 -40 t16 -21q15 -17 41 -27.5t66 -5.5t75 35l587 587l31 -10q87 -25 175 -3t153 86z"/>
    <glyph glyph-name="verticalbar" unicode="|" d="M1147 1433q122 0 208.5 -86.5t86.5 -208.5v-828q0 -122 -86.5 -209t-208.5 -87h-651q-98 0 -167 69t-69 167v888q0 122 86.5 208.5t208.5 86.5h592zM378 1138v-683q55 32 118 32v818q-53 -19 -85.5 -65t-32.5 -102zM1324 310v59h-828q-49 0 -83.5 -35t-34.5 -84 t34.5 -83.5t83.5 -34.5h651q73 0 125 52t52 126zM1324 487v651q0 74 -52 125.5t-125 51.5h-533v-828h710z"/>
    <glyph glyph-name="braceright" unicode="}" d="M279 847q-47 0 -87 24t-62 65q-20 37 -18 80t27 78q38 57 103 92l462 241q69 36 147 36t147 -36l462 -241q65 -35 103 -92q25 -35 27 -78t-18 -80q-22 -41 -62 -65t-87 -24h-18v-493h62q25 0 43.5 -18t18.5 -44q0 -25 -18 -43t-44 -18h-1232q-26 0 -44 18t-18 43 q0 26 18.5 44t43.5 18h62v493h-18zM605 354v493h-185v-493h185zM974 354v493h-246v-493h246zM1282 354v493h-185v-493h185zM241 1024q-12 -15 -2 -31q12 -23 40 -23h1144q28 0 40 23q10 17 -1 31q-22 32 -59 53l-462 241q-89 46 -180 0l-462 -241q-36 -20 -58 -53zM1529 108 q25 0 43 -18t18 -44t-18 -44t-43 -18h-1356q-25 0 -43 18t-18 44t18 44t43 18h1356z"/>
    <glyph glyph-name="asciitilde" unicode="~" d="M851 724q-147 0 -251 103.5t-104 250.5t104 251t251 104t251 -104t104 -251t-104 -250.5t-251 -103.5zM851 1315q-98 0 -167.5 -69.5t-69.5 -167.5t69.5 -167t167.5 -69t167 69t69 167t-69 167.5t-167 69.5zM851 605q108 0 206.5 -42t170 -113.5t113.5 -170t42 -206.5 q0 -25 -17 -42t-42 -17t-42 17t-17 42q0 172 -121 293t-293 121t-293 -121t-121 -293q0 -25 -17 -42t-42 -17t-42 17t-17 42q0 108 42 206.5t113.5 170t170 113.5t206.5 42z"/>
    <glyph glyph-name="nonbreakingspace" unicode=" " horiz-adv-x="759"/>
    <glyph glyph-name="softhyphen" unicode="­" horiz-adv-x="0"/>
  </font>
</defs>
</svg>
