<svg width="30" height="39" viewBox="0 0 30 39" fill="none" xmlns="http://www.w3.org/2000/svg">
<path d="M24.6383 3.76146C18.7683 -1.59854 9.66827 -1.17854 4.30827 4.69146C-1.05173 10.5615 -0.631731 19.6715 5.24827 25.0215C7.34827 26.8615 8.58827 29.5015 8.65827 32.2915V32.5515C8.65827 35.8115 11.3083 38.4515 14.5683 38.4515H15.5683C18.8283 38.4515 21.4683 35.8115 21.4683 32.5515V31.6715C21.5183 29.2015 22.6483 26.8715 24.5583 25.2915C30.5183 20.0515 31.1183 10.9815 25.8983 5.00146C25.5083 4.56146 25.0883 4.14146 24.6483 3.75146L24.6383 3.76146ZM15.5483 35.3015H14.5483C13.0583 35.3015 11.8483 34.0915 11.8383 32.6015V32.1015H18.2483V32.6015C18.2483 34.0915 17.0383 35.3015 15.5483 35.3015ZM22.4283 22.9215C20.6083 24.5015 19.2883 26.5915 18.6483 28.9215H16.6483V17.4115C18.5583 16.7315 19.8383 14.9315 19.8483 12.9015C19.8483 12.0215 19.1283 11.3015 18.2483 11.3015C17.3683 11.3015 16.6483 12.0215 16.6483 12.9015C16.6483 13.7815 15.9283 14.5015 15.0483 14.5015C14.1683 14.5015 13.4483 13.7815 13.4483 12.9015C13.4483 12.0215 12.7283 11.3015 11.8483 11.3015C10.9683 11.3015 10.2483 12.0215 10.2483 12.9015C10.2483 14.9315 11.5383 16.7315 13.4483 17.4115V28.9015H11.3383C10.6183 26.5215 9.25827 24.3715 7.41827 22.6915C2.88827 18.4815 2.63827 11.4015 6.83827 6.88146C8.64827 4.93146 11.0983 3.69146 13.7383 3.38146C14.1683 3.33146 14.6083 3.30146 15.0483 3.30146C17.7983 3.29146 20.4483 4.30146 22.4883 6.15146C27.0983 10.2615 27.5083 17.3215 23.3983 21.9315C23.0883 22.2815 22.7483 22.6215 22.3983 22.9315L22.4283 22.9115V22.9215Z" fill="#00446B"/>
</svg>
