<svg width="82" height="75" viewBox="0 0 82 75" fill="none" xmlns="http://www.w3.org/2000/svg">
<path d="M4.73173 1.52767L1.44464 5.0213C-0.477245 7.06699 -0.477245 10.3746 1.44464 12.4203L21.5781 33.7939C23.5 35.8396 23.5 39.1605 21.5781 41.2062L1.44464 62.5665C-0.490499 64.6122 -0.490499 67.9198 1.44464 69.9655L4.73173 73.4591C6.65362 75.5048 9.78166 75.5048 11.7035 73.4591L42.1091 41.2195C44.031 39.1738 44.0443 35.8529 42.1091 33.8072L11.7035 1.54096C9.78166 -0.504741 6.66688 -0.504741 4.73173 1.54096" fill="#FFD000"/>
<path d="M43.1762 1.52764L39.8891 5.02127C37.9672 7.06696 37.9672 10.3746 39.8891 12.4203L60.0225 33.7938C61.9444 35.8395 61.9444 39.1605 60.0225 41.2062L39.8891 62.5664C37.954 64.6121 37.954 67.9198 39.8891 69.9655L43.1762 73.4591C45.0981 75.5048 48.2261 75.5048 50.148 73.4591L80.5536 41.2195C82.4755 39.1738 82.4887 35.8528 80.5536 33.8071L50.148 1.54092C48.2261 -0.504771 45.1113 -0.504771 43.1762 1.54092" fill="#FFD000"/>
</svg>
