<svg width="13" height="13" viewBox="0 0 13 13" fill="none" xmlns="http://www.w3.org/2000/svg">
<path fill-rule="evenodd" clip-rule="evenodd" d="M5.66186 6.90529C5.44604 6.71343 5.44604 6.40242 5.66186 6.21056L11.2961 1.20183C11.5119 1.00997 11.8618 1.00997 12.0776 1.20183L12.3381 1.43342C12.554 1.62528 12.554 1.93633 12.3381 2.1282L7.35519 6.55793L12.3381 10.9877C12.554 11.1795 12.554 11.4906 12.3381 11.6824L12.0776 11.914C11.8618 12.1059 11.5119 12.1059 11.2961 11.914L5.66186 6.90529Z" fill="#00446B"/>
<path fill-rule="evenodd" clip-rule="evenodd" d="M0.809195 6.7895C0.593375 6.59764 0.593375 6.28662 0.809195 6.09476L6.44343 1.08603C6.65925 0.894175 7.0091 0.894175 7.22492 1.08603L7.48547 1.31763C7.70129 1.50948 7.70129 1.82054 7.48547 2.0124L2.50252 6.44213L7.48547 10.8719C7.70128 11.0637 7.70128 11.3748 7.48547 11.5666L7.22492 11.7982C7.0091 11.9901 6.65925 11.9901 6.44343 11.7982L0.809195 6.7895Z" fill="#00446B"/>
</svg>
