<svg width="13" height="13" viewBox="0 0 13 13" fill="none" xmlns="http://www.w3.org/2000/svg">
<path fill-rule="evenodd" clip-rule="evenodd" d="M5.66186 6.90505C5.44604 6.71319 5.44604 6.40218 5.66186 6.21032L11.2961 1.20158C11.5119 1.00973 11.8618 1.00973 12.0776 1.20158L12.3381 1.43318C12.554 1.62503 12.554 1.93609 12.3381 2.12795L7.35519 6.55768L12.3381 10.9874C12.554 11.1793 12.554 11.4903 12.3381 11.6822L12.0776 11.9138C11.8618 12.1057 11.5119 12.1057 11.2961 11.9138L5.66186 6.90505Z" fill="white"/>
<path fill-rule="evenodd" clip-rule="evenodd" d="M0.809195 6.78925C0.593375 6.59739 0.593375 6.28638 0.809195 6.09452L6.44343 1.08578C6.65925 0.893931 7.0091 0.893931 7.22492 1.08578L7.48547 1.31738C7.70129 1.50923 7.70129 1.82029 7.48547 2.01215L2.50252 6.44189L7.48547 10.8716C7.70128 11.0635 7.70128 11.3745 7.48547 11.5664L7.22492 11.798C7.0091 11.9899 6.65925 11.9899 6.44343 11.798L0.809195 6.78925Z" fill="white"/>
</svg>
