<svg width="13" height="13" viewBox="0 0 13 13" fill="none" xmlns="http://www.w3.org/2000/svg">
<path fill-rule="evenodd" clip-rule="evenodd" d="M7.33813 6.09495C7.55395 6.28681 7.55395 6.59782 7.33814 6.78968L1.7039 11.7984C1.48808 11.9903 1.13823 11.9903 0.922411 11.7984L0.661865 11.5668C0.446045 11.375 0.446045 11.0639 0.661865 10.872L5.64481 6.44232L0.661865 2.01256C0.446045 1.8207 0.446045 1.50968 0.661864 1.31782L0.92241 1.0862C1.13823 0.894343 1.48808 0.894343 1.7039 1.0862L7.33813 6.09495Z" fill="white"/>
<path fill-rule="evenodd" clip-rule="evenodd" d="M12.1908 6.21075C12.4066 6.40261 12.4066 6.71362 12.1908 6.90548L6.55657 11.9142C6.34075 12.1061 5.9909 12.1061 5.77508 11.9142L5.51453 11.6826C5.29871 11.4908 5.29871 11.1797 5.51453 10.9878L10.4975 6.55811L5.51453 2.12836C5.29871 1.9365 5.29871 1.62548 5.51453 1.43362L5.77508 1.202C5.9909 1.01014 6.34075 1.01014 6.55657 1.202L12.1908 6.21075Z" fill="white"/>
</svg>
