<svg width="42" height="36" viewBox="0 0 42 36" fill="none" xmlns="http://www.w3.org/2000/svg">
<path d="M30.1647 0C26.3447 0.06 22.8547 2.15 21.0047 5.49C19.1547 2.15 15.6547 0.06 11.8447 0C5.61467 0.26 0.76467 5.51 0.99467 11.74C0.99467 19.32 9.00467 27.57 15.6747 33.2C18.7547 35.79 23.2547 35.79 26.3347 33.2C33.0047 27.57 41.0047 19.32 41.0047 11.74C41.2447 5.51 36.3947 0.26 30.1647 0ZM24.1647 30.65C22.3147 32.18 19.6347 32.18 17.7847 30.65C9.25467 23.47 4.34467 16.57 4.34467 11.74C4.11467 7.35 7.45467 3.6 11.8447 3.33C16.2247 3.6 19.5647 7.36 19.3347 11.74C19.3347 12.66 20.0847 13.41 21.0047 13.41C21.9247 13.41 22.6747 12.66 22.6747 11.74C22.4447 7.36 25.7847 3.6 30.1647 3.33C34.5547 3.6 37.8947 7.35 37.6647 11.74C37.6647 16.58 32.7547 23.47 24.1947 30.64H24.1647V30.65Z" fill="#00446B"/>
</svg>
