<svg width="29" height="26" viewBox="0 0 29 26" fill="none" xmlns="http://www.w3.org/2000/svg">
<path d="M0.000391845 4.26076C0.000391845 3.99843 0.00528477 3.7361 0.000391845 3.47377C-0.0159179 2.67136 0.478267 2.23244 1.23015 2.40904C1.47805 2.46733 1.71618 2.57363 1.95267 2.67822C2.59201 2.96112 3.26886 3.04685 3.94735 3.10343C5.50167 3.23374 7.03641 3.09829 8.54017 2.65079C9.55138 2.35074 10.4435 1.84666 11.1726 1.01853C11.4776 0.672193 11.8657 0.380719 12.2621 0.152683C12.8084 -0.162795 13.2194 0.0189479 13.4722 0.620756C14.0333 1.95982 14.4149 3.36404 14.7721 4.77341C15.1277 6.17248 15.4033 7.59213 15.5061 9.03579C15.5795 10.0577 15.5697 11.0915 15.5403 12.1168C15.5077 13.2433 15.263 14.3355 14.8798 15.3882C14.0594 17.6463 12.5426 19.1722 10.4142 20.0621C9.8107 20.3141 9.20235 20.2473 8.59889 20.141C7.31857 19.9146 6.11818 19.4568 5.07272 18.6287C3.7761 17.6017 2.8073 16.2884 2.07662 14.771C1.33127 13.2227 0.858284 11.5802 0.541875 9.88278C0.277657 8.46656 0.103143 7.04176 0.050952 5.59982C0.0346423 5.15404 0.0476901 4.70654 0.0476901 4.26076H0.000391845ZM12.4415 12.7975C10.2869 14.9321 7.85843 15.5322 5.04663 14.2583C5.09882 14.3612 5.11676 14.4041 5.14285 14.4435C5.6615 15.2202 6.30411 15.8563 7.08534 16.3398C7.78666 16.7719 8.54017 16.9022 9.32793 16.7547C10.5968 16.5164 11.4254 15.6865 11.9685 14.5035C12.2148 13.9668 12.3697 13.3976 12.4415 12.7992V12.7975ZM5.2244 10.0131C5.98117 10.0285 6.5194 9.76962 6.8146 9.0838C6.84722 9.00836 6.86516 8.89348 6.8358 8.8249C6.60421 8.28996 6.26333 7.86646 5.69902 7.70015C4.65845 7.39325 3.44175 8.14079 3.18895 9.23811C3.16122 9.35641 3.19058 9.42156 3.29496 9.473C3.92941 9.78333 4.58506 10.0079 5.2244 10.0148V10.0131ZM9.10123 8.38597C9.07024 8.55743 9.15016 8.6843 9.30347 8.78718C9.81233 9.12837 10.3408 9.16095 10.8823 8.89177C11.5819 8.54543 12.0614 7.93676 12.5312 7.32123C12.5638 7.27837 12.5442 7.14464 12.5034 7.0932C11.9864 6.45196 11.0878 6.24964 10.238 6.57197C9.54322 6.83602 9.1208 7.50126 9.10123 8.38426V8.38597Z" fill="#00446B"/>
<path d="M18.799 25.9962C17.6117 26.0545 16.6787 25.4406 15.7866 24.7462C14.5389 23.7758 13.6647 22.4985 13.089 20.9897C13.0041 20.7685 12.9422 20.5507 13.0808 20.321C13.3793 19.8272 13.955 19.8443 14.2225 20.3638C14.4508 20.8062 14.6531 21.264 14.901 21.6909C15.586 22.8705 16.5254 23.7707 17.7095 24.3708C17.9493 24.4925 18.2363 24.5542 18.5038 24.5662C19.4057 24.6057 20.2995 24.5234 21.1509 24.1736C22.6644 23.5546 23.8208 22.471 24.708 21.0685C25.5578 19.7243 26.1204 18.2395 26.5739 16.7033C27.0925 14.9493 27.3812 13.149 27.572 11.3299C27.6421 10.6543 27.6731 9.97194 27.6992 9.29126C27.7204 8.74946 27.5948 8.64316 27.0909 8.75289C26.8283 8.80947 26.5624 8.88148 26.3162 8.99121C25.1272 9.52101 23.8942 9.57587 22.6367 9.4027C21.5945 9.25868 20.5849 8.97749 19.6031 8.59343C18.7191 8.24881 17.8693 7.83046 17.1925 7.1172C17.0375 6.95261 16.9071 6.73829 16.8304 6.52225C16.7423 6.27536 16.9022 5.99074 17.1403 5.84672C17.3719 5.70612 17.6655 5.70955 17.84 5.89644C18.6473 6.76058 19.6797 7.19779 20.7415 7.56127C21.8391 7.93676 22.9759 8.09621 24.1307 8.09964C24.7406 8.09964 25.3213 7.97448 25.8791 7.71387C26.3259 7.50469 26.794 7.37439 27.2866 7.35895C28.2652 7.32809 28.9388 7.91447 28.9893 8.93977C29.0236 9.65817 28.9698 10.3834 28.9078 11.1018C28.7855 12.5146 28.5767 13.9154 28.2733 15.2973C27.9471 16.7839 27.5329 18.2412 26.9425 19.6386C26.1596 21.4886 25.0897 23.1123 23.5402 24.3519C22.5258 25.1629 21.3776 25.6481 20.1217 25.8504C19.683 25.9207 19.2361 25.9499 18.7941 25.9962H18.799Z" fill="#00446B"/>
<path d="M15.462 19.8186C15.511 19.6952 15.5256 19.6146 15.5664 19.558C16.2253 18.6441 17.0098 17.8983 18.0471 17.4765C19.4595 16.9022 21.053 17.5777 21.7935 18.6527C22.3415 19.4466 22.6497 20.333 22.79 21.2914C22.7998 21.3583 22.7541 21.432 22.7329 21.504C22.6726 21.468 22.5992 21.4457 22.5551 21.3943C21.433 20.0707 20.0565 19.3094 18.3472 19.2631C17.4306 19.2374 16.5466 19.3866 15.7034 19.774C15.6463 19.7998 15.5778 19.7998 15.4604 19.822L15.462 19.8186Z" fill="#00446B"/>
<path d="M23.4897 15.3865C22.7998 15.4088 22.3301 15.0316 21.9778 14.4521C21.9468 14.4023 21.9337 14.3012 21.9615 14.2583C22.1702 13.9308 22.3578 13.5759 22.6187 13.2999C23.0249 12.8712 23.5566 12.8301 24.0964 12.9535C24.8434 13.1267 25.3881 13.5691 25.6752 14.3338C25.7469 14.5258 25.7111 14.639 25.5235 14.7401C24.9119 15.0676 24.2872 15.3436 23.5908 15.3814C23.5565 15.3831 23.5239 15.3848 23.4897 15.3865Z" fill="#00446B"/>
<path d="M18.083 11.5853C19.2801 11.5836 19.988 12.2814 20.0679 13.4679C20.0793 13.6479 20.0157 13.7834 19.8836 13.8914C19.4449 14.2463 18.9572 14.3389 18.432 14.1623C17.8808 13.9754 17.4241 13.6274 17.0163 13.2039C16.8386 13.0187 16.6592 12.837 16.4928 12.6415C16.4586 12.6021 16.4471 12.4872 16.4749 12.4529C16.9185 11.9162 17.4502 11.5613 18.0846 11.5853H18.083Z" fill="#00446B"/>
</svg>
