<svg width="27" height="34" viewBox="0 0 27 34" fill="none" xmlns="http://www.w3.org/2000/svg">
<path d="M11.8725 33.4973C12.0907 33.4799 12.3088 33.4626 12.5256 33.4439V33.4171C12.3586 33.4024 12.1903 33.377 12.022 33.377C11.3272 33.377 10.662 33.2086 10.0076 33.0108C8.15073 32.4494 6.53087 31.4723 5.11567 30.1611C2.77811 27.9944 1.23231 25.3558 0.42574 22.2923C0.23992 21.5878 0.134891 20.8607 0.0325558 20.1376C-0.0213051 19.7566 0.00697189 19.3623 0.0110115 18.9747C0.0163975 18.3652 -0.015919 17.7503 0.0527536 17.1475C0.377265 14.2938 1.3912 11.6967 3.09724 9.37494C3.98729 8.16394 5.04969 7.12537 6.34235 6.33675C7.31454 5.74329 8.38099 5.43586 9.5161 5.42115C10.2755 5.41046 11.0148 5.5722 11.6773 5.97051C12.1957 6.28195 12.5902 6.69631 12.7181 7.31117C12.7841 7.62394 12.7599 7.93404 12.6252 8.22142C12.5108 8.46603 12.3828 8.70929 12.2226 8.92717C11.7661 9.54737 11.3514 10.1876 11.1198 10.9281C10.9771 11.3866 10.9273 11.8598 11.0565 12.3209C11.2437 12.9879 11.7608 13.3194 12.3963 13.4931C13.2904 13.7364 14.1778 13.6255 15.0584 13.4116C15.8798 13.2111 16.6554 12.889 17.3906 12.4733C17.466 12.4305 17.5454 12.3744 17.575 12.5174C17.6895 13.0774 18.01 13.5453 18.2766 14.0358C18.7856 14.9768 19.3067 15.9125 19.8129 16.8548C19.848 16.9203 19.8331 17.0379 19.7981 17.1114C19.5585 17.61 19.3848 18.1273 19.3255 18.678C19.168 20.1483 19.5086 21.4595 20.6222 22.4968C21.146 22.9846 21.7129 23.4284 22.2609 23.8895C22.4521 24.0513 22.6487 24.2077 22.8399 24.3681C23.1079 24.5926 23.3126 24.8613 23.462 25.1807C23.7017 25.6953 24.0962 26.0589 24.6321 26.2607C24.7547 26.3062 24.8866 26.3249 25.0482 26.3637C23.7865 28.3392 22.1976 29.9766 20.2236 31.2317C18.251 32.4855 16.1275 33.3236 13.7213 33.4305C13.86 33.4572 13.9717 33.4786 14.0835 33.5H11.8725V33.4973ZM13.9556 27.1804C14.0135 25.7461 12.811 24.3747 11.1777 24.3828C9.62652 24.3908 8.37291 25.6419 8.38233 27.1844C8.39041 28.7108 9.62652 29.9218 11.1454 29.9392C12.8824 29.9592 14.0202 28.4943 13.9569 27.179L13.9556 27.1804ZM3.03126 21.3593C3.02318 22.6826 4.12194 23.7652 5.48058 23.7733C6.77055 23.7813 7.87335 22.6839 7.88277 21.3833C7.89355 20.0534 6.81768 18.972 5.49135 18.956C4.06404 18.9386 3.02991 20.0721 3.02991 21.3606L3.03126 21.3593ZM20.6532 25.2142C20.7151 24.0219 19.6635 22.8764 18.4301 22.9031C17.0607 22.9325 16.0077 24.1047 16.0508 25.273C16.0966 26.512 17.1455 27.5212 18.4328 27.5025C19.6541 27.4851 20.6693 26.4372 20.6532 25.2128V25.2142ZM7.85854 14.12C7.87066 13.0186 6.95771 12.0763 5.86838 12.0656C4.71306 12.0549 3.79339 12.9424 3.75973 14.0545C3.72606 15.1546 4.61746 16.129 5.81182 16.1544C6.91732 16.1771 7.84642 15.2415 7.85719 14.12H7.85854Z" fill="#00446B"/>
<path d="M23.8 9.80267C23.1577 9.935 22.5343 10.0459 21.9203 10.1956C21.3022 10.3467 20.7205 10.5993 20.1428 10.9254C20.0984 10.7049 20.054 10.5017 20.0163 10.2986C19.7577 8.8884 19.5032 7.47691 19.2447 6.06675C18.9956 4.70471 18.7411 3.34401 18.492 1.98331C18.4651 1.83628 18.453 1.68658 18.4408 1.53821C18.3897 0.91266 18.9377 0.52637 19.343 0.50231C19.7241 0.479587 20.058 0.622608 20.2452 1.01424C20.4297 1.39786 20.5832 1.79752 20.7434 2.19316C21.729 4.63254 22.712 7.07325 23.695 9.51395C23.7354 9.61554 23.7717 9.7198 23.8027 9.80267H23.8Z" fill="#00446B"/>
<path d="M26.05 23.6102C25.8615 23.3295 25.7134 23.0287 25.4926 22.7962C25.1155 22.3992 24.7008 22.0343 24.2874 21.6721C23.8323 21.2724 23.3476 20.9062 22.9019 20.4958C22.5195 20.1429 22.269 19.6965 22.1465 19.1872C21.8812 18.0845 22.5195 16.7532 23.5442 16.2827C24.2066 15.9793 24.8355 16.137 25.4306 16.4658C26.1241 16.8481 26.4944 17.491 26.7435 18.2088C26.9913 18.9266 27.0492 19.6671 26.9616 20.4223C26.8526 21.3646 26.5859 22.2642 26.2291 23.1397C26.1645 23.2974 26.1079 23.4578 26.05 23.6088V23.6102Z" fill="#00446B"/>
<path d="M24.1326 10.5512C24.1312 12.0322 24.1487 13.5038 24.3682 14.9955C23.6909 14.93 23.0796 15.0851 22.5289 15.5101C22.4871 15.446 22.4454 15.3885 22.4131 15.3283C21.7654 14.1468 21.1204 12.9652 20.4714 11.7836C20.4216 11.6913 20.4216 11.6312 20.5172 11.5804C21.624 10.9896 22.782 10.5686 24.0558 10.5351C24.072 10.5351 24.0882 10.5405 24.1326 10.5499V10.5512Z" fill="#00446B"/>
</svg>
