<svg width="40" height="36" viewBox="0 0 40 36" fill="none" xmlns="http://www.w3.org/2000/svg">
<path d="M20 25.0405C23.15 25.0405 25.71 22.4805 25.71 19.3305C25.71 16.1805 23.15 13.6205 20 13.6205C16.85 13.6205 14.29 16.1805 14.29 19.3305C14.29 22.4805 16.85 25.0305 20 25.0305V25.0405ZM20 16.3405C21.66 16.3405 23 17.6805 23 19.3405C23 21.0005 21.66 22.3405 20 22.3405C18.34 22.3405 17 21.0005 17 19.3405C17 17.6805 18.34 16.3405 20 16.3405Z" fill="#00446B"/>
<path d="M31.69 25.0405C34.84 25.0505 37.41 22.5005 37.42 19.3505C37.43 16.2005 34.88 13.6305 31.73 13.6205C28.58 13.6105 26.01 16.1605 26 19.3105C26 19.3105 26 19.3305 26 19.3405C26.01 22.4805 28.55 25.0205 31.69 25.0405ZM31.69 16.3405C33.35 16.3405 34.69 17.6805 34.69 19.3405C34.69 21.0005 33.35 22.3405 31.69 22.3405C30.03 22.3405 28.69 21.0005 28.69 19.3405C28.69 17.6805 30.03 16.3405 31.69 16.3405Z" fill="#00446B"/>
<path d="M31.69 25.8005C29.5 25.8205 27.41 26.6905 25.85 28.2305C22.65 25.0105 17.45 24.9905 14.23 28.1905C14.22 28.2005 14.21 28.2105 14.19 28.2305C12.64 26.7005 10.54 25.8305 8.36 25.8105C3.76 25.8005 0.02 29.5205 0 34.1205C0.06 34.8705 0.72 35.4205 1.47 35.3605C2.13 35.3005 2.65 34.7805 2.71 34.1205C2.71 31.0305 5.21 28.5305 8.29 28.5205C9.92 28.5205 11.47 29.2305 12.54 30.4705C11.98 31.6105 11.69 32.8505 11.69 34.1205C11.75 34.8705 12.41 35.4205 13.16 35.3605C13.82 35.3005 14.34 34.7805 14.4 34.1205C14.4 33.5905 14.48 33.0705 14.63 32.5605C14.82 31.8805 15.14 31.2405 15.58 30.6905C17.49 28.2505 21.01 27.8205 23.46 29.7305C24.38 30.4505 25.05 31.4405 25.38 32.5605C25.52 33.0705 25.6 33.5905 25.6 34.1205C25.66 34.8705 26.32 35.4205 27.07 35.3605C27.73 35.3005 28.25 34.7805 28.31 34.1205C28.31 32.8505 28.02 31.6105 27.46 30.4705C29.47 28.1305 33 27.8605 35.34 29.8705C36.58 30.9305 37.29 32.4905 37.29 34.1205C37.35 34.8705 38.01 35.4205 38.76 35.3605C39.42 35.3005 39.94 34.7805 40 34.1205C39.99 29.5305 36.28 25.8205 31.69 25.8005Z" fill="#00446B"/>
<path d="M8.31 25.0405C11.46 25.0405 14.02 22.4905 14.03 19.3405C14.03 16.1905 11.48 13.6305 8.33 13.6205C5.18 13.6205 2.62 16.1705 2.61 19.3205C2.61 19.3205 2.61 19.3305 2.61 19.3405C2.61 22.4905 5.16 25.0305 8.31 25.0405ZM8.31 16.3405C9.97 16.3405 11.31 17.6805 11.31 19.3405C11.31 21.0005 9.97 22.3405 8.31 22.3405C6.65 22.3405 5.31 21.0005 5.31 19.3405C5.31 17.6805 6.65 16.3405 8.31 16.3405Z" fill="#00446B"/>
<path d="M24.91 8.21054C25.07 8.27054 25.25 8.30054 25.42 8.30054C26.05 8.30054 26.62 7.90054 26.83 7.30054L28.23 3.44054C28.5 2.66054 28.09 1.81054 27.32 1.54054C26.97 1.42054 26.58 1.43054 26.23 1.58054C25.87 1.75054 25.59 2.05054 25.46 2.42054L24 6.29054C23.72 7.07054 24.13 7.93054 24.91 8.21054Z" fill="#00446B"/>
<path d="M30.92 10.8805C31.37 10.8805 31.79 10.6805 32.08 10.3405L34.71 7.19054C34.97 6.89054 35.09 6.50054 35.06 6.10054C35.02 5.71054 34.83 5.35054 34.53 5.10054C33.89 4.57054 32.94 4.65054 32.41 5.29054L29.78 8.43054C29.26 9.07054 29.35 10.0205 29.99 10.5405C30.25 10.7505 30.58 10.8705 30.92 10.8805Z" fill="#00446B"/>
<path d="M6.51 10.3805C6.76 10.6805 7.12 10.8705 7.51 10.9105H7.65C8.01 10.9105 8.37 10.8005 8.65 10.5605C8.95 10.3105 9.14 9.95054 9.18 9.56054C9.21 9.16054 9.09 8.77054 8.83 8.46054L6.18 5.31054C5.65 4.67054 4.7 4.59054 4.06 5.12054C3.76 5.37054 3.57 5.73054 3.53 6.12054C3.5 6.52054 3.62 6.91054 3.88 7.21054L6.51 10.3805Z" fill="#00446B"/>
<path d="M11.76 7.31054C11.97 7.91054 12.54 8.31054 13.17 8.31054C13.34 8.31054 13.52 8.28054 13.68 8.22054C14.46 7.94054 14.86 7.08054 14.58 6.30054L13.17 2.43054C12.89 1.66054 12.03 1.26054 11.26 1.54054C10.49 1.81054 10.08 2.65054 10.35 3.43054V3.45054L11.75 7.31054H11.76Z" fill="#00446B"/>
<path d="M19.3 7.40054C20.13 7.40054 20.81 6.71054 20.8 5.88054V1.79054C20.7 0.960543 19.95 0.370543 19.13 0.460543C18.43 0.540543 17.88 1.09054 17.8 1.79054V5.88054C17.8 6.71054 18.47 7.39054 19.3 7.40054Z" fill="#00446B"/>
</svg>
