<svg width="48" height="41" viewBox="0 0 48 41" fill="none" xmlns="http://www.w3.org/2000/svg">
<path d="M20.592 30.732C20.592 36.699 16.497 40.794 10.53 40.794C4.563 40.794 0 37.401 0 27.105C0 7.68298 14.625 0.896973 18.954 0.896973C19.656 0.896973 20.241 1.01398 20.241 2.65198V9.08698C20.241 10.608 20.124 11.193 18.135 12.129C13.221 14.469 12.87 17.511 12.402 20.787C17.901 21.723 20.592 25.935 20.592 30.732ZM47.502 30.732C47.502 36.699 43.407 40.794 37.44 40.794C31.473 40.794 26.91 37.401 26.91 27.105C26.91 7.68298 41.535 0.896973 45.864 0.896973C46.566 0.896973 47.151 1.01398 47.151 2.65198V9.08698C47.151 10.608 47.034 11.193 45.045 12.129C40.131 14.469 39.78 17.511 39.312 20.787C44.811 21.723 47.502 25.935 47.502 30.732Z" fill="#FFD000"/>
</svg>
