<svg width="29" height="32" viewBox="0 0 29 32" fill="none" xmlns="http://www.w3.org/2000/svg">
<path d="M14.8188 31.9949C13.941 31.9949 13.0612 32.005 12.1833 31.9889C11.9614 31.9849 11.7177 31.9406 11.5235 31.8381C11.1747 31.655 11.0103 31.3332 11.0499 30.923C11.1133 30.2753 11.1767 29.6297 11.2441 28.9821C11.3769 27.705 11.5136 26.4299 11.6483 25.1527C11.6602 25.0441 11.6582 24.9355 11.6662 24.8289C11.688 24.5252 11.6325 24.2577 11.4878 23.9742C11.2976 23.6041 11.1866 23.1878 11.0796 22.7795C10.9845 22.4215 10.6794 22.2646 10.3227 22.4034C9.85703 22.5824 9.39138 22.7835 8.90789 22.878C8.08754 23.0369 7.33456 22.7614 6.64301 22.3229C5.89994 21.8503 5.44815 21.1504 5.18263 20.3137C5.05185 19.8994 4.96466 19.827 4.52674 19.821C3.71432 19.8089 2.95342 19.6198 2.24601 19.2075C1.01153 18.4855 0.264493 17.3894 0.0564337 15.9856C-0.331944 13.3569 1.34244 11.416 3.29226 10.879C3.67469 10.7724 4.08288 10.7483 4.48117 10.7121C4.73282 10.69 4.99835 10.7 5.11724 10.4305C5.23613 10.1651 5.17074 9.91768 4.99636 9.66627C3.61128 7.66108 4.58025 4.89564 6.94222 4.21383C7.71897 3.98857 8.48384 4.06098 9.22691 4.38478C9.90459 4.68043 10.1681 4.54367 10.2613 3.79751C10.507 1.78426 12.5539 -0.28529 15.1695 0.0324838C17.2719 0.28791 18.863 1.86471 19.1563 4.00667C19.2197 4.47328 19.5685 4.70055 20.0084 4.5135C20.6088 4.25808 21.1953 4.23796 21.7561 4.56982C22.0335 4.73474 22.2732 4.97407 22.5071 5.20335C22.8915 5.58348 22.8954 5.60962 23.377 5.38235C25.0414 4.59395 26.9912 5.69812 27.4054 7.37749C27.7204 8.65865 27.2191 9.99813 26.0877 10.7181C25.8638 10.8609 25.7211 11.0339 25.733 11.2974C25.7449 11.5729 25.9391 11.7258 26.1729 11.8183C26.8109 12.0717 27.3638 12.4518 27.8255 12.9647C29.2621 14.5636 29.4127 16.9952 28.1009 18.7671C26.9457 20.3258 25.3763 20.8849 23.4939 20.5611C23.046 20.4847 22.8281 20.6013 22.7567 21.0599C22.5467 22.4134 20.6979 23.4472 19.3089 22.162C19.2415 22.0997 19.1801 22.0333 19.1107 21.975C18.756 21.6753 18.2983 21.8201 18.2369 22.2887C18.1596 22.872 18.0328 23.4251 17.8049 23.9701C17.7098 24.1974 17.799 24.5132 17.8307 24.7847C18.0387 26.4802 18.2527 28.1736 18.4648 29.8691C18.5024 30.1748 18.544 30.4805 18.5757 30.7862C18.649 31.5022 18.2349 31.9869 17.5275 31.9949C16.6239 32.005 15.7204 31.997 14.8168 31.997L14.8188 31.9949ZM14.8901 10.8046C14.8624 10.8046 14.8326 10.8046 14.8049 10.8026C14.365 13.4514 13.9231 16.1022 13.4773 18.7852C11.7355 17.5282 10.0175 16.2872 8.29956 15.0483C8.28371 15.0644 8.26984 15.0805 8.25398 15.0966C8.36099 15.2595 8.46403 15.4264 8.57499 15.5853C10.0037 17.6227 11.4343 19.6601 12.859 21.6995C12.9205 21.788 12.9759 21.9126 12.968 22.0152C12.9304 22.5301 12.8749 23.045 12.8194 23.5578C12.7124 24.5192 12.5975 25.4786 12.4925 26.4399C12.3775 27.5079 12.2705 28.5779 12.1615 29.6478C12.114 30.1104 12.0724 30.573 12.0248 31.0597H17.6583C17.5434 30.0782 17.4364 29.1209 17.3194 28.1635C17.0955 26.3193 16.8657 24.475 16.6398 22.6307C16.511 21.5728 16.3901 20.5128 16.2514 19.4549C16.1603 18.753 16.1028 18.1295 16.6002 17.4658C17.9575 15.6577 19.2118 13.7672 20.5077 11.9088C20.5929 11.7881 20.6642 11.6554 20.7415 11.5307C20.7197 11.5106 20.6979 11.4884 20.6761 11.4683C18.9978 12.6851 17.3214 13.9019 15.6034 15.1469C15.3637 13.6787 15.1279 12.2406 14.8921 10.8046H14.8901Z" fill="#00446B"/>
</svg>
